<?xml version="1.0" encoding="UTF-8"?>
<svg width="30px" height="30px" viewBox="0 0 30 30" version="1.1" xmlns="http://www.w3.org/2000/svg" xmlns:xlink="http://www.w3.org/1999/xlink">
    <!-- Generator: Sketch 52.6 (67491) - http://www.bohemiancoding.com/sketch -->
    <title>Commercial/CheckHand</title>
    <desc>Created with Sketch.</desc>
    <defs>
        <path d="M26.6160098,11.8637869 L27.187719,12.8684117 L24.7669225,14.254101 L23.6235038,13.5953212 L26.6160098,11.8637869 Z M15.2832737,9.75118806 L11.1809791,12.2448515 C10.8110496,12.4527048 10.5756398,12.5912739 9.97030053,12.5912739 C8.89414181,12.5912739 8.02032334,11.6911531 8.02032334,10.5826016 C8.02032334,9.78525296 8.32299298,9.36954613 9.26463187,8.8152704 L14.7457548,5.55890049 C16.9317022,5.55890049 17.974231,6.80544351 19.722989,6.80544351 C20.6646278,6.80544351 21.2699671,6.59816748 22.4464552,5.87068058 L25.4395217,4 L26.0117915,5.00462476 L22.7160554,7.08315874 C21.7071566,7.70671895 20.8327776,7.98443418 19.722989,7.98443418 C17.9069711,7.98443418 16.8980723,6.84124049 15.015355,6.73731379 L9.66819139,9.92439923 C9.36552175,10.0976104 9.19737195,10.3054638 9.19737195,10.583179 C9.19737195,11.0329507 9.53367155,11.4140152 9.97086103,11.4140152 C10.2062708,11.4140152 10.3407906,11.3447308 10.7107201,11.1368774 L14.6454255,8.78120554 L15.2832737,9.75118806 Z M17.0320317,23.9885685 C17.3005108,24.1271374 17.4355911,24.1617797 17.6037409,24.1617797 C18.007861,24.1617797 18.3772301,23.7460728 18.3772301,23.3303661 C18.3772301,22.9839438 18.3436001,22.9146593 17.8391507,22.6028792 L13.4341864,19.9700695 L14.0064562,18.9654447 L20.2610683,22.7062285 C20.5295475,22.880017 20.6646278,22.880017 20.8327776,22.880017 C21.2027072,22.880017 21.6062667,22.4637329 21.6062667,22.0486034 C21.6062667,21.7021811 21.5395673,21.5982544 21.0681874,21.3211165 L15.6206943,18.0647466 L16.1924036,17.0601219 L22.7166159,20.9400519 C22.9850951,21.0786209 23.1538054,21.1132631 23.2883252,21.1132631 C23.6924453,21.1132631 24.0618143,20.6975564 24.0618143,20.2824269 C24.0618143,19.9706468 23.9609244,19.7974356 23.5237349,19.5549401 L17.6390525,16.0214323 L18.2107617,15.0173849 L23.4906655,18.1340311 C23.7591446,18.2726001 23.8942249,18.3078197 24.0623747,18.3078197 C24.4664948,18.3078197 24.8358639,17.8915355 24.8358639,17.4769834 C24.8358639,17.1646259 24.7349739,16.9914147 24.2977845,16.7489192 L15.1846258,11.240804 L16.3280444,10.5485368 L24.8694939,15.7096522 C25.6429829,16.1600012 26.0129125,16.7489192 26.0129125,17.4417638 C26.0129125,18.4117463 25.5420931,19.0353066 24.7349739,19.2085177 C25.0712735,19.5202978 25.2057935,19.9013624 25.2057935,20.3170691 C25.2057935,21.3909784 24.3650445,22.2570342 23.2888857,22.2570342 C23.0876664,22.2570342 22.8853261,22.2218146 22.6499165,22.1184653 C22.5826565,23.2270167 21.7755375,24.057853 20.8002687,24.057853 C20.4975991,24.057853 20.1612995,23.9539263 19.6904799,23.7114307 L19.3883708,23.5382195 C19.2869205,24.6121287 18.5476218,25.3396156 17.505093,25.3396156 C17.1687934,25.3396156 16.8324938,25.2010467 16.4625643,24.9931932 L9.97254253,21.1819703 C7.85385505,19.9354272 7.28214573,19.7968583 5.56757826,19.7968583 L2,19.7968583 L2,18.6190224 L5.93470533,18.6190224 C7.48168349,18.6190224 8.49058229,18.9308025 10.0706299,19.8655653 L17.0320317,23.9885685 Z M6.80908429,10.4440327 L2,10.4440327 L2,9.26561943 L7.04449401,9.26561943 C6.90941367,9.5779769 6.80908429,9.99368373 6.80908429,10.4440327 Z" id="path-1"></path>
    </defs>
    <g id="Commercial/CheckHand" stroke="none" stroke-width="1" fill="none" fill-rule="evenodd">
        <g id="Group">
            <mask id="mask-2" fill="white">
                <use xlink:href="#path-1"></use>
            </mask>
            <use id="Commercial/CheckHand" fill="#000000" xlink:href="#path-1"></use>
        </g>
    </g>
</svg>