<svg xmlns="http://www.w3.org/2000/svg" xmlns:xlink="http://www.w3.org/1999/xlink" width="42" height="30" viewBox="0 0 42 30">
    <defs>
        <path id="a" d="M9.978 34.19H19.98v-1.966H9.978v1.966zm0-4.048h13.96v-1.966H9.978v1.966zm30.18 6.245c1.47 0 2.034-.636 2.034-2.14V23.9H5.796v10.348c0 1.503.565 2.139 2.034 2.139h32.328zM5.796 21.932h36.396V17.71H5.796v4.22zm0-6.187h36.396v-2.08c0-1.503-.565-2.141-2.034-2.141H7.83c-1.47 0-2.034.638-2.034 2.141v2.08zm-1.978-2.08c0-2.777 1.3-4.105 4.012-4.105h32.328c2.713 0 4.013 1.328 4.013 4.105v20.583c0 2.777-1.3 4.107-4.013 4.107H7.83c-2.713 0-4.012-1.33-4.012-4.107V13.665z"/>
    </defs>
    <use fill="#1F2532" fill-rule="evenodd" transform="translate(-3 -9)" xlink:href="#a"/>
</svg>
