<?xml version="1.0" encoding="UTF-8"?>
<svg width="30px" height="30px" viewBox="0 0 30 30" version="1.1" xmlns="http://www.w3.org/2000/svg" xmlns:xlink="http://www.w3.org/1999/xlink">
    <title>SVG / C12-B_action_button/renault-tap-gesture-blanc</title>
    <g id="C12-B_action_button/renault-tap-gesture-blanc" stroke="none" stroke-width="1" fill="none" fill-rule="evenodd">
        <path d="M16.6894455,30 L14.9929518,26.5497896 L5.20548819,19.4389902 C4.46599093,18.9340814 3.98749272,18.0925666 3.98749272,17.3772791 C3.98749272,16.0729313 5.07498867,14.9789621 6.42348366,14.9789621 C7.0324814,14.9789621 7.64147913,15.1893408 8.25047687,15.6521739 L10.5124685,17.2931277 L5.3359877,6.4796634 C5.11848851,6.05890604 5.03148884,5.68022441 5.03148884,5.25946705 C5.03148884,3.99719495 6.16248462,2.94530154 7.51097961,2.94530154 C8.55497573,2.94530154 9.51197223,3.53436185 9.94697051,4.41795233 L12.1219624,9.00420758 C12.6004606,8.54137448 13.2094583,8.28892007 13.9054558,8.28892007 C14.7319527,8.28892007 15.47145,8.62552596 15.9064483,9.25666197 C16.3849466,8.62552596 17.080944,8.28892007 17.8639412,8.28892007 C18.6034383,8.28892007 19.2559358,8.58345022 19.7344341,9.17251053 C20.2129325,8.58345022 20.9524296,8.28892007 21.7354267,8.28892007 C22.7794228,8.28892007 23.6494196,8.92005611 24.2584173,10.1402524 L25.4764128,12.5385694 C26.8684077,15.3155681 27.3904058,17.0827489 27.3904058,18.7657785 C27.3904058,19.312763 27.2599062,20.0280505 26.9989071,21.0378682 L26.6509084,22.1739131 L27.9559036,24.9088359 L26.5639087,25.5820477 L24.9979146,22.3422161 L25.4329129,20.9957924 C25.693912,19.9859749 25.7809117,19.312763 25.7809117,18.681627 C25.7809117,17.1669004 25.3459132,15.6942496 24.3889168,13.71669 L22.8229226,10.6030856 C22.5184238,9.97194947 22.1704251,9.7194952 21.648427,9.7194952 C21.1699289,9.7194952 20.7784303,9.97194947 20.4739313,10.4768584 L19.1254365,10.4768584 C18.8209376,9.97194947 18.429439,9.7194952 17.8639412,9.7194952 C17.2984432,9.7194952 16.9069447,9.97194947 16.6024458,10.4768584 L15.2539509,10.4768584 C14.9494519,9.97194947 14.5144535,9.7194952 13.9054558,9.7194952 C13.296458,9.7194952 12.8614598,9.97194947 12.5569608,10.4768584 L11.2084659,10.4768584 L8.55497573,5.04908836 C8.33747654,4.58625527 8.03297767,4.33380084 7.59797929,4.33380084 C7.0324814,4.33380084 6.55398317,4.71248247 6.55398317,5.21739131 C6.55398317,5.42777 6.59748301,5.59607294 6.72798252,5.84852735 L13.1224587,19.2706872 L11.7739638,19.8597476 L7.20648075,16.7040674 C6.94548171,16.5357645 6.72798252,16.4095372 6.46698349,16.4095372 C5.90148559,16.4095372 5.50998705,16.7461431 5.50998705,17.3352034 C5.50998705,17.7559608 5.68553997,18.0084152 6.2494843,18.4291725 L16.2544471,25.6661992 L18.0379405,29.4109398 L16.6894455,30 Z M11.1214662,3.53436185 C10.4689686,2.1879383 9.29447301,1.43057504 7.68497896,1.43057504 C5.37948755,1.43057504 3.55249434,2.98737729 3.55249434,4.96493689 C3.55249434,5.63814867 3.68299385,6.31136045 3.94399288,6.85834504 L4.90098932,8.83590464 L3.59599418,9.46704069 L2.55199806,7.32117814 C2.20399935,6.60589061 2.03,5.84852735 2.03,4.96493689 C2.03,2.23001403 4.55299061,0 7.68497896,0 C9.72947137,0 11.5564646,1.13604488 12.4699612,2.98737729 L13.4704574,5.00701263 L12.1219624,5.59607294 L11.1214662,3.53436185 Z" id="Shape" fill="#FFFFFF" fill-rule="nonzero"></path>
    </g>
</svg>