<svg width="28" height="25" viewBox="0 0 28 25" fill="none" xmlns="http://www.w3.org/2000/svg">
<path d="M9.17724 8.71395C10.1267 8.71395 10.8384 8.23062 11.1549 7.46523C9.84991 7.34472 8.86013 7.18318 8.2278 6.821C8.10928 6.13639 8.42576 5.61267 9.0978 5.65241C9.84991 6.05562 11.1946 6.13639 13.41 6.13639C17.0886 6.13639 18.3936 5.73318 18.3936 4.60562V3.27549C18.3936 2.06716 17.366 1.74472 13.41 1.74472C9.73076 1.74472 8.584 2.02677 8.42576 3.03382C8.6628 2.99344 8.93956 2.95305 9.17724 2.95305C9.57252 2.95305 9.92872 2.99344 10.2452 3.11459C10.3637 3.07421 10.5226 3.03382 10.7199 3.03382C11.4323 3.03382 11.7091 3.31587 11.7091 4.00049C11.7091 4.64536 11.3529 4.96715 10.7193 4.96715C10.324 4.96715 10.0472 4.80626 9.92872 4.52421C9.73076 4.40305 9.454 4.36331 9.17724 4.36331C7.87224 4.36331 7.04133 5.24921 7.04133 6.53831C7.04133 7.82677 7.87161 8.71331 9.17724 8.71331V8.71395ZM12.5791 7.50562C12.1832 9.03639 10.8782 10.1242 9.17724 10.1242C7.12013 10.1242 5.65689 8.59344 5.65689 6.53895C5.65689 5.29023 6.1707 4.28318 7.04133 3.63895V3.27549C7.04133 1.0601 8.50456 0.375488 13.41 0.375488C18.3148 0.375488 19.7786 1.0601 19.7786 3.27549H25.4349V4.60498H19.7786C19.7786 6.73959 18.0777 7.50498 13.41 7.50498H12.5791V7.50562ZM0.909717 24.7864L0 23.7793L1.6612 22.5306C3.59978 21.0402 5.02393 20.5165 7.04133 20.5165C9.77048 20.5165 12.9743 21.805 16.3371 21.9665L26.3049 14.9979C26.7008 14.7159 26.859 14.5146 26.859 14.2325C26.859 13.7088 26.4631 13.2659 25.9493 13.2659C25.7117 13.2659 25.5534 13.3063 25.1978 13.5479L20.7281 16.6088C20.3719 17.455 19.5807 17.9787 18.4333 17.9787H12.6976V16.5684H18.4333C19.106 16.5684 19.5012 16.2466 19.5012 15.6422C19.5012 15.0383 19.106 14.7159 18.4333 14.7159H8.6628C5.10274 14.7159 4.19302 14.9979 2.21535 16.5684L0.910348 17.6159L0 16.6095L1.305 15.562C3.56007 13.7492 4.90478 13.3466 8.70252 13.3466H18.4333C19.5807 13.3466 20.4904 13.9505 20.7672 14.9172L24.604 12.3396C25.0787 12.0172 25.4349 11.896 25.9493 11.896C26.5581 11.897 27.1416 12.1436 27.5718 12.5817C28.0019 13.0198 28.2435 13.6135 28.2435 14.2325C28.2435 15.0383 27.927 15.4813 26.7796 16.287L16.97 23.3357C13.4888 23.3357 9.96843 21.8857 7.0407 21.8857C5.22126 21.8857 4.23274 22.2486 2.57091 23.5377L0.909717 24.7864Z" fill="#1F2532"/>
</svg>
