<svg width="62" height="59" viewBox="0 0 62 59" fill="none" xmlns="http://www.w3.org/2000/svg">
<path d="M55.666 12.5001H46.416V6.33341C46.416 2.9325 43.6503 0.166748 40.2494 0.166748H21.7493C18.3484 0.166748 15.5827 2.9325 15.5827 6.33341V12.5001H6.33268C2.93177 12.5001 0.166016 15.2658 0.166016 18.6667V52.5834C0.166016 55.9843 2.93177 58.7501 6.33268 58.7501H55.666C59.0669 58.7501 61.8327 55.9843 61.8327 52.5834V18.6667C61.8327 15.2658 59.0669 12.5001 55.666 12.5001ZM40.2494 6.33341V12.5001H21.7493V6.33341H40.2494ZM6.33268 18.6667H55.666V31.0001H46.416V24.8334H40.2494V31.0001H21.7493V24.8334H15.5827V31.0001H6.33268V18.6667ZM6.33268 52.5834V37.1667H15.5827V43.3334H21.7493V37.1667H40.2494V43.3334H46.416V37.1667H55.6691V52.5834H6.33268Z" fill="black"/>
</svg>
