<?xml version="1.0" encoding="UTF-8"?>
<svg width="30px" height="30px" viewBox="0 0 30 30" version="1.1" xmlns="http://www.w3.org/2000/svg" xmlns:xlink="http://www.w3.org/1999/xlink">
    <title>SVG / C12-B_action_button/renault-calculator-blanc</title>
    <g id="C12-B_action_button/renault-calculator-blanc" stroke="none" stroke-width="1" fill="none" fill-rule="evenodd">
        <path d="M18.8205113,24.0324114 L21.7946335,24.0324114 L21.7946335,25.5449407 L18.8205113,25.5449407 L18.8205113,24.0324114 Z M18.8205113,19.5368378 L21.7946335,19.5368378 L21.7946335,21.0493673 L18.8205113,21.0493673 L18.8205113,19.5368378 Z M18.8205113,15.042765 L21.7946335,15.042765 L21.7946335,16.5552943 L18.8205113,16.5552943 L18.8205113,15.042765 Z M13.2971412,24.0324114 L16.781113,24.0324114 L16.781113,25.5449407 L13.2971412,25.5449407 L13.2971412,24.0324114 Z M13.2971412,19.5368378 L16.781113,19.5368378 L16.781113,21.0493673 L13.2971412,21.0493673 L13.2971412,19.5368378 Z M13.2971412,15.042765 L16.781113,15.042765 L16.781113,16.5552943 L13.2971412,16.5552943 L13.2971412,15.042765 Z M20.3075724,5.96608813 L9.68570696,5.96608813 L9.68570696,10.5456909 L20.3075724,10.5456909 L20.3075724,5.96608813 Z M8.15615838,24.0324114 L11.2577431,24.0324114 L11.2577431,25.5449407 L8.15615838,25.5449407 L8.15615838,24.0324114 Z M8.15615838,19.5368378 L11.2577431,19.5368378 L11.2577431,21.0493673 L8.15615838,21.0493673 L8.15615838,19.5368378 Z M8.15615838,15.042765 L11.2577431,15.042765 L11.2577431,16.5552943 L8.15615838,16.5552943 L8.15615838,15.042765 Z M8.15615838,4.49557345 L21.7946335,4.49557345 L21.7946335,11.974191 L8.15615838,11.974191 L8.15615838,4.49557345 Z M6.62660977,28.5699995 L23.3666695,28.5699995 C24.4713437,28.5699995 24.8962182,28.1078377 24.8962182,27.0154554 L24.8962182,2.98454459 C24.8962182,1.89216226 24.4713437,1.42849998 23.3666695,1.42849998 L6.62660977,1.42849998 C5.52193577,1.42849998 5.09706115,1.89216226 5.09706115,2.98454459 L5.09706115,27.0154554 C5.09706115,28.1078377 5.52193577,28.5699995 6.62660977,28.5699995 Z M3.61,2.98454459 C3.61,0.966338215 4.58721162,0 6.62660977,0 L23.3666695,0 C25.4060678,0 26.3832793,0.966338215 26.3832793,2.98454459 L26.3832793,27.0154554 C26.3832793,29.0321612 25.4060678,30 23.3666695,30 L6.62660977,30 C4.58721162,30 3.61,29.0321612 3.61,27.0154554 L3.61,2.98454459 Z" id="Shape" fill="#FFFFFF" fill-rule="nonzero"></path>
    </g>
</svg>