<svg width="40" height="36" viewBox="0 0 40 36" fill="none" xmlns="http://www.w3.org/2000/svg">
<path fill-rule="evenodd" clip-rule="evenodd" d="M21.0093 25.3549C21.0093 30.5391 24.3049 33.8381 29.4248 33.8381C34.4858 33.8381 37.7814 30.5391 37.7814 25.3549C37.7814 20.2886 34.4858 16.9896 29.4248 16.9896C24.3049 16.9896 21.0093 20.2886 21.0093 25.3549ZM23.2456 14.3386C23.1279 12.9247 22.7159 11.6287 22.0097 10.5094L20.0677 11.9232C19.0673 12.748 18.8907 13.0425 19.0673 13.5727C19.2438 14.1029 19.7735 14.3386 20.8916 14.3386H23.2456ZM18.008 22.9396C18.4199 22.7628 18.8907 22.5272 19.2438 22.2915C19.4792 21.4079 19.8323 20.5831 20.2442 19.8173L19.3615 19.1693C18.5376 18.5212 18.008 18.4034 17.4195 18.7569C16.9487 19.1103 16.9487 19.4049 17.3018 20.642L18.008 22.9396ZM14.6535 10.3326C15.242 10.3326 15.5951 9.92025 15.9482 8.85985L16.6544 6.62124C16.0659 6.50342 15.4186 6.44451 14.7712 6.44451C14.065 6.44451 13.3588 6.50342 12.7115 6.68015L13.4177 8.85985C13.8296 10.0381 14.065 10.3326 14.6535 10.3326ZM8.12124 20.5242C9.00398 21.5846 10.0633 22.3504 11.2991 22.8806L12.0053 20.642C12.3584 19.4049 12.3584 19.1103 11.8876 18.7569C11.2991 18.4034 10.7695 18.5212 9.94557 19.1693L8.12124 20.5242ZM13.0646 23.4698C13.5942 23.5287 14.1239 23.5876 14.6535 23.5876C15.1832 23.5876 15.7128 23.5287 16.2425 23.4698L15.7128 21.7024C15.0066 19.2871 15.1243 18.1089 16.3013 17.343C17.6549 16.4594 18.6553 16.6361 20.7739 18.0499L21.2447 18.3445C21.7743 17.7554 22.4217 17.1663 23.069 16.695L23.1867 16.1648H21.4212C18.9496 16.1648 18.008 15.6346 17.3606 14.044C16.831 12.6891 17.3018 11.8643 19.4792 10.1559L20.8916 9.03658C20.1854 8.27074 19.3615 7.68163 18.4199 7.26926L17.8314 8.91876C17.0075 11.3341 16.2425 12.1 14.6535 12.1C13.1235 12.1 12.3584 11.3341 11.5345 8.91876L10.946 7.32817C10.0633 7.74055 9.23938 8.32965 8.53319 9.0955L9.88673 10.1559C12.0642 11.8643 12.535 12.6891 12.0053 14.044C11.358 15.6346 10.4164 16.1648 7.94469 16.1648H6.1792C6.35575 17.1663 6.65 18.1678 7.1208 18.9925L8.53319 18.0499C10.6518 16.6361 11.6522 16.4594 13.0058 17.343C14.1827 18.1089 14.3004 19.2871 13.5942 21.7024L13.0646 23.4698ZM7.41504 10.5094C6.70885 11.6287 6.23805 12.9247 6.12035 14.3386H8.47434C9.59248 14.3386 10.1221 14.1029 10.2987 13.5727C10.4752 13.0425 10.2987 12.748 9.29823 11.9232L7.41504 10.5094ZM14.6535 27.5346C16.1836 27.5346 17.6549 27.24 18.9496 26.7688C18.8907 25.8851 18.8907 25.2371 18.8907 24.5891C17.596 25.1782 16.1836 25.4727 14.6535 25.4727C8.88628 25.4727 4.17832 20.7599 4.17832 14.9866C4.17832 9.15441 8.82743 4.44154 14.6535 4.44154C20.5385 4.44154 25.1876 9.0955 25.1876 14.9866V15.6346C25.7761 15.399 26.4823 15.2222 27.1885 15.1044V14.9866C27.1885 8.0351 21.5978 2.37965 14.6535 2.37965C7.70929 2.37965 2.11858 8.0351 2.11858 14.9866C2.11858 21.9381 7.70929 27.5346 14.6535 27.5346ZM29.4248 35.9C24.4226 35.9 20.715 33.19 19.4204 28.9485C17.8903 29.4198 16.3013 29.7143 14.6535 29.7143C6.59115 29.7143 0 23.1163 0 14.9866C0 6.79797 6.59115 0.199951 14.7124 0.199951C22.7748 0.199951 29.3659 6.79797 29.3659 14.9277C35.7217 14.9277 39.9 19.0514 39.9 25.3549C39.9 31.6584 35.7217 35.9 29.4248 35.9Z" fill="black"/>
<path fill-rule="evenodd" clip-rule="evenodd" d="M27.6593 29.5964C26.5411 28.3592 25.423 26.8865 24.4814 25.4137L25.9527 24.4122C26.7177 25.5315 27.6004 26.6508 28.6597 27.8291C30.2487 25.4726 31.6611 23.3518 32.8969 21.1721L34.5447 22.1736C33.0146 24.7657 31.6611 26.8865 29.719 29.5964H27.6593Z" fill="#EFDF00"/>
</svg>
