<svg width="30" height="30" viewBox="0 0 30 30" fill="none" xmlns="http://www.w3.org/2000/svg">
<mask id="mask0" mask-type="alpha" maskUnits="userSpaceOnUse" x="2" y="4" width="26" height="22">
<path d="M21.5182 11.9898C20.6807 11.9898 20.1345 12.5524 20.1345 13.3777C20.1345 14.2029 20.6807 14.7656 21.5182 14.7656C22.3557 14.7656 22.902 14.2029 22.902 13.3777C22.902 12.5524 22.3557 11.9898 21.5182 11.9898ZM8.51821 11.9898C7.68067 11.9898 7.13445 12.5524 7.13445 13.3777C7.13445 14.2029 7.68067 14.7656 8.51821 14.7656C9.35574 14.7656 9.90196 14.2029 9.90196 13.3777C9.90196 12.5524 9.35574 11.9898 8.51821 11.9898ZM11.1036 13.3777H18.9328C18.9328 11.8772 20.0252 10.7519 21.5182 10.7519C23.0112 10.7519 24.1036 11.8772 24.1036 13.3777C24.1036 14.8781 23.0112 16.0034 21.5182 16.0034C20.4986 16.0034 19.6611 15.4783 19.2241 14.653H10.8123C10.3753 15.4783 9.53782 16.0034 8.51821 16.0034C7.02521 16.0034 5.93277 14.8781 5.93277 13.3777C5.93277 11.8772 7.02521 10.7519 8.51821 10.7519C10.0112 10.7519 11.1036 11.8772 11.1036 13.3777ZM3.31092 11.052C3.31092 9.21398 3.42017 8.95141 5.20448 6.77579C7.02521 4.52515 7.89916 4 9.82913 4H14.4538C16.5294 4 17.6583 4.37511 19.2969 5.53794L22.0644 7.67604L23.8487 8.12617C25.7787 8.5763 26.6891 9.73913 26.6891 11.6522C26.6891 12.5899 26.4342 13.4152 25.9608 14.0904L24.9412 13.3402C25.3053 12.7775 25.4146 12.3649 25.4146 11.6522C25.4146 10.3393 24.7591 9.6266 23.1204 9.21398L21.3361 8.76385L18.6415 6.66326C17.3305 5.65047 16.2017 5.27536 14.4538 5.27536H9.82913C8.33613 5.27536 7.78992 5.65047 6.11485 7.71355C4.73109 9.43905 4.58543 9.66411 4.58543 11.2396V12.0273C4.58543 12.5899 4.69468 12.9275 5.02241 13.2651L4.14846 14.0904C3.56583 13.5652 3.31092 12.9275 3.31092 12.0273V11.052ZM16.3109 17.2788H13.6891V25.3436H12.4146V17.2788H4.58543C3.60224 17.2788 2.83754 17.4663 2 17.954V16.6786C2.69188 16.191 3.45658 16.0034 4.58543 16.0034H25.4146C26.5434 16.0034 27.3081 16.191 28 16.6786V17.954C27.1625 17.4663 26.3978 17.2788 25.4146 17.2788H17.5854V25.3436H16.3109V17.2788Z" fill="white"/>
</mask>
<g mask="url(#mask0)">
<path fill-rule="evenodd" clip-rule="evenodd" d="M0 0H30V30H0V0Z" fill="black"/>
</g>
</svg>
