<svg width="35" height="34" viewBox="0 0 35 34" fill="none" xmlns="http://www.w3.org/2000/svg">
<path d="M0.750244 2.31246V0.812461L32.13 0.814671C33.6484 0.697872 34.5625 1.54169 34.5625 3.06246C34.5625 4.14706 34.5418 11.3125 34.4998 24.5375C34.5549 26.1883 33.722 27.1875 32.1875 27.1875H24.0468C15.6327 27.1875 15.6327 27.1875 2.89705 27.1871C1.07318 27.2408 0.000244141 26.294 0.000244141 24.5625V3.87496H1.50024V24.5625C1.50024 25.4143 1.84381 25.7175 2.875 25.6875H32.1875C32.8199 25.6875 33.029 25.4367 33.0002 24.5601C33.0417 11.3124 33.0625 4.14453 33.0625 3.06246C33.0625 2.41656 32.8933 2.26038 32.1875 2.31246H0.750244ZM6 8.49996C5.58579 8.49996 5.25 8.16417 5.25 7.74996C5.25 7.33575 5.58579 6.99996 6 6.99996H22.4371C22.8513 6.99996 23.1871 7.33575 23.1871 7.74996C23.1871 8.16417 22.8513 8.49996 22.4371 8.49996H6ZM6 13.5C5.58579 13.5 5.25 13.1642 5.25 12.75C5.25 12.3357 5.58579 12 6 12H17.5244C17.9386 12 18.2744 12.3357 18.2744 12.75C18.2744 13.1642 17.9386 13.5 17.5244 13.5H6ZM6 18.5C5.58579 18.5 5.25 18.1642 5.25 17.75C5.25 17.3357 5.58579 17 6 17H17.5244C17.9386 17 18.2744 17.3357 18.2744 17.75C18.2744 18.1642 17.9386 18.5 17.5244 18.5H6Z" fill="black"/>
<path fill-rule="evenodd" clip-rule="evenodd" d="M20.2812 22.7188C20.2812 22.7188 18.9479 24.9479 16.2811 29.4061L19.9062 28.75L21.7812 31.7188L24.7812 26.0312L28.7189 31.875L29.7189 28.3125L33.1561 27.4999L29.1875 22.7188" fill="white"/>
<path d="M20.2812 22.7188C20.2812 22.7188 18.9479 24.9479 16.2811 29.4061L19.9062 28.75L21.7812 31.7188L24.7812 26.0312L28.7189 31.875L29.7189 28.3125L33.1561 27.4999L29.1875 22.7188" stroke="black" stroke-width="1.5"/>
<path d="M25 26C27.7614 26 30 23.7614 30 21C30 18.2386 27.7614 16 25 16C22.2386 16 20 18.2386 20 21C20 23.7614 22.2386 26 25 26Z" fill="white" stroke="black" stroke-width="1.5"/>
<path d="M25 24C26.6569 24 28 22.6569 28 21C28 19.3431 26.6569 18 25 18C23.3431 18 22 19.3431 22 21C22 22.6569 23.3431 24 25 24Z" fill="#EFDF00"/>
</svg>
