<?xml version="1.0" encoding="UTF-8"?>
<svg width="28px" height="14px" viewBox="0 0 28 14" version="1.1" xmlns="http://www.w3.org/2000/svg" xmlns:xlink="http://www.w3.org/1999/xlink">
    <!-- Generator: Sketch 51.3 (57544) - http://www.bohemiancoding.com/sketch -->
    <title>icons/carTypes/utilitaires Copy 5</title>
    <desc>Created with Sketch.</desc>
    <defs>
        <path d="M23.5850121,20.7180966 C24.4043853,20.7180966 24.9387591,20.1837228 24.9387591,19.3993808 C24.9387591,18.5800076 24.4043853,18.0818525 23.5850121,18.0818525 C22.730014,18.0818525 22.2312651,18.5800076 22.2312651,19.3993808 C22.2312651,20.218754 22.7656389,20.7180966 23.5850121,20.7180966 Z M6.37876924,18.0818525 C5.55998982,18.0818525 5.02561601,18.5800076 5.02561601,19.3993808 C5.02561601,20.1837228 5.55998982,20.7180966 6.37876924,20.7180966 C7.19814241,20.7180966 7.73251622,20.218754 7.73251622,19.3993808 C7.73251622,18.5800076 7.23376734,18.0818525 6.37876924,18.0818525 Z M23.5850121,21.8931252 C22.5518894,21.8931252 21.7681411,21.4300013 21.3406421,20.646253 L8.62313923,20.646253 C8.19564019,21.4300013 7.41189194,21.8931252 6.37876924,21.8931252 C4.88252258,21.8931252 3.84999364,20.8600025 3.84999364,19.3993808 C3.84999364,17.9037279 4.88252258,16.9062301 6.37876924,16.9062301 C7.91064082,16.9062301 8.9081386,17.9037279 8.9081386,19.3993808 L8.9081386,19.4355995 L21.0556427,19.4355995 L21.0556427,19.3993808 C21.0556427,17.9037279 22.0531405,16.9062301 23.5850121,16.9062301 C25.0812587,16.9062301 26.1143814,17.9037279 26.1143814,19.3993808 C26.1143814,20.8600025 25.0812587,21.8931252 23.5850121,21.8931252 Z M22.5875143,14.8037661 L19.2037406,11.2418678 C17.5293694,9.46062174 16.9237457,9.2112473 14.2518767,9.2112473 L4.45561729,9.2112473 C3.03002672,9.2112473 2.70999618,9.49624666 2.5674965,10.8499936 C2.3893719,12.4531151 2.24687222,15.6587642 2.24687222,17.9037279 C2.24687222,18.5087578 2.42499682,18.865007 2.85249586,19.0437253 L2.85249586,20.2900038 C1.64124857,20.0406294 1,19.186225 1,17.9037279 C1,15.3031087 1.10687476,12.48874 1.28499936,10.8499936 C1.49874889,8.56999873 2.17562238,8 4.63374189,8 L14.2518767,8 C17.2794012,8 18.3487425,8.42809279 20.0943636,10.3512448 L23.157513,13.6999873 L26.1143814,14.2343611 C27.4681284,14.4837355 28.0737521,14.9112346 28.5012511,15.9799822 C28.8218754,16.8706052 29,17.7612282 29,18.3662581 C29,19.4706306 28.3587514,20.1118792 27.1118792,20.2900038 L27.1118792,19.0437253 C27.6106281,18.9368506 27.7887527,18.7581322 27.7887527,18.4024768 C27.7887527,17.8324781 27.6818779,17.3337292 27.4325035,16.6568557 C27.1118792,15.8018576 26.8268799,15.5524831 25.9718818,15.4099835 L22.5875143,14.8037661 Z" id="path-1"></path>
    </defs>
    <g id="Icons" stroke="none" stroke-width="1" fill="none" fill-rule="evenodd">
        <g id="Vehicules-icons" transform="translate(-1000.000000, -597.000000)">
            <g id="carTypes" transform="translate(136.000000, 236.000000)">
                <g id="carTypes/utilitaires/SVG" transform="translate(863.000000, 353.000000)">
                    <mask id="mask-2" fill="white">
                        <use xlink:href="#path-1"></use>
                    </mask>
                    <use id="Page-1" fill="#000000" fill-rule="evenodd" xlink:href="#path-1"></use>
                </g>
            </g>
        </g>
    </g>
</svg>