<?xml version="1.0" encoding="UTF-8"?>
<svg width="30px" height="30px" viewBox="0 0 30 30" version="1.1" xmlns="http://www.w3.org/2000/svg" xmlns:xlink="http://www.w3.org/1999/xlink">
    <title>SVG / C12-B_action_button/renault-customisation-blanc</title>
    <g id="C12-B_action_button/renault-customisation-blanc" stroke="none" stroke-width="1" fill="none" fill-rule="evenodd">
        <path d="M22.6244344,23.4591386 C21.5837104,23.4591386 20.9049773,24.1543592 20.9049773,25.1740158 C20.9049773,26.1936725 21.5837104,26.8888931 22.6244344,26.8888931 C23.6667744,26.8888931 24.3438913,26.1936725 24.3438913,25.1740158 C24.3438913,24.1543592 23.6667744,23.4591386 22.6244344,23.4591386 Z M18.5520361,5.10531813 C18.0542986,4.919926 17.3319327,4.68818584 16.5174531,4.54914174 C16.6968327,5.01262205 16.7889462,5.38340631 17.4208145,6.68115119 C17.0604396,7.14463152 16.6063348,7.7935039 16.1538462,8.44237633 C16.9683258,8.44237633 17.7828055,8.39602839 18.3710407,8.30333234 C18.6877829,8.76681268 19.1855203,9.41568509 19.7285067,10.0182094 C19.9095023,9.27664101 20.0452488,8.48872442 20.1357467,7.93254804 C21.4948287,7.51541577 21.8099548,7.2836756 22.2624435,7.09828348 C21.6305752,6.58845513 20.9518423,6.21767088 20.4977376,5.93958268 C20.4088559,4.54914174 20.3619911,4.17835749 20.2731093,3.76122521 C19.9547511,3.99296537 19.6380091,4.22470552 18.5520361,5.10531813 Z M29.0950226,16.0434535 L21.0407239,9.78646925 C20.9049773,10.3426457 20.7692308,10.991518 20.4977376,11.7794347 L19.683258,11.9184788 C18.8235295,10.991518 18.3257919,10.2962977 17.8280543,9.55472906 C16.924693,9.69377327 16.1102134,9.74012138 14.8884939,9.78646925 L14.4343892,9.04490081 C14.9773756,7.93254804 15.4751132,7.2836756 15.9744667,6.49575907 C15.6561086,5.70784252 15.3846154,4.96627403 14.9773756,3.80757324 L15.4751132,3.06600472 C16.6531998,3.34409292 17.4676793,3.52948504 18.280543,3.85392127 C18.9592761,3.25139685 19.5927602,2.69522047 20.4977376,2 L20.9518423,2.18539212 L21.3590821,2.37078425 C21.4948287,3.57583308 21.5384616,4.41009764 21.5837104,5.33705827 C22.3529411,5.70784252 23.0316742,6.17132285 24.0271493,6.86654332 L23.8461538,7.74715595 C23.123788,8.07159216 22.5808017,8.30333234 22.081448,8.53507251 L30,14.7457086 L29.0950226,16.0434535 Z M6.47058825,23.4591386 C5.42986426,23.4591386 4.75113123,24.1543592 4.75113123,25.1740158 C4.75113123,26.1936725 5.42986426,26.8888931 6.47058825,26.8888931 C7.51131223,26.8888931 8.19004528,26.1936725 8.19004528,25.1740158 C8.19004528,24.1543592 7.51131223,23.4591386 6.47058825,23.4591386 Z M9.68325798,25.1740158 L19.4117647,25.1740158 C19.4117647,23.3200945 20.7692308,21.9296537 22.6244344,21.9296537 C24.4796381,21.9296537 25.8371042,23.3200945 25.8371042,25.1740158 C25.8371042,27.0279371 24.4796381,28.418378 22.6244344,28.418378 C21.3590821,28.418378 20.3167421,27.7695056 19.7737557,26.7498489 L9.32126695,26.7498489 C8.77828051,27.7695056 7.73755657,28.418378 6.47058825,28.418378 C4.61538462,28.418378 3.25791856,27.0279371 3.25791856,25.1740158 C3.25791856,23.3200945 4.61538462,21.9296537 6.47058825,21.9296537 C8.32579193,21.9296537 9.68325798,23.3200945 9.68325798,25.1740158 Z M0,22.3004379 C0,20.0293843 0.135746604,19.704948 2.35294117,17.0167623 C4.61538462,14.2358804 5.70135747,13.587008 8.09954752,13.587008 L13.8461539,13.587008 C16.4253393,13.587008 17.8280543,14.0504883 19.8642533,15.4872772 L23.3031675,18.129115 L25.520362,18.6852913 C27.918552,19.2414677 29.0513898,20.6782568 29.0513898,23.0420064 C29.0513898,24.2007071 28.7330317,25.2203639 28.1447964,26.0546283 L26.8794442,25.1276678 C27.3303169,24.4324472 27.4660634,23.922619 27.4660634,23.0420064 C27.4660634,21.4198253 26.6515838,20.5392127 24.6153847,20.0293843 L22.3981901,19.4732078 L19.0497738,16.8777182 C17.4208145,15.6263213 16.0180996,15.1628409 13.8461539,15.1628409 L8.09954752,15.1628409 C6.2443439,15.1628409 5.56561086,15.6263213 3.4841629,18.1754631 C1.76470589,20.3074725 1.58371042,20.5855607 1.58371042,22.532178 L1.58371042,23.5054867 C1.58371042,24.2007071 1.71945702,24.6178396 2.12669683,25.0349718 L1.04234002,26.0546283 C0.316742088,25.405756 0,24.6178396 0,23.5054867 L0,22.3004379 Z" id="Shape" fill="#FFFFFF" fill-rule="nonzero"></path>
    </g>
</svg>