<?xml version="1.0" encoding="UTF-8"?>
<svg width="30px" height="30px" viewBox="0 0 30 30" version="1.1" xmlns="http://www.w3.org/2000/svg" xmlns:xlink="http://www.w3.org/1999/xlink">
    <title>SVG / C12-B_action_button/renault-favorite-car-blanc</title>
    <g id="C12-B_action_button/renault-favorite-car-blanc" stroke="none" stroke-width="1" fill="none" fill-rule="evenodd">
        <path d="M23.3631863,24.3944413 C22.2884798,24.3944413 21.5875842,25.0976811 21.5875842,26.1290993 C21.5875842,27.1605176 22.2884798,27.8637574 23.3631863,27.8637574 C24.4395618,27.8637574 25.1387886,27.1605176 25.1387886,26.1290993 C25.1387886,25.0976811 24.4395618,24.3944413 23.3631863,24.3944413 Z M28.3629082,4.7974945 C28.3629082,3.531663 27.5218335,2.59401003 26.3069478,2.59401003 C25.2789676,2.59401003 24.4846193,2.96907122 23.3631863,4.04737213 C22.2417534,2.96907122 21.447405,2.59401003 20.4194248,2.59401003 C19.2045392,2.59401003 18.3634644,3.531663 18.3634644,4.7974945 C18.3634644,6.62591778 20.3726985,9.25134606 23.3631863,11.3141826 C26.3536741,9.25134606 28.3629082,6.62591778 28.3629082,4.7974945 Z M26.4004005,1 C28.4580297,1 30,2.59401003 30,4.75061185 C30,7.00097897 27.7087389,10.0952338 24.0190243,12.7206621 L22.7090172,12.7206621 C19.0176337,10.0952338 16.7280413,7.00097897 16.7280413,4.75061185 C16.7280413,2.59401003 18.2700118,1 20.3259722,1 C21.447405,1 22.2884798,1.32817854 23.3631863,2.21894885 C24.4395618,1.32817854 25.2789676,1 26.4004005,1 Z M6.68187129,24.3944413 C5.60716472,24.3944413 4.90626913,25.0976811 4.90626913,26.1290993 C4.90626913,27.1605176 5.60716472,27.8637574 6.68187129,27.8637574 C7.75657787,27.8637574 8.45747345,27.1605176 8.45747345,26.1290993 C8.45747345,25.0976811 7.75657787,24.3944413 6.68187129,24.3944413 Z M9.9994437,26.1290993 L20.0456139,26.1290993 C20.0456139,24.2537934 21.447405,22.847314 23.3631863,22.847314 C25.2789676,22.847314 26.6807589,24.2537934 26.6807589,26.1290993 C26.6807589,28.0044053 25.2789676,29.4108847 23.3631863,29.4108847 C22.0565167,29.4108847 20.9801413,28.7545276 20.4194248,27.7231095 L9.62563274,27.7231095 C9.0649163,28.7545276 7.99020972,29.4108847 6.68187129,29.4108847 C4.76609002,29.4108847 3.36429883,28.0044053 3.36429883,26.1290993 C3.36429883,24.2537934 4.76609002,22.847314 6.68187129,22.847314 C8.5976526,22.847314 9.9994437,24.2537934 9.9994437,26.1290993 Z M0,23.2223752 C0,20.9251255 0.140179128,20.5969469 2.42977139,17.8777533 C4.76609002,15.0647945 5.88752296,14.4084374 8.36402071,14.4084374 L14.29827,14.4084374 C16.9616733,14.4084374 18.4101908,14.8772638 20.5128776,16.3306259 L24.0640819,19.0029369 L26.3536741,19.5655286 C28.8301719,20.1281204 30,21.5814825 30,23.9724976 C30,25.1445638 29.6712467,26.1759821 29.0638039,27.0198697 L27.7571341,26.0822167 C28.222729,25.378977 28.3629082,24.8632679 28.3629082,23.9724976 C28.3629082,22.3316048 27.5218335,21.4408346 25.4191467,20.9251255 L23.1295545,20.3625337 L19.6718028,17.7371055 C17.9896535,16.4712739 16.5411359,16.0024474 14.29827,16.0024474 L8.36402071,16.0024474 C6.44823942,16.0024474 5.74734384,16.4712739 3.59793069,19.0498195 C1.82232855,21.2064213 1.63542305,21.4877173 1.63542305,23.4567884 L1.63542305,24.441324 C1.63542305,25.1445638 1.77560217,25.5665076 2.19613952,25.9884515 L1.07637537,27.0198697 C0.32708462,26.3635127 0,25.5665076 0,24.441324 L0,23.2223752 Z" id="Shape" fill="#FFFFFF" fill-rule="nonzero"></path>
    </g>
</svg>