<svg width="28" height="19" viewBox="0 0 28 19" fill="none" xmlns="http://www.w3.org/2000/svg">
<rect width="28" height="19" rx="9.5" fill="#efdf00"/>
<path opacity="0.8" fill-rule="evenodd" clip-rule="evenodd" d="M22 9.6667C22 9.45338 21.9183 9.24005 21.7558 9.07756L18.4226 5.74436C18.0968 5.41855 17.5702 5.41855 17.2444 5.74436C16.9185 6.07018 16.9185 6.59683 17.2444 6.92265L19.9984 9.6767L17.3485 12.4208C17.0294 12.7532 17.0385 13.2791 17.3694 13.599C17.7002 13.919 18.2285 13.9099 18.5476 13.579L21.7658 10.2458C21.9225 10.0834 22 9.87503 22 9.6667Z" fill="#231F20"/>
<path opacity="0.8" fill-rule="evenodd" clip-rule="evenodd" d="M7 9.6667C7 9.45338 7.08166 9.24005 7.24416 9.07756L10.5774 5.74436C10.9032 5.41855 11.4298 5.41855 11.7556 5.74436C12.0815 6.07018 12.0815 6.59683 11.7556 6.92265L9.00158 9.6767L11.6515 12.4208C11.9706 12.7532 11.9615 13.2791 11.6306 13.599C11.2998 13.919 10.7715 13.9099 10.4524 13.579L7.23416 10.2458C7.0775 10.0834 7 9.87503 7 9.6667Z" fill="#231F20"/>
</svg>
