<?xml version="1.0" encoding="UTF-8"?>
<svg width="30px" height="30px" viewBox="0 0 30 30" version="1.1" xmlns="http://www.w3.org/2000/svg" xmlns:xlink="http://www.w3.org/1999/xlink">
    <title>SVG / C12-B_action_button/renault-car-sheet-blanc</title>
    <g id="C12-B_action_button/renault-car-sheet-blanc" stroke="none" stroke-width="1" fill="none" fill-rule="evenodd">
        <path d="M20.092807,27.8971963 C21.5819254,26.682243 23.2151519,25.093458 24.8483786,23.271028 L20.092807,23.271028 L20.092807,27.8971963 Z M18.5076165,15.8878504 C18.5076165,16.3084112 18.8438689,16.635514 19.2761937,16.635514 C19.7565545,16.635514 20.0447709,16.3551402 20.0447709,15.8878504 C20.0447709,15.4205608 19.7565545,15.1401869 19.2761937,15.1401869 C18.8438689,15.1401869 18.5076165,15.4205608 18.5076165,15.8878504 Z M10.1973754,15.8878504 C10.1973754,16.3084112 10.5336279,16.635514 10.9659526,16.635514 C11.4463133,16.635514 11.7345298,16.3551402 11.7345298,15.8878504 C11.7345298,15.4205608 11.4463133,15.1401869 10.9659526,15.1401869 C10.5336279,15.1401869 10.1973754,15.4205608 10.1973754,15.8878504 Z M19.2761937,17.9439252 C18.3154722,17.9439252 17.546895,17.3831776 17.2586785,16.5420561 L12.9834677,16.5420561 C12.6952513,17.3831776 11.9266741,17.9439252 10.9659526,17.9439252 C9.76505072,17.9439252 8.85236521,17.0560747 8.85236521,15.8878504 C8.85236521,14.7196261 9.76505072,13.8317757 10.9659526,13.8317757 C11.9747102,13.8317757 12.6952513,14.3457943 12.9834677,15.1869159 L17.3067146,15.1869159 C17.546895,14.3925233 18.3154722,13.8317757 19.2761937,13.8317757 C20.5251317,13.8317757 21.389781,14.6728973 21.389781,15.8878504 C21.389781,17.0560747 20.4770956,17.9439252 19.2761937,17.9439252 Z M14.1363335,9.90654205 L10.7257722,9.90654205 C9.66897841,9.90654205 9.38076209,10.046729 8.66022091,10.9345794 C8.08378799,11.542056 7.98771584,11.7757009 7.98771584,12.5233645 L7.98771584,13.5981308 C7.98771584,14.1121495 8.08378799,14.4392523 8.37200446,14.8598132 L7.12306647,15.4672898 C6.69074179,14.8598132 6.54663356,14.3925233 6.54663356,13.5981308 L6.54663356,12.5233645 C6.54663356,11.4018692 6.73877786,10.9345794 7.65146331,9.95327106 C8.70825698,8.78504673 9.18861772,8.55140188 10.7257722,8.55140188 L14.1363335,8.55140188 C15.8656324,8.55140188 16.7302817,8.8317757 18.2194002,9.76635514 L19.1320855,10.3738318 L20.8133481,10.7009346 C22.5906829,11.0747664 23.4553324,12.1028037 23.4553324,13.8785047 C23.4553324,14.5327102 23.3592602,15.093458 23.1190798,15.4672898 L21.8221058,14.8598132 C21.918178,14.6261683 22.01425,14.2523364 22.01425,13.8785047 C22.01425,12.7570094 21.4858533,12.1962618 20.3329874,11.9626168 L18.6036887,11.635514 L16.6822455,10.4672898 C15.8175962,9.99999994 15.4813437,9.90654205 14.1363335,9.90654205 Z M18.4595804,28.4112149 L18.4595804,21.7289721 L25.2807032,21.7289721 L25.2807032,1.58878505 L4.72126267,1.58878505 L4.72126267,28.4112149 L18.4595804,28.4112149 Z M3.04,30 L3.04,0 L26.9619659,0 L26.9619659,23.317757 C25.3287393,25.3738317 22.9749715,27.6635514 20.1408432,30 L3.04,30 Z" id="Shape" fill="#FFFFFF" fill-rule="nonzero"></path>
    </g>
</svg>