<svg width="61" height="61" viewBox="0 0 61 61" fill="none" xmlns="http://www.w3.org/2000/svg">
<circle cx="30.5" cy="30.5" r="29.5" stroke="#efdf00" stroke-width="1.5" stroke-linecap="round" stroke-linejoin="round" stroke-dasharray="0.1 4"/>
<path d="M31.0975 15.4062C31.2722 15.4062 31.4403 15.3402 31.5747 15.2148C31.8368 14.9573 31.8368 14.5414 31.5747 14.2839C31.3126 14.0264 30.8891 14.0264 30.6269 14.2839C30.3648 14.5414 30.3648 14.9573 30.6269 15.2148C30.7547 15.3402 30.9294 15.4062 31.0975 15.4062Z" fill="#efdf00"/>
<path d="M25.2631 21.5196C26.5805 21.5196 27.656 20.4633 27.656 19.1693C27.656 17.8753 26.5805 16.819 25.2631 16.819C23.9456 16.819 22.8701 17.8753 22.8701 19.1693C22.8701 20.4633 23.9456 21.5196 25.2631 21.5196ZM25.2631 18.1394C25.8411 18.1394 26.3116 18.6016 26.3116 19.1693C26.3116 19.7371 25.8411 20.1992 25.2631 20.1992C24.685 20.1992 24.2145 19.7371 24.2145 19.1693C24.2145 18.6016 24.685 18.1394 25.2631 18.1394Z" fill="#efdf00"/>
<path d="M33.2954 21.8893H28.7046C25.8008 21.8893 23.4415 24.2066 23.4415 27.0586V40.5794C23.4415 43.4315 25.8008 45.7487 28.7046 45.7487H33.2954C36.1992 45.7487 38.5585 43.4315 38.5585 40.5794V27.0586C38.5585 24.2066 36.1925 21.8893 33.2954 21.8893ZM24.7925 34.4792H26.4394C26.4394 34.4858 26.4461 34.4924 26.4461 34.4924C26.4595 34.5254 26.473 34.5584 26.4931 34.5915C26.4998 34.6047 26.5066 34.6113 26.5066 34.6245C26.52 34.6509 26.5335 34.6707 26.5469 34.6971C26.5536 34.7103 26.5603 34.7235 26.5671 34.7301C26.5872 34.7631 26.6074 34.7895 26.6208 34.8159C26.6276 34.8291 26.6343 34.8357 26.6477 34.8489C26.6612 34.8687 26.6813 34.8885 26.6948 34.9149C26.7015 34.9282 26.7082 34.9348 26.7217 34.948C26.7418 34.9744 26.7687 35.0008 26.7956 35.0272C26.8023 35.0338 26.809 35.047 26.8225 35.0536C26.8427 35.08 26.8695 35.0998 26.8897 35.1196C26.8964 35.1262 26.8964 35.1262 26.9031 35.1328C26.93 35.1592 26.9636 35.1856 26.9973 35.212C27.004 35.2186 27.004 35.2186 27.0107 35.2252C27.0779 35.2781 27.1518 35.3243 27.2258 35.3639C27.3804 35.4497 27.5417 35.5157 27.7232 35.5553H27.7299C27.8106 35.5751 27.898 35.5884 27.9853 35.595C27.9921 35.595 28.0055 35.595 28.0122 35.595C28.0526 35.595 28.0929 35.6016 28.1399 35.6016H34.4516C34.4919 35.6016 34.5322 35.6016 34.5793 35.595C34.586 35.595 34.5995 35.595 34.6062 35.595C34.6936 35.5884 34.7742 35.5751 34.8616 35.5553H34.8683C35.0431 35.5157 35.2111 35.4497 35.359 35.3639C35.4329 35.3243 35.5069 35.2715 35.5674 35.2252C35.5741 35.2186 35.5808 35.2186 35.5808 35.212C35.6144 35.1856 35.6413 35.1592 35.6749 35.1328C35.6816 35.1262 35.6816 35.1262 35.6884 35.1196C35.7152 35.0998 35.7354 35.0734 35.7556 35.0536C35.7623 35.047 35.7757 35.0338 35.7825 35.0272C35.8093 35.0008 35.8295 34.9744 35.8564 34.948C35.8631 34.9348 35.8698 34.9282 35.8833 34.9149C35.8967 34.8951 35.9169 34.8753 35.9303 34.8555C35.9371 34.8423 35.9505 34.8357 35.9572 34.8225C35.9774 34.7961 35.9976 34.7631 36.011 34.7367C36.0177 34.7235 36.0244 34.7103 36.0312 34.7037C36.0446 34.6773 36.0581 34.6575 36.0715 34.6311C36.0782 34.6179 36.0849 34.6113 36.0849 34.5981C36.0984 34.565 36.1185 34.532 36.132 34.499C36.132 34.4924 36.1387 34.4858 36.1387 34.4858H37.2142V40.586C37.2142 42.7052 35.4598 44.4283 33.3022 44.4283H28.7113C26.5536 44.4283 24.7993 42.7052 24.7993 40.586V34.4792H24.7925ZM37.2075 33.1522H36.132C36.132 33.1456 36.1253 33.139 36.1253 33.139C36.1118 33.106 36.0984 33.073 36.0782 33.04C36.0715 33.0268 36.0648 33.0202 36.0648 33.007C36.0513 32.9806 36.0379 32.9608 36.0244 32.9344C36.0177 32.9212 36.011 32.908 36.0043 32.9014C35.9841 32.875 35.9639 32.8419 35.9505 32.8155C35.9438 32.8023 35.9371 32.7957 35.9236 32.7825C35.9102 32.7627 35.89 32.7429 35.8766 32.7231C35.8698 32.7099 35.8631 32.7033 35.8497 32.6901C35.8295 32.6637 35.8026 32.6373 35.7757 32.6109C35.769 32.6043 35.7623 32.5911 35.7489 32.5845C35.7287 32.5647 35.7018 32.5383 35.6816 32.5184C35.6749 32.5118 35.6749 32.5118 35.6682 32.5052C35.6413 32.4788 35.6077 32.4524 35.5741 32.426C35.5674 32.4194 35.5606 32.4194 35.5606 32.4128C35.4934 32.36 35.4262 32.3138 35.3523 32.2742C35.1977 32.1883 35.0364 32.1223 34.8616 32.0827H34.8549C34.7742 32.0629 34.6868 32.0497 34.5994 32.0431C34.5927 32.0431 34.5793 32.0431 34.5726 32.0431C34.5322 32.0431 34.4919 32.0365 34.4449 32.0365H28.1332C28.0929 32.0365 28.0526 32.0365 28.0055 32.0431C27.9988 32.0431 27.9853 32.0431 27.9786 32.0431C27.8912 32.0497 27.8106 32.0629 27.7232 32.0827H27.7165C27.5417 32.1223 27.3737 32.1883 27.2191 32.2742C27.1451 32.3138 27.0712 32.3666 27.004 32.4128C26.9973 32.4194 26.9973 32.4194 26.9905 32.426C26.9569 32.4524 26.93 32.4788 26.8964 32.5052C26.8897 32.5118 26.8897 32.5118 26.883 32.5184C26.8561 32.5383 26.8359 32.5647 26.8158 32.5845C26.809 32.5911 26.8023 32.6043 26.7889 32.6109C26.762 32.6373 26.7418 32.6637 26.7149 32.6901C26.7082 32.7033 26.7015 32.7099 26.6881 32.7231C26.6746 32.7429 26.6544 32.7627 26.641 32.7891C26.6343 32.8023 26.6276 32.8089 26.6141 32.8221C26.594 32.8485 26.5738 32.8816 26.5603 32.908C26.5536 32.9212 26.5469 32.9344 26.5402 32.941C26.5267 32.9674 26.5133 32.9872 26.4998 33.0136C26.4931 33.0268 26.4864 33.0334 26.4864 33.0466C26.473 33.0796 26.4528 33.1126 26.4394 33.1456C26.4394 33.1522 26.4326 33.1588 26.4326 33.1588H24.7925V27.0586C24.7925 24.9394 26.5469 23.2163 28.7046 23.2163H33.2954C35.4531 23.2163 37.2075 24.9394 37.2075 27.0586V33.1522ZM34.9154 33.819C34.9154 34.0765 34.7003 34.2812 34.4449 34.2812H28.1332C27.8711 34.2812 27.6627 34.0699 27.6627 33.819C27.6627 33.5682 27.8778 33.3569 28.1332 33.3569H34.4449C34.7003 33.3503 34.9154 33.5616 34.9154 33.819Z" fill="#efdf00"/>
<path d="M35.5875 14H33.4568C33.0871 14 32.7846 14.2971 32.7846 14.6602C32.7846 15.0233 33.0871 15.3204 33.4568 15.3204H35.5875C38.3837 15.3204 40.6489 17.5452 40.6489 20.2917V41.7017C40.6489 44.4482 38.3837 46.673 35.5875 46.673H26.4125C23.6163 46.673 21.3511 44.4482 21.3511 41.7017V20.2983C21.3511 17.5518 23.6163 15.327 26.4125 15.327H28.5432C28.9129 15.327 29.2154 15.0299 29.2154 14.6668C29.2154 14.3037 28.9129 14.0066 28.5432 14.0066H26.4125C22.8701 14 20 16.819 20 20.2983V41.7083C20 45.181 22.8701 48 26.4125 48H35.5875C39.1299 48 42 45.181 42 41.7017V20.2983C42 16.819 39.1299 14 35.5875 14Z" fill="#efdf00"/>
</svg>
