<svg width="61" height="61" viewBox="0 0 61 61" fill="none" xmlns="http://www.w3.org/2000/svg">
<circle cx="30.5" cy="30.5" r="29.5" stroke="#efdf00" stroke-width="1.5" stroke-linecap="round" stroke-linejoin="round" stroke-dasharray="0.1 4"/>
<path d="M21.6873 41.9327C21.5167 41.9327 21.3526 41.9971 21.2214 42.1196C20.9655 42.371 20.9655 42.7771 21.2214 43.0285C21.4773 43.2798 21.8908 43.2798 22.1467 43.0285C22.4026 42.7771 22.4026 42.371 22.1467 42.1196C22.022 41.9907 21.8514 41.9327 21.6873 41.9327Z" fill="#efdf00"/>
<path d="M24.2467 31.6192C24.8045 32.9858 25.2835 34.1654 24.5617 35.9186C24.437 36.2152 24.5879 36.5568 24.8898 36.6728C24.962 36.6986 25.0341 36.7179 25.1129 36.7179C25.3491 36.7179 25.5657 36.5826 25.6641 36.357C26.5632 34.1654 25.9201 32.5861 25.3557 31.1874C25.0079 30.3365 24.6798 29.5179 24.6863 28.5897L25.7232 28.9635L25.1129 25.5472L22.4026 27.7711L23.5182 28.1707C23.387 29.5114 23.8201 30.5815 24.2467 31.6192Z" fill="#efdf00"/>
<path d="M31.2684 31.6192C31.8262 32.9858 32.3053 34.1654 31.5834 35.9186C31.4588 36.2152 31.6097 36.5568 31.9116 36.6728C31.9837 36.6986 32.0559 36.7179 32.1347 36.7179C32.3709 36.7179 32.5875 36.5826 32.6859 36.357C33.585 34.1654 32.9419 32.5861 32.3775 31.1874C32.0297 30.3365 31.7016 29.5179 31.7081 28.5897L32.745 28.9635L32.1347 25.5472L29.4244 27.7711L30.54 28.1707C30.4153 29.5114 30.8484 30.5815 31.2684 31.6192Z" fill="#efdf00"/>
<path d="M37.8374 31.6192C38.3952 32.9858 38.8743 34.1654 38.1524 35.9186C38.0277 36.2152 38.1787 36.5568 38.4805 36.6728C38.5527 36.6986 38.6249 36.7179 38.7037 36.7179C38.9399 36.7179 39.1565 36.5826 39.2549 36.357C40.154 34.1654 39.5108 32.5861 38.9465 31.1874C38.5987 30.3365 38.2705 29.5179 38.2771 28.5897L39.314 28.9635L38.7037 25.5472L35.9934 27.7711L37.109 28.1707C36.9777 29.5114 37.4174 30.5815 37.8374 31.6192Z" fill="#efdf00"/>
<path d="M52.5438 19.7846C52.1566 19.2367 51.5726 18.8693 50.8966 18.7597C47.0248 18.1022 39.2287 17 30.5269 17C20.6242 17 12.5656 18.4374 11.0496 18.721C9.69122 18.9789 8.79217 20.2745 9.04154 21.6088L13.2218 43.9631C13.4449 45.1427 14.4883 46 15.709 46H44.4917C46.7623 46 48.7048 44.4079 49.1117 42.2163L52.9572 21.6475C53.0819 21.0029 52.931 20.3325 52.5438 19.7846ZM51.7301 21.4348L47.8845 42.0036C47.5826 43.615 46.1586 44.7817 44.4917 44.7817H15.709C15.0921 44.7817 14.5605 44.3499 14.449 43.7504L10.2687 21.3896C10.144 20.7128 10.5968 20.0553 11.2859 19.9264C12.7821 19.6428 20.7358 18.2247 30.5269 18.2247C39.1368 18.2247 46.8542 19.3141 50.6866 19.9651C51.0279 20.0231 51.3232 20.21 51.5201 20.4872C51.7169 20.7644 51.7957 21.106 51.7301 21.4348Z" fill="#efdf00"/>
<path d="M48.5079 24.1356C48.1667 24.0776 47.8451 24.3032 47.786 24.6319L44.8723 41.1076C44.7608 41.707 44.2292 42.1389 43.6058 42.1389H24.1942C23.8529 42.1389 23.5707 42.4161 23.5707 42.7513C23.5707 43.0865 23.8529 43.3636 24.1942 43.3636H43.6058C44.8264 43.3636 45.8764 42.5063 46.0995 41.3203L49.0198 24.8446C49.0788 24.5094 48.8492 24.1936 48.5079 24.1356Z" fill="#efdf00"/>
</svg>
