<svg width="61" height="61" viewBox="0 0 61 61" fill="none" xmlns="http://www.w3.org/2000/svg">
<circle cx="30.5" cy="30.5" r="29.5" stroke="#efdf00" stroke-width="1.5" stroke-linecap="round" stroke-linejoin="round" stroke-dasharray="0.1 4"/>
<path d="M48 30.9325C48 26.3705 46.2336 22.0819 43.0195 18.8605C40.5758 16.3994 37.4945 14.772 34.1078 14.1451C33.7492 14.0784 33.4039 14.3185 33.3309 14.6787C33.2645 15.0388 33.5035 15.3856 33.8621 15.459C36.9832 16.0393 39.8254 17.5399 42.0766 19.8009C48.1859 25.937 48.1859 35.9213 42.0766 42.0641C35.9672 48.2068 26.0262 48.2001 19.9102 42.0641C13.7941 35.928 13.8074 25.937 19.9168 19.8009C22.168 17.5399 25.0102 16.0393 28.1313 15.459C28.4898 15.3923 28.7289 15.0455 28.6625 14.6787C28.5961 14.3185 28.2508 14.0784 27.8855 14.1451C24.5055 14.772 21.4242 16.3994 18.9805 18.8538C15.7664 22.0819 14 26.3638 14 30.9258C14 35.4878 15.7664 39.7764 18.9805 42.9978C22.1945 46.2192 26.4578 48 31 48C35.5422 48 39.8121 46.2259 43.0195 42.9978C46.227 39.7697 48 35.4878 48 30.9325Z" fill="#efdf00"/>
<path d="M31 44.6719C38.5438 44.6719 44.6797 38.5092 44.6797 30.9325C44.6797 29.3585 44.4141 27.8445 43.9293 26.4372C43.9293 26.4305 43.9293 26.4305 43.9227 26.4238C42.0633 21.0548 36.9699 17.1931 31 17.1931C23.4563 17.1931 17.3203 23.3558 17.3203 30.9325C17.3203 38.5092 23.4563 44.6719 31 44.6719ZM43.3516 30.9325C43.3516 31.2526 43.3383 31.5661 43.3184 31.8796C42.6211 31.9129 41.9438 32.0196 41.2863 32.1864C41.4988 30.3589 41.2332 28.4847 40.5094 26.804C41.273 26.9374 42.0367 27.0841 42.7938 27.2442C43.159 28.4047 43.3516 29.6453 43.3516 30.9325ZM38.909 26.5439C39.9184 28.3847 40.2637 30.5723 39.8719 32.6399C36.8438 33.8671 34.493 36.4482 33.5633 39.6297C31.9031 40.1232 30.1102 40.1232 28.4434 39.6297C27.5137 36.4482 25.1629 33.8738 22.1348 32.6399C21.743 30.5723 22.0883 28.3847 23.0977 26.5439C25.7141 26.1704 28.3637 25.9836 31.0066 25.9836C33.643 25.9836 36.2926 26.1771 38.909 26.5439ZM20.7203 32.1797C20.0629 32.013 19.3855 31.9129 18.6883 31.8729C18.6617 31.5594 18.6551 31.246 18.6551 30.9258C18.6551 29.6386 18.8477 28.4047 19.2129 27.2375C19.9699 27.0775 20.7336 26.9241 21.4973 26.7973C20.7734 28.4847 20.5012 30.3589 20.7203 32.1797ZM18.8609 33.2268C23.7152 33.607 27.5469 37.6955 27.5469 42.671C27.5469 42.731 27.5469 42.7844 27.5469 42.8444C23.1242 41.5438 19.7242 37.8289 18.8609 33.2268ZM28.8684 43.1512C28.875 42.9911 28.8816 42.8311 28.8816 42.671C28.8816 42.1374 28.8418 41.6105 28.7687 41.0903C29.5059 41.2504 30.2563 41.3371 31.0066 41.3371C31.757 41.3371 32.5141 41.257 33.2445 41.0903C33.1715 41.6039 33.1316 42.1308 33.1316 42.671C33.1316 42.8311 33.1383 42.9911 33.1449 43.1512C32.4477 43.2713 31.7371 43.3379 31.0066 43.3379C30.2762 43.3379 29.559 43.2713 28.8684 43.1512ZM34.4598 42.8377C34.4598 42.7777 34.4598 42.7243 34.4598 42.6643C34.4598 37.6955 38.2914 33.607 43.1457 33.2202C42.2758 37.8289 38.8758 41.5438 34.4598 42.8377ZM31 18.527C35.9738 18.527 40.2703 21.495 42.2293 25.7635C38.5371 25.0299 34.7652 24.6564 31 24.6564C27.2348 24.6564 23.4695 25.0232 19.7773 25.7635C21.7297 21.495 26.0262 18.527 31 18.527Z" fill="#efdf00"/>
<path d="M27.6797 30.9325C27.6797 32.7733 29.1672 34.2673 31 34.2673C32.8328 34.2673 34.3203 32.7733 34.3203 30.9325C34.3203 29.0917 32.8328 27.5977 31 27.5977C29.1672 27.5977 27.6797 29.0917 27.6797 30.9325ZM31 28.9316C32.0957 28.9316 32.9922 29.832 32.9922 30.9325C32.9922 32.033 32.0957 32.9334 31 32.9334C29.9043 32.9334 29.0078 32.033 29.0078 30.9325C29.0078 29.832 29.9043 28.9316 31 28.9316Z" fill="#efdf00"/>
<path d="M31 15.3323C31.1727 15.3323 31.3387 15.2656 31.4715 15.1389C31.7305 14.8788 31.7305 14.4586 31.4715 14.1985C31.2125 13.9383 30.7941 13.9317 30.5352 14.1918C30.2762 14.4519 30.2762 14.8721 30.5352 15.1322C30.6613 15.2656 30.834 15.3323 31 15.3323Z" fill="#efdf00"/>
</svg>
