<svg width="61" height="61" viewBox="0 0 61 61" fill="none" xmlns="http://www.w3.org/2000/svg">
<circle cx="30.5" cy="30.5" r="29.5" stroke="#efdf00" stroke-width="1.5" stroke-linecap="round" stroke-linejoin="round" stroke-dasharray="0.1 4"/>
<path d="M21.3201 36.8395C21.4845 36.8395 21.6426 36.7739 21.769 36.6492C22.0157 36.3932 22.0157 35.9797 21.769 35.7237C21.5224 35.4677 21.124 35.4677 20.8774 35.7237C20.6308 35.9797 20.6308 36.3932 20.8774 36.6492C20.9976 36.7739 21.1556 36.8395 21.3201 36.8395Z" fill="#efdf00"/>
<path d="M46.1028 37.3187C45.0088 36.321 43.6366 35.8812 42.239 36.0716L28.0801 38.0013L27.5363 32.501C27.2707 29.3307 26.5625 26.2262 25.4242 23.2725L24.9183 21.9532C24.5325 20.949 23.8179 20.1351 22.8947 19.6428C23.2615 18.6846 23.2931 17.6278 22.9832 16.6498C22.9769 16.6367 22.9769 16.6236 22.9706 16.6105C22.1358 14.4642 20.1628 13.0464 17.9369 13.0005C17.3487 12.9873 16.7986 13.2499 16.4318 13.7225C16.0966 14.1425 15.9512 14.6808 16.0144 15.2124L16.0018 15.219L16.0461 15.4028L19.9921 34.0959C20.0743 34.4701 20.4284 34.7063 20.7889 34.621C21.1493 34.5357 21.377 34.1681 21.2948 33.794L18.8538 21.4872C18.8032 21.2444 18.8601 20.995 19.0119 20.8046C19.1637 20.6143 19.385 20.5092 19.6253 20.5092L20.9912 20.5355C21.2505 20.5421 21.5098 20.5814 21.7564 20.6536C21.769 20.6602 21.788 20.6668 21.8007 20.6668C22.6607 20.9424 23.3437 21.5922 23.6788 22.4586L24.1847 23.7779C25.2724 26.6068 25.9554 29.5802 26.2083 32.6126L26.7585 38.1719L26.1451 38.2573C25.4621 37.3777 24.3491 36.9708 23.2867 37.2136C21.7438 37.5681 20.7699 39.163 21.1114 40.7711L22.2749 45.8186C22.433 46.5143 23.0275 47 23.7168 47H42.024C43.4089 47 44.5598 45.8842 44.6737 44.4664H45.6033C46.9249 44.4664 48 43.2719 48 41.8082C48.0063 40.0623 47.317 38.4214 46.1028 37.3187ZM43.3394 44.4664C43.2318 45.1162 42.6817 45.6151 42.0303 45.6151H28.0801L27.8209 44.4664H43.3394ZM27.5173 43.0881L26.7332 39.5766L42.4161 37.4434C43.4279 37.3055 44.427 37.6337 45.2302 38.3623C46.1534 39.2024 46.6846 40.4626 46.6846 41.8147C46.6846 42.5171 46.204 43.0881 45.6222 43.0881H27.5173ZM26.7142 45.6151H23.7168C23.6472 45.6151 23.584 45.5626 23.565 45.4904L22.4014 40.4692C22.218 39.6094 22.7429 38.7627 23.565 38.5658C23.6788 38.5395 23.7863 38.5264 23.9002 38.5264C24.6021 38.5264 25.2408 39.0318 25.4052 39.78L26.7142 45.6151ZM17.4626 14.5954C17.5701 14.4576 17.7282 14.3788 17.9052 14.3788H17.9116C19.5937 14.4116 21.0861 15.4815 21.7185 17.1027C21.9335 17.7985 21.9018 18.5467 21.6236 19.2162C21.4212 19.1834 21.2189 19.1637 21.0228 19.1571L19.6569 19.1309C19.1953 19.1178 18.7589 19.2622 18.3922 19.5313L17.3487 15.0943C17.3108 14.917 17.3551 14.7398 17.4626 14.5954Z" fill="#efdf00"/>
<path d="M32.1969 35.4415C32.1273 35.4415 32.0515 35.4283 31.9819 35.3955C31.691 35.2708 31.5519 34.9295 31.6657 34.6276C32.3613 32.8357 31.8997 31.6346 31.3622 30.2497C30.9132 29.0879 30.4516 27.8802 30.7108 26.318C30.7614 25.9964 31.0586 25.7798 31.3685 25.8323C31.6784 25.8848 31.887 26.1933 31.8365 26.515C31.6341 27.7489 32.0198 28.7466 32.4246 29.8099C32.9684 31.2276 33.5881 32.8423 32.7218 35.0739C32.6332 35.3036 32.4182 35.4415 32.1969 35.4415Z" fill="#efdf00"/>
<path d="M32.7787 27.5454L32.1969 24.0602L29.5789 26.3312L32.7787 27.5454Z" fill="#efdf00"/>
<path d="M36.1176 35.4415C36.0481 35.4415 35.9722 35.4283 35.9026 35.3955C35.6117 35.2708 35.4726 34.9295 35.5864 34.6276C36.2821 32.8357 35.8204 31.6346 35.2829 30.2497C34.8339 29.0879 34.3723 27.8802 34.6316 26.318C34.6821 25.9964 34.9794 25.7798 35.2892 25.8323C35.5991 25.8848 35.8078 26.1933 35.7572 26.515C35.5548 27.7489 35.9406 28.7466 36.3453 29.8099C36.8891 31.2276 37.5089 32.8423 36.6425 35.0739C36.554 35.3036 36.339 35.4415 36.1176 35.4415Z" fill="#efdf00"/>
<path d="M36.6994 27.5454L36.1176 24.0602L33.4996 26.3312L36.6994 27.5454Z" fill="#efdf00"/>
<path d="M40.1648 35.4415C40.0953 35.4415 40.0194 35.4283 39.9498 35.3955C39.6589 35.2708 39.5198 34.9295 39.6336 34.6276C40.3293 32.8357 39.8676 31.6346 39.3301 30.2497C38.8811 29.0879 38.4195 27.8802 38.6788 26.318C38.7293 25.9964 39.0266 25.7798 39.3364 25.8323C39.6463 25.8848 39.855 26.1933 39.8044 26.515C39.602 27.7489 39.9878 28.7466 40.3925 29.8099C40.9363 31.2276 41.5561 32.8423 40.6897 35.0739C40.6012 35.3036 40.3862 35.4415 40.1648 35.4415Z" fill="#efdf00"/>
<path d="M40.7466 27.5454L40.1648 24.0602L37.5468 26.3312L40.7466 27.5454Z" fill="#efdf00"/>
</svg>
