<svg xmlns="http://www.w3.org/2000/svg" xmlns:xlink="http://www.w3.org/1999/xlink" width="41" height="28" viewBox="0 0 41 28">
    <defs>
        <path id="a" d="M12.329 31.791h22.63V16.07h-22.63V31.79zm24.423 0h1.952V14.209c0-1.424-.528-2.029-1.9-2.029H10.43c-1.371 0-1.899.605-1.899 2.03V31.79h1.952V14.209h26.269v17.582zm2.795 3.944c1.055 0 1.583-.382 1.952-1.424l.264-.71H5.472l.263.71c.37 1.042.897 1.424 1.952 1.424h31.86zm0 1.864H7.687c-2.004 0-2.901-.768-3.798-3.288l-.475-1.368 1.32-1.152h1.95V14.209c0-2.631 1.214-3.889 3.746-3.889h26.375c2.531 0 3.745 1.258 3.745 3.89V31.79H42.5l1.32 1.152-.476 1.368c-.896 2.52-1.793 3.288-3.798 3.288z"/>
    </defs>
    <use fill="#1F2532" fill-rule="evenodd" transform="translate(-3 -10)" xlink:href="#a"/>
</svg>
