<?xml version="1.0" encoding="UTF-8"?>
<svg width="30px" height="30px" viewBox="0 0 30 30" version="1.1" xmlns="http://www.w3.org/2000/svg" xmlns:xlink="http://www.w3.org/1999/xlink">
    <title>SVG / C12-B_action_button/renault-contact-blanc</title>
    <g id="C12-B_action_button/renault-contact-blanc" stroke="none" stroke-width="1" fill="none" fill-rule="evenodd">
        <path d="M24.3881119,11.1713286 L24.3881119,18.7237762 L25.0174825,18.7237762 C27.062937,18.7237762 28.1118881,17.4125874 28.1118881,15 C28.1118881,12.43007 27.062937,11.1713286 25.0174825,11.1713286 L24.3881119,11.1713286 Z M5.66433565,18.7237762 L5.66433565,11.1713286 L4.98439059,11.1713286 C2.93893606,11.1713286 1.88811188,12.43007 1.88811188,15 C1.88811188,17.4125874 2.93893606,18.7237762 4.98439059,18.7237762 L5.66433565,18.7237762 Z M12.1697053,29.8951049 C10.541958,29.8951049 9.38811185,28.7937063 9.38811185,27.4300699 C6.03146851,26.3811189 4.04033465,23.9685315 3.72564934,20.506993 C1.36363636,19.9825175 0,17.9895105 0,15 C0,11.4335665 1.83753745,9.3356643 4.98439059,9.3356643 L5.66433565,9.3356643 C5.66433565,3.67132866 9.33753741,0 15.0524476,0 C20.7692307,0 24.4405594,3.67132866 24.4405594,9.3356643 L25.0174825,9.3356643 C28.1643356,9.3356643 30,11.4335665 30,15 C30,18.4615384 28.1118881,20.6118881 25.0174825,20.6118881 L22.5,20.6118881 L22.5,10.4895105 C22.5,4.77272726 20.0349651,1.94055944 15.0524476,1.94055944 C10.0699301,1.94055944 7.55244754,4.82517481 7.55244754,10.4895105 L7.55244754,20.6118881 L5.61376122,20.6118881 C5.92844654,23.2342656 7.23776221,24.8601398 9.75524466,25.646853 C10.1748252,24.8076923 11.013986,24.3356643 12.1697053,24.3356643 C13.8986014,24.3356643 15,25.4370629 15,27.1678321 C15,28.7937063 13.8986014,29.8951049 12.1697053,29.8951049 Z" id="Shape" fill="#FFFFFF" fill-rule="nonzero"></path>
    </g>
</svg>