<svg xmlns="http://www.w3.org/2000/svg" xmlns:xlink="http://www.w3.org/1999/xlink" width="46" height="39" viewBox="0 0 46 39">
    <defs>
        <path id="a" d="M14.557 15.994c1.506 0 2.635-.754 3.137-1.948-2.07-.188-3.64-.44-4.643-1.005-.188-1.068.314-1.885 1.38-1.823 1.193.629 3.326.755 6.84.755 5.835 0 7.905-.629 7.905-2.388V7.51c0-1.885-1.63-2.388-7.905-2.388-5.836 0-7.655.44-7.906 2.011.376-.063.815-.126 1.192-.126.627 0 1.192.063 1.694.252.188-.063.44-.126.753-.126 1.13 0 1.569.44 1.569 1.508 0 1.006-.565 1.508-1.57 1.508-.627 0-1.066-.251-1.254-.691-.314-.189-.753-.251-1.192-.251-2.07 0-3.388 1.382-3.388 3.393 0 2.01 1.317 3.393 3.388 3.393zm5.396-1.885c-.628 2.388-2.698 4.085-5.396 4.085-3.263 0-5.584-2.388-5.584-5.593 0-1.948.815-3.519 2.196-4.524V7.51c0-3.456 2.321-4.524 10.102-4.524 7.78 0 10.102 1.068 10.102 4.524h8.972v2.074h-8.972c0 3.33-2.698 4.524-10.102 4.524h-1.318zM1.443 41.067L0 39.496l2.635-1.948c3.075-2.325 5.334-3.142 8.534-3.142 4.329 0 9.411 2.01 14.745 2.262l15.811-10.871c.628-.44.879-.754.879-1.194 0-.817-.628-1.508-1.443-1.508-.377 0-.628.063-1.192.44l-7.09 4.775c-.565 1.32-1.82 2.137-3.64 2.137h-9.098v-2.2h9.098c1.067 0 1.694-.502 1.694-1.445 0-.942-.627-1.445-1.694-1.445H13.741c-5.647 0-7.09.44-10.227 2.89l-2.07 1.634L0 28.311l2.07-1.634c3.577-2.828 5.71-3.456 11.734-3.456h15.435c1.82 0 3.263.942 3.702 2.45l6.086-4.021c.753-.503 1.318-.692 2.134-.692a3.645 3.645 0 0 1 3.639 3.645c0 1.257-.502 1.948-2.322 3.205l-15.56 10.996c-5.522 0-11.106-2.262-15.75-2.262-2.886 0-4.454.566-7.09 2.577l-2.635 1.948z"/>
    </defs>
    <use fill="#1F2532" fill-rule="evenodd" transform="translate(.6 -2.4)" xlink:href="#a"/>
</svg>
