<?xml version="1.0" encoding="UTF-8"?>
<svg width="30px" height="30px" viewBox="0 0 30 30" version="1.1" xmlns="http://www.w3.org/2000/svg" xmlns:xlink="http://www.w3.org/1999/xlink">
    <!-- Generator: Sketch 52.6 (67491) - http://www.bohemiancoding.com/sketch -->
    <title>Document/valid</title>
    <desc>Created with Sketch.</desc>
    <defs>
        <path d="M19.4181748,23.9774824 L18.2247331,23.9774824 C17.5768647,23.2743513 16.9289964,22.4372904 16.383423,21.6002295 L17.2358813,21.031028 C17.6791597,21.6671943 18.1906347,22.3033606 18.8044047,22.9730094 C19.7250597,21.6337119 20.5434198,20.4283442 21.2594848,19.189494 L22.2142381,19.7586955 C21.3276815,21.2319227 20.5434198,22.4372904 19.4181748,23.9774824 Z M19.2476831,16.8122411 C16.281128,16.8122411 14.3716213,18.5868102 14.3716213,21.566747 C14.3716213,24.5801663 16.281128,26.3547354 19.2476831,26.3547354 C22.1801398,26.3547354 24.0896465,24.5801663 24.0896465,21.566747 C24.0896465,18.5868102 22.1801398,16.8122411 19.2476831,16.8122411 Z M13.1781796,13.1626555 L17.9860447,13.1626555 L17.9860447,12.0242527 L13.1781796,12.0242527 L13.1781796,13.1626555 Z M13.1781796,7.16929939 L17.9860447,7.16929939 L17.9860447,6.03089655 L13.1781796,6.03089655 L13.1781796,7.16929939 Z M11.7801479,17.4149249 L9.15457619,20.3613793 L7.58605283,18.6537751 L8.30211784,18.0510912 L9.12047785,18.955117 L11.0640829,16.8122411 L11.7801479,17.4149249 Z M11.7801479,11.4550512 L9.15457619,14.4015056 L7.58605283,12.6939014 L8.30211784,12.0912175 L9.12047785,12.9952433 L11.0640829,10.8523674 L11.7801479,11.4550512 Z M11.7801479,5.46169514 L9.15457619,8.40814953 L7.58605283,6.70054528 L8.30211784,6.09786143 L9.12047785,7.00188721 L11.0640829,4.85901128 L11.7801479,5.46169514 Z M13.2463763,22.8055972 C13.1781796,22.403808 13.1440813,22.0020187 13.1440813,21.566747 C13.1440813,17.9841263 15.4968663,15.6403558 19.2135847,15.6403558 C19.656863,15.6403558 20.0660431,15.6738382 20.4752231,15.7408031 L20.4752231,3.5866787 L5.81293946,3.5866787 L5.81293946,22.8055972 L13.2463763,22.8055972 Z M13.5532612,23.944 L4.6535961,23.944 L4.6535961,2.44827586 L21.6345664,2.44827586 L21.6345664,16.042145 C23.9191548,16.8457235 25.3171865,18.8546697 25.3171865,21.566747 C25.3171865,25.1158853 22.8962048,27.5266207 19.2476831,27.5266207 C16.4175214,27.5266207 14.3716213,26.1538408 13.5532612,23.944 Z" id="path-1"></path>
    </defs>
    <g id="Document/valid" stroke="none" stroke-width="1" fill="none" fill-rule="evenodd">
        <g id="Group">
            <mask id="mask-2" fill="white">
                <use xlink:href="#path-1"></use>
            </mask>
            <use id="Document/valid" fill="#000000" xlink:href="#path-1"></use>
        </g>
    </g>
</svg>