<svg width="19" height="24" viewBox="0 0 19 24" fill="none" xmlns="http://www.w3.org/2000/svg">
<path fill-rule="evenodd" clip-rule="evenodd" d="M2.66667 1.33333C2.31304 1.33333 1.97391 1.47381 1.72386 1.72386C1.47381 1.97391 1.33333 2.31304 1.33333 2.66667V21.3333C1.33333 21.687 1.47381 22.0261 1.72386 22.2761C1.97391 22.5262 2.31304 22.6667 2.66667 22.6667H16C16.3536 22.6667 16.6928 22.5262 16.9428 22.2761C17.1929 22.0261 17.3333 21.687 17.3333 21.3333V2.66667C17.3333 2.31304 17.1929 1.97391 16.9428 1.72386C16.6928 1.47381 16.3536 1.33333 16 1.33333H2.66667ZM0 2.66667C0 1.95942 0.280951 1.28115 0.781048 0.781048C1.28115 0.280951 1.95942 0 2.66667 0H16C16.7072 0 17.3855 0.280951 17.8856 0.781048C18.3857 1.28115 18.6667 1.95942 18.6667 2.66667V21.3333C18.6667 22.0406 18.3857 22.7189 17.8856 23.219C17.3855 23.719 16.7072 24 16 24H2.66667C1.95942 24 1.28115 23.719 0.781048 23.219C0.280951 22.7189 0 22.0406 0 21.3333V2.66667Z" fill="black"/>
<path fill-rule="evenodd" clip-rule="evenodd" d="M9.33398 5.99992C9.33398 5.82311 9.40422 5.65354 9.52925 5.52851C9.65427 5.40349 9.82384 5.33325 10.0007 5.33325H15.334C15.5108 5.33325 15.6804 5.40349 15.8054 5.52851C15.9304 5.65354 16.0007 5.82311 16.0007 5.99992C16.0007 6.17673 15.9304 6.3463 15.8054 6.47132C15.6804 6.59635 15.5108 6.66659 15.334 6.66659H10.0007C9.82384 6.66659 9.65427 6.59635 9.52925 6.47132C9.40422 6.3463 9.33398 6.17673 9.33398 5.99992Z" fill="black"/>
<path fill-rule="evenodd" clip-rule="evenodd" d="M9.33398 8.66667C9.33398 8.48986 9.40422 8.32029 9.52925 8.19526C9.65427 8.07024 9.82384 8 10.0007 8H15.334C15.5108 8 15.6804 8.07024 15.8054 8.19526C15.9304 8.32029 16.0007 8.48986 16.0007 8.66667C16.0007 8.84348 15.9304 9.01305 15.8054 9.13807C15.6804 9.2631 15.5108 9.33333 15.334 9.33333H10.0007C9.82384 9.33333 9.65427 9.2631 9.52925 9.13807C9.40422 9.01305 9.33398 8.84348 9.33398 8.66667Z" fill="black"/>
<path fill-rule="evenodd" clip-rule="evenodd" d="M9.33398 14.6667C9.33398 14.4899 9.40422 14.3203 9.52925 14.1953C9.65427 14.0702 9.82384 14 10.0007 14H15.334C15.5108 14 15.6804 14.0702 15.8054 14.1953C15.9304 14.3203 16.0007 14.4899 16.0007 14.6667C16.0007 14.8435 15.9304 15.013 15.8054 15.1381C15.6804 15.2631 15.5108 15.3333 15.334 15.3333H10.0007C9.82384 15.3333 9.65427 15.2631 9.52925 15.1381C9.40422 15.013 9.33398 14.8435 9.33398 14.6667Z" fill="black"/>
<path fill-rule="evenodd" clip-rule="evenodd" d="M9.33398 17.3334C9.33398 17.1566 9.40422 16.987 9.52925 16.862C9.65427 16.737 9.82384 16.6667 10.0007 16.6667H15.334C15.5108 16.6667 15.6804 16.737 15.8054 16.862C15.9304 16.987 16.0007 17.1566 16.0007 17.3334C16.0007 17.5102 15.9304 17.6798 15.8054 17.8048C15.6804 17.9298 15.5108 18.0001 15.334 18.0001H10.0007C9.82384 18.0001 9.65427 17.9298 9.52925 17.8048C9.40422 17.6798 9.33398 17.5102 9.33398 17.3334Z" fill="black"/>
<path fill-rule="evenodd" clip-rule="evenodd" d="M3.99935 14.6666V16.6666H5.99935V14.6666H3.99935ZM3.33268 13.3333H6.66602C6.84283 13.3333 7.0124 13.4035 7.13742 13.5285C7.26244 13.6535 7.33268 13.8231 7.33268 13.9999V17.3333C7.33268 17.5101 7.26244 17.6796 7.13742 17.8047C7.0124 17.9297 6.84283 17.9999 6.66602 17.9999H3.33268C3.15587 17.9999 2.9863 17.9297 2.86128 17.8047C2.73625 17.6796 2.66602 17.5101 2.66602 17.3333V13.9999C2.66602 13.8231 2.73625 13.6535 2.86128 13.5285C2.9863 13.4035 3.15587 13.3333 3.33268 13.3333Z" fill="black"/>
<path fill-rule="evenodd" clip-rule="evenodd" d="M7.8044 5.52869C7.92938 5.65371 7.99959 5.82324 7.99959 6.00002C7.99959 6.1768 7.92938 6.34634 7.8044 6.47135L4.6664 9.60935L2.86173 7.80469C2.79806 7.74319 2.74727 7.66963 2.71233 7.58829C2.67739 7.50695 2.659 7.41947 2.65823 7.33095C2.65746 7.24243 2.67433 7.15465 2.70785 7.07272C2.74137 6.99079 2.79087 6.91635 2.85347 6.85376C2.91606 6.79116 2.9905 6.74166 3.07243 6.70814C3.15436 6.67462 3.24214 6.65775 3.33066 6.65852C3.41918 6.65929 3.50666 6.67768 3.588 6.71262C3.66933 6.74756 3.7429 6.79835 3.8044 6.86202L4.6664 7.72402L6.86173 5.52869C6.98675 5.40371 7.15629 5.3335 7.33306 5.3335C7.50984 5.3335 7.67938 5.40371 7.8044 5.52869Z" fill="black"/>
</svg>
