<svg width="22" height="25" viewBox="0 0 22 25" fill="none" xmlns="http://www.w3.org/2000/svg">
<path d="M10.7428 1.00676C10.6627 0.920797 10.5661 0.851844 10.4588 0.80402C10.3514 0.756196 10.2356 0.730481 10.1181 0.728408C10.0006 0.726335 9.8839 0.747947 9.77495 0.791955C9.66599 0.835963 9.56702 0.901464 9.48393 0.984553C9.40085 1.06764 9.33534 1.16661 9.29134 1.27557C9.24733 1.38452 9.22571 1.50122 9.22779 1.61871C9.22986 1.73619 9.25558 1.85206 9.3034 1.95939C9.35122 2.06672 9.42018 2.16333 9.50614 2.24343L10.9295 3.66676C8.89661 3.68042 6.91142 4.28391 5.21489 5.40397C3.51836 6.52403 2.18346 8.1125 1.37223 9.97654C0.561005 11.8406 0.308339 13.9 0.644907 15.9049C0.981475 17.9098 1.8928 19.7738 3.26826 21.2708C4.64372 22.7677 6.42415 23.8332 8.39343 24.3378C10.3627 24.8425 12.4361 24.7647 14.362 24.1137C16.2879 23.4628 17.9834 22.2668 19.2428 20.6709C20.5021 19.075 21.271 17.1479 21.4563 15.1234C21.4667 15.009 21.4544 14.8936 21.4201 14.7839C21.3859 14.6742 21.3304 14.5724 21.2567 14.4841C21.1831 14.3959 21.0929 14.323 20.9911 14.2697C20.8893 14.2163 20.778 14.1835 20.6636 14.1732C20.5491 14.1628 20.4338 14.1751 20.3241 14.2094C20.2144 14.2436 20.1125 14.2991 20.0243 14.3728C19.936 14.4464 19.8631 14.5366 19.8098 14.6384C19.7564 14.7402 19.7237 14.8515 19.7133 14.9659C19.5586 16.6524 18.9178 18.2577 17.8687 19.5871C16.8195 20.9165 15.4072 21.9129 13.8029 22.4554C12.1986 22.9979 10.4714 23.0632 8.83076 22.6433C7.19011 22.2235 5.70655 21.3366 4.56004 20.0902C3.41354 18.8438 2.65336 17.2915 2.37174 15.6216C2.09012 13.9516 2.29915 12.2358 2.97348 10.6824C3.64781 9.12891 4.75846 7.8045 6.17068 6.86983C7.58291 5.93516 9.23602 5.4304 10.9295 5.41676L9.50614 6.8401C9.34683 7.0052 9.25874 7.22627 9.26084 7.45569C9.26294 7.68511 9.35507 7.90453 9.51738 8.06669C9.67969 8.22884 9.89919 8.32076 10.1286 8.32265C10.358 8.32453 10.579 8.23623 10.744 8.07676L13.6606 5.1601C13.8245 4.99603 13.9165 4.77364 13.9165 4.54176C13.9165 4.30989 13.8245 4.08749 13.6606 3.92343L10.744 1.00676H10.7428Z" fill="black"/>
<path d="M15.413 10.9234C15.5769 11.0874 15.6689 11.3098 15.6689 11.5417C15.6689 11.7736 15.5769 11.996 15.413 12.16L10.1584 17.4147C9.99429 17.5786 9.7719 17.6706 9.54002 17.6706C9.30815 17.6706 9.08575 17.5786 8.92169 17.4147L6.58836 15.0814C6.4338 14.9155 6.34965 14.6961 6.35365 14.4694C6.35765 14.2427 6.44948 14.0265 6.6098 13.8662C6.77011 13.7058 6.9864 13.614 7.21308 13.61C7.43977 13.606 7.65915 13.6901 7.82502 13.8447L9.54002 15.5585L14.1752 10.9234C14.3393 10.7595 14.5616 10.6675 14.7935 10.6675C15.0254 10.6675 15.2478 10.7595 15.4119 10.9234H15.413Z" fill="black"/>
</svg>
