<svg width="56" height="58" viewBox="0 0 56 58" fill="none" xmlns="http://www.w3.org/2000/svg">
<path d="M53.0402 47.182C51.677 43.953 49.6987 41.02 47.2156 38.5463C44.74 36.0655 41.8075 34.0875 38.5799 32.7217C38.551 32.7072 38.5221 32.7 38.4931 32.6855C42.9953 29.4336 45.9221 24.1365 45.9221 18.1602C45.9221 8.25977 37.9006 0.238281 28.0002 0.238281C18.0998 0.238281 10.0783 8.25977 10.0783 18.1602C10.0783 24.1365 13.0051 29.4336 17.5072 32.6928C17.4783 32.7072 17.4494 32.7145 17.4205 32.7289C14.183 34.0947 11.2779 36.0531 8.78475 38.5535C6.30394 41.0291 4.32599 43.9617 2.96014 47.1893C1.61833 50.3491 0.894659 53.7368 0.828306 57.1691C0.826377 57.2463 0.839905 57.323 0.868094 57.3948C0.896283 57.4666 0.938561 57.5321 0.992438 57.5873C1.04632 57.6425 1.1107 57.6864 1.1818 57.7164C1.2529 57.7463 1.32928 57.7617 1.40643 57.7617H5.74237C6.06034 57.7617 6.31327 57.5088 6.32049 57.198C6.46502 51.6191 8.70526 46.3943 12.6654 42.4342C16.7629 38.3367 22.2045 36.082 28.0002 36.082C33.7959 36.082 39.2375 38.3367 43.3349 42.4342C47.2951 46.3943 49.5353 51.6191 49.6799 57.198C49.6871 57.516 49.94 57.7617 50.258 57.7617H54.5939C54.6711 57.7617 54.7475 57.7463 54.8186 57.7164C54.8897 57.6864 54.954 57.6425 55.0079 57.5873C55.0618 57.5321 55.1041 57.4666 55.1323 57.3948C55.1604 57.323 55.174 57.2463 55.1721 57.1691C55.0998 53.7148 54.3844 50.3545 53.0402 47.182ZM28.0002 30.5898C24.6832 30.5898 21.5613 29.2963 19.2127 26.9477C16.864 24.599 15.5705 21.4771 15.5705 18.1602C15.5705 14.8432 16.864 11.7213 19.2127 9.37266C21.5613 7.02402 24.6832 5.73047 28.0002 5.73047C31.3172 5.73047 34.439 7.02402 36.7877 9.37266C39.1363 11.7213 40.4299 14.8432 40.4299 18.1602C40.4299 21.4771 39.1363 24.599 36.7877 26.9477C34.439 29.2963 31.3172 30.5898 28.0002 30.5898Z" fill="black"/>
</svg>
