<svg width="32" height="32" viewBox="0 0 32 32" fill="none" xmlns="http://www.w3.org/2000/svg">
<path d="M28.6667 31.8046H2C0.897136 31.8046 0 30.9074 0 29.8046V11.1379C0 10.0351 0.897136 9.13794 2 9.13794H28.6667C29.7695 9.13794 30.6667 10.0351 30.6667 11.1379V17.7141H29.3333V11.1379C29.3333 10.7704 29.0341 10.4713 28.6667 10.4713H2C1.63247 10.4713 1.33333 10.7704 1.33333 11.1379V29.8046C1.33333 30.1721 1.63247 30.4713 2 30.4713H28.6667C29.0341 30.4713 29.3333 30.1721 29.3333 29.8046V23.3248H30.6667V29.8046C30.6667 30.9074 29.7695 31.8046 28.6667 31.8046Z" fill="black"/>
<path d="M32 23.8046H26C24.1621 23.8046 22.6667 22.3092 22.6667 20.4713C22.6667 18.6334 24.1621 17.1379 26 17.1379H32V23.8046ZM26 18.4713C24.8971 18.4713 24 19.3684 24 20.4713C24 21.5741 24.8971 22.4713 26 22.4713H30.6667V18.4713H26Z" fill="black"/>
<path d="M26.6667 19.8047H25.3333V21.138H26.6667V19.8047Z" fill="black"/>
<path d="M8.66668 27.1379H3.33334V28.4713H8.66668V27.1379Z" fill="black"/>
<path d="M11.8047 10.2757L10.8619 9.33298L20 0.195312L28.9567 9.15171L28.014 10.0944L20 2.08071L11.8047 10.2757Z" fill="black"/>
<g style="mix-blend-mode:multiply">
<path fill-rule="evenodd" clip-rule="evenodd" d="M11.8944 8.87038L19.1907 1.55713L26.449 9.1778L11.8944 8.87038Z" fill="#EFDF00"/>
</g>
<g style="mix-blend-mode:multiply">
<path fill-rule="evenodd" clip-rule="evenodd" d="M4.73401 9.08535L12.4297 1.55078L15.5811 4.71497L11.4047 9.06252L4.73401 9.08535Z" fill="#EFDF00"/>
</g>
<path d="M4.49345 10.099L3.55072 9.15625L12.512 0.195312L16.7272 4.41045L15.7845 5.35318L12.512 2.08071L4.49345 10.099Z" fill="black"/>
</svg>
