<svg width="30" height="30" viewBox="0 0 30 30" fill="none" xmlns="http://www.w3.org/2000/svg">
<path fill-rule="evenodd" clip-rule="evenodd" d="M17.2689 25.3361C21.3025 24.6218 24.2017 21.8908 25.1261 17.8151H20.2941C19.6218 18.9496 18.5294 19.916 17.2689 20.5042V25.3361ZM26.8487 16.3866C26.2605 22.479 21.8908 26.6807 15.7563 27.0168V19.4538C17.3529 19.1597 18.8655 17.8992 19.3277 16.3866H26.8487ZM12.7731 25.3361V20.5042C11.4706 19.958 10.3782 18.9916 9.70588 17.8151H4.83193C5.7563 21.8487 8.65546 24.6218 12.7731 25.3361ZM20.5042 13.5294H25.3361C24.7479 7.98319 20.7143 4.45378 15 4.45378C9.2437 4.45378 5.16807 7.98319 4.57983 13.5294H9.4958C10.1261 11.8487 11.7227 11.1765 15 11.1765C18.2773 11.1765 19.8739 11.8487 20.5042 13.5294ZM14.2857 27.0168C8.06723 26.7227 3.65546 22.563 3.06723 16.3866H10.6723C11.1345 17.8992 12.6471 19.1597 14.2857 19.4538V27.0168ZM15 12.605C11.7647 12.605 10.8403 13.1092 10.5882 14.958H2.98319C2.98319 7.89916 7.89916 2.98319 15 2.98319C22.0168 2.98319 26.9328 7.89916 26.9328 14.958H19.4118C19.1597 13.1092 18.2353 12.605 15 12.605ZM15 28.4874C23.1092 28.4874 28.4454 23.1092 28.4454 14.958C28.4454 6.84874 23.1092 1.51261 15 1.51261C6.89076 1.51261 1.55462 6.84874 1.55462 14.958C1.55462 23.1513 6.89076 28.4874 15 28.4874ZM0 14.958C0 5.96639 6.0084 0 15 0C24.0756 0 30 5.92437 30 14.958C30 24.0336 24.0336 30 15 30C5.96639 30 0 23.9916 0 14.958Z" fill="black"/>
<path fill-rule="evenodd" clip-rule="evenodd" d="M15 18.5C16.6569 18.5 18 17.6569 18 16C18 14.3431 16.6569 14 15 14C13.3431 14 12 14.3431 12 16C12 17.6569 13.3431 18.5 15 18.5Z" fill="#EFDF00"/>
</svg>
