<?xml version="1.0" encoding="UTF-8"?>
<svg width="24px" height="25px" viewBox="0 0 24 25" version="1.1" xmlns="http://www.w3.org/2000/svg" xmlns:xlink="http://www.w3.org/1999/xlink">
    <!-- Generator: Sketch 51.3 (57544) - http://www.bohemiancoding.com/sketch -->
    <title>corrosion copy 18</title>
    <desc>Created with Sketch.</desc>
    <defs></defs>
    <g id="Icons" stroke="none" stroke-width="1" fill="none" fill-rule="evenodd">
        <g id="Vehicules-icons" transform="translate(-1011.000000, -9686.000000)" fill="#000000">
            <g id="accessories" transform="translate(184.000000, 9527.000000)">
                <g id="accessories/multimedia-1/SVG" transform="translate(825.000000, 156.000000)">
                    <path d="M24.3308319,21.4616283 C24.3308319,19.8402478 23.0410973,18.7716106 21.0512212,18.7716106 C19.0613451,18.7716106 17.7716106,19.8402478 17.7716106,21.4616283 C17.7716106,23.0461593 19.0613451,24.0779469 21.0512212,24.0779469 C23.0410973,24.0779469 24.3308319,23.0461593 24.3308319,21.4616283 Z M24.3308319,4.4739823 L11.2123894,6.05851327 L11.2123894,9.33812389 L24.3308319,7.75359292 L24.3308319,4.4739823 Z M9.88580531,24.0779469 C9.88580531,22.4565664 8.5960708,21.3879292 6.60619469,21.3879292 C4.61763464,21.3879292 3.32790013,22.4565664 3.32790013,24.0779469 C3.32790013,25.6624779 4.61763464,26.6942655 6.60619469,26.6942655 C8.5960708,26.6942655 9.88580531,25.6624779 9.88580531,24.0779469 Z M6.60619469,27.984 C3.91617699,27.984 2,26.3626195 2,24.0410973 C2,21.7195752 3.91617699,20.0981947 6.60619469,20.0981947 C7.85907965,20.0981947 9.00141593,20.5035398 9.88580531,21.240531 L9.88580531,4.87932743 L25.6574159,3 L25.6574159,21.240531 C25.6574159,23.7094513 23.8149381,25.3676814 21.0512212,25.3676814 C18.3612035,25.3676814 16.4450265,23.7463009 16.4450265,21.4247788 C16.4450265,19.1032566 18.3612035,17.4818761 21.0512212,17.4818761 C22.3041062,17.4818761 23.4464425,17.8872212 24.3308319,18.6242124 L24.3308319,9.08017699 L11.2123894,10.664708 L11.2123894,23.8568496 C11.2123894,26.3257699 9.3699115,27.984 6.60619469,27.984 Z" id="Page-1"></path>
                </g>
            </g>
        </g>
    </g>
</svg>