<svg width="31" height="29" viewBox="0 0 31 29" fill="none" xmlns="http://www.w3.org/2000/svg">
<path fill-rule="evenodd" clip-rule="evenodd" d="M10.8109 11.4315H20.1457C20.1457 9.69045 21.4482 8.38468 23.2283 8.38468C25.0069 8.38468 26.3094 9.69045 26.3094 11.4315C26.3094 13.1725 25.0069 14.4783 23.2283 14.4783C22.0111 14.4783 21.014 13.8689 20.4914 12.9114H10.4636C9.94258 13.8689 8.94243 14.4783 7.72829 14.4783C5.94663 14.4783 4.64566 13.1725 4.64566 11.4315C4.64566 9.69045 5.94663 8.38468 7.72829 8.38468C9.50685 8.38468 10.8109 9.69045 10.8109 11.4315ZM1.51961 8.73289C1.51961 6.60013 1.64986 6.29545 3.77576 3.77095C5.94663 1.15941 6.98865 0.550049 9.29132 0.550049H14.8038C16.801 0.550049 18.1485 0.985306 20.5783 2.3346L23.8796 4.81557L26.0055 5.33788C28.3066 5.90371 29.3936 7.20949 29.3936 9.4293C29.3936 10.5174 29.0881 11.475 28.5252 12.2585L27.308 11.388C27.7437 10.7351 27.8739 10.2563 27.8739 9.4293C27.8739 7.9059 27.0924 7.07891 25.1371 6.60013L23.0097 6.07782L19.7968 3.64038C18.2337 2.46518 16.8894 2.02992 14.8038 2.02992H9.29132C7.50965 2.02992 6.85839 2.46518 4.86275 4.8591C3.1245 6.99186 3.03767 7.20949 3.03767 8.95052V9.86456C3.03767 10.5174 3.16792 10.9092 3.55867 11.3009L2.51821 12.2585C1.82198 11.6491 1.51961 10.9092 1.51961 9.86456V8.73289ZM0.998599 28.4501L0 27.3619L1.82198 26.0126C3.94943 24.4022 5.51401 23.8363 7.72829 23.8363C10.7241 23.8363 14.2393 25.2291 17.9314 25.4032L28.8725 17.8733C29.3067 17.5686 29.4788 17.351 29.4788 17.0463C29.4788 16.4805 29.0462 16.0017 28.4818 16.0017C28.2213 16.0017 28.0461 16.0452 27.6553 16.3064L22.7491 19.6143C22.3584 20.5284 21.49 21.0942 20.2309 21.0942H13.937V19.5708H20.2309C20.969 19.5708 21.4048 19.2226 21.4048 18.5697C21.4048 17.9168 20.969 17.5686 20.2309 17.5686H9.50685C5.60084 17.5686 4.60224 17.8733 2.43137 19.5708L0.998599 20.7025L0 19.6143L1.43122 18.4827C3.90601 16.524 5.38375 16.0887 9.55182 16.0887H20.2309C21.49 16.0887 22.4886 16.7416 22.7941 17.7862L27.0056 15.0006C27.5251 14.6524 27.9158 14.5218 28.4818 14.5218C29.8696 14.5218 31 15.6535 31 17.0463C31 17.9168 30.6511 18.3956 29.3936 19.2661L18.6245 26.8831C14.8038 26.8831 10.9412 25.3162 7.72829 25.3162C5.73109 25.3162 4.64566 25.7079 2.82213 27.1008L0.998599 28.4501Z" fill="black"/>
<path fill-rule="evenodd" clip-rule="evenodd" d="M21.5784 11.4315C21.5784 12.3891 22.2281 13.0419 23.2283 13.0419C24.2269 13.0419 24.8766 12.3891 24.8766 11.4315C24.8766 10.4739 24.2269 9.82104 23.2283 9.82104C22.2281 9.82104 21.5784 10.4739 21.5784 11.4315Z" fill="#EFDF00"/>
<path fill-rule="evenodd" clip-rule="evenodd" d="M7.72828 9.82104C6.72813 9.82104 6.07687 10.4739 6.07687 11.4315C6.07687 12.3891 6.72813 13.0419 7.72828 13.0419C8.72533 13.0419 9.37659 12.3891 9.37659 11.4315C9.37659 10.4739 8.72533 9.82104 7.72828 9.82104Z" fill="#EFDF00"/>
</svg>
