<svg width="353" height="100" viewBox="0 0 353 100" fill="none" xmlns="http://www.w3.org/2000/svg">
<path fill-rule="evenodd" clip-rule="evenodd" d="M56.0518 73.1759C55.0286 74.4518 53.4385 76.0168 51.326 76.8994C49.1209 77.8209 46.7805 77.8116 45.1458 77.6213C48.8613 76.4742 52.2215 74.8355 56.0518 73.1759ZM44.1823 75.7346C45.1869 74.4214 46.8633 72.6588 49.151 71.6973C51.2507 70.8262 53.4649 70.7905 55.083 70.9501C52.3585 72.0977 47.2133 74.2935 44.1823 75.7346ZM68.7359 98.9823L16.0904 98.941C15.7589 98.4425 15.6386 97.6447 15.631 96.7192C15.7705 95.0765 15.7665 93.8934 15.9413 94.1059C16.63 94.9319 18.0636 96.3242 18.5507 96.1659C31.5304 91.931 39.923 94.4466 39.923 94.4466L40.0623 93.76H41.987C41.8475 91.9725 42.6753 90.8736 42.6753 90.8736C45.4222 90.601 49.2732 91.8371 52.9815 91.8371C56.2832 91.0113 58.3435 88.2642 58.7536 87.4386C59.4422 84.9623 57.7902 86.6143 57.7902 86.6143C57.7902 87.3029 56.9664 87.9877 56.5562 87.7112C56.8287 87.5758 56.9664 87.0263 56.9664 86.8874C56.9664 86.7498 56.6933 85.6513 56.1404 86.7498C55.0945 88.9791 51.8038 88.5863 51.495 88.5428C51.5405 88.5261 51.6439 88.3925 51.7436 87.5758C51.8829 86.4773 50.9216 86.7498 50.9216 86.7498C50.9216 86.7498 50.0992 87.7113 49.4068 87.5758C43.3623 86.3379 42.6753 87.9877 42.6753 87.9877C42.6753 87.9877 42.1242 88.1253 41.575 88.1253C41.161 87.4386 40.3389 87.3029 40.0623 87.5758C40.1995 88.1253 39.101 88.2642 38.5515 88.2642C37.1744 87.8523 36.4915 88.9509 36.4915 88.9509L32.9168 88.8137C32.9168 88.8137 30.9924 89.363 30.4428 89.2238C28.2437 88.5372 21.4389 88.7402 21.4389 88.7402C21.4389 88.7402 20.8875 88.0554 20.6111 87.2334C23.501 85.446 27.0058 86.2042 28.106 86.3379C28.3791 86.0614 28.2437 84.274 28.2437 84.274C28.2437 84.274 30.8287 83.7246 31.5171 83.8639C31.7935 84.4134 32.7798 85.2394 33.6056 84.417C34.4276 85.2394 35.5263 84.5504 35.9422 83.5914C37.3136 84.6899 38.4123 82.4905 38.4123 82.4905C39.2289 84.1254 41.125 82.2496 40.2239 79.4052L41.2269 78.9875C41.3639 79.1587 41.5073 79.2451 41.6201 79.2078C41.8042 79.1494 41.8551 78.7861 41.7649 78.3327L43.2926 77.7496C43.524 77.8151 44.2538 77.8868 44.2538 77.8868C44.3367 77.8624 44.4193 77.836 44.5021 77.8151C45.1591 77.915 45.9753 77.9979 46.884 77.9979C48.28 77.9979 49.8885 77.7983 51.433 77.155C53.8189 76.156 55.5533 74.3028 56.5769 72.9521C56.908 72.8091 57.2464 72.6681 57.5852 72.5269C58.4112 70.8749 56.9022 70.1905 56.9022 70.1905C56.9022 70.1905 56.4075 70.3935 55.5984 70.7321C53.9221 70.5178 51.4126 70.4594 49.0476 71.4489C46.4496 72.5305 44.6282 74.6283 43.6517 75.9906C43.5766 76.0281 43.5013 76.0619 43.4318 76.0994C43.3208 76.152 43.0195 76.809 42.8787 77.0608C42.6962 77.1891 41.9492 77.4767 41.528 77.6346C41.3379 77.2511 41.095 77.0158 40.922 77.0724C40.8017 77.1099 40.7397 77.2793 40.7322 77.5143C40.704 77.5276 40.6773 77.5427 40.6491 77.5558C40.6323 77.2418 40.4142 76.9613 40.1995 76.8539C39.2383 77.5427 37.5867 77.1308 37.5867 77.1308C36.4915 76.7184 35.3891 76.7184 35.3891 76.7184C35.3891 76.7184 33.8783 77.8191 33.3288 78.6411C31.4644 81.4331 30.7159 81.2546 27.83 81.392C27.5587 81.4031 27.141 80.566 27.141 80.566C27.141 80.566 25.9071 81.1152 25.2201 81.5275C24.3923 81.392 22.6072 81.9394 21.3693 81.9394C19.4466 82.0804 19.7191 81.5275 19.4466 80.8387C19.9902 79.0552 19.6345 77.4072 19.1851 74.9634C19.1851 74.9594 19.1851 74.9594 19.1851 74.9594C19.42 71.8421 19.2713 69.007 18.3551 67.2064C18.2236 66.9467 18.0751 66.7064 17.9057 66.4915C17.9057 66.4915 18.1295 66.2241 18.3551 65.8518C18.425 65.7372 18.4945 65.6128 18.5585 65.4831C18.6224 65.3552 18.6824 65.2218 18.7299 65.0841C18.833 64.7872 18.882 64.4859 18.8161 64.2206C19.2169 63.8182 19.7058 63.4794 19.9394 63.2312C19.9434 63.2258 19.9487 63.2216 19.9527 63.2179C19.9527 63.2179 19.9527 63.2178 19.9527 63.2163C20.0315 63.1317 20.0766 63.056 20.0766 62.9958C20.0766 62.9396 20.0371 62.8923 19.9487 62.8588C19.3183 62.6145 18.6149 62.1194 17.864 61.4703C17.864 61.4703 17.864 61.4681 17.8622 61.4681C17.8586 61.4626 17.8548 61.4606 17.8512 61.457C17.7456 61.346 17.6534 61.2425 17.5839 61.1524C17.68 60.2926 18.2516 56.6671 19.2077 54.9495C20.9251 56.475 26.6501 62.964 30.0853 58.1929C30.6593 57.4293 31.4215 58.1929 31.4215 58.1929C31.4215 58.1929 33.1389 55.9034 35.8121 57.239C37.5301 57.8112 36.766 55.3296 37.338 53.6117C37.9118 51.8942 39.4377 49.7945 41.1552 50.5585C42.6833 50.9405 42.6833 50.3683 43.065 49.6046C44.0185 47.505 46.8822 45.5974 46.6903 42.7339C46.5624 40.8072 49.1135 39.0522 51.61 38.7509C53.7265 38.4971 55.6979 39.9719 55.9372 42.0884C56.1177 43.6763 55.2315 44.57 54.7064 44.8334C53.5611 45.7875 51.0813 44.6417 52.6072 43.1158C52.6072 42.5418 51.8431 42.3522 51.6533 43.3057C51.4632 44.4514 52.4169 47.3147 55.6603 45.7875C58.9059 44.2594 60.2416 38.5346 53.7531 35.4814C53.7531 35.4814 55.1843 35.342 54.8985 35.2894C50.6994 34.5257 47.454 26.1291 44.9728 25.5553C44.9728 25.5553 43.6368 20.4023 37.9118 21.166C36.2169 20.0373 32.661 18.3517 26.6951 21.7943C26.7178 21.6271 26.7271 21.4615 26.7178 21.2956C26.7049 21.1244 26.6876 20.9536 26.6616 20.786C26.6501 20.709 26.635 20.6319 26.6221 20.5564C26.6314 20.3382 26.6483 20.1219 26.6783 19.9056C26.7349 19.5144 26.8328 19.1305 26.9756 18.7579C27.1261 18.3893 27.3424 18.0506 27.604 17.7307C27.2729 17.9736 26.9849 18.2894 26.7629 18.6526C26.6125 18.916 26.4904 19.1982 26.3943 19.4879C26.2872 19.0947 26.1629 18.7052 26.0217 18.3253C25.8882 18.0147 25.7679 17.6987 25.6117 17.3978C25.5383 17.2471 25.4648 17.0949 25.3859 16.948L25.1339 16.5097L25.0078 16.2914L24.8666 16.0827L24.5861 15.665C24.3945 15.3903 24.1836 15.1288 23.9786 14.8674L24.2251 15.3017C24.3079 15.4469 24.3999 15.5857 24.4733 15.7345C24.6201 16.0336 24.7857 16.3198 24.9156 16.6246L25.1224 17.0741L25.3069 17.5333C25.4366 17.8342 25.5307 18.1501 25.6378 18.4606C25.8356 19.0854 25.9841 19.7229 26.0856 20.3644C26.112 20.5171 26.1311 20.6692 26.146 20.8218C26.1386 20.9104 26.1271 20.9987 26.1232 21.0873C26.1214 21.1244 26.1253 21.1622 26.1232 21.2019C25.9595 20.9799 25.7885 20.7634 25.6078 20.5582C25.175 20.0675 24.6936 19.6194 24.1667 19.2357C23.6398 18.8518 23.0642 18.534 22.4472 18.3289C21.8339 18.1239 21.1791 18.0393 20.5433 18.1126C21.183 18.0939 21.813 18.2332 22.389 18.4814C22.9665 18.7315 23.4934 19.0832 23.9635 19.4915C24.4358 19.9016 24.8555 20.3666 25.2259 20.8671C25.467 21.1926 25.685 21.5368 25.8789 21.8885C21.3805 21.6005 17.8304 22.2928 16.9158 26.319C16.9158 26.319 13.4805 28.2288 13.6726 32.4279C11.5727 34.7174 12.909 41.2062 13.0988 43.3057C13.2907 45.4053 10.8093 48.4589 10.8093 48.4589C10.8093 48.4589 14.6265 47.1231 14.0543 51.5121C13.7008 53.1057 12.5288 55.1845 12.3572 55.4857C12.2841 55.3992 12.2126 55.3145 12.1374 55.2315C12.1334 55.2278 12.1316 55.2242 12.128 55.2204C12.1262 55.215 12.1223 55.2111 12.1187 55.2071C12.1165 55.2053 12.1187 55.2053 12.1165 55.2035C12.1147 55.1996 12.1112 55.1978 12.109 55.196C11.9078 54.9195 11.5896 54.5187 11.2325 54.1877C11.2268 54.1819 11.2228 54.1744 11.2176 54.1688C11.2156 54.1688 11.2119 54.167 11.2101 54.1648C11.2101 54.163 11.2079 54.163 11.2079 54.163L11.2021 54.1577C9.31737 52.0239 7.79506 50.5923 7.24195 51.5103C7.24195 51.5103 8.37638 55.369 6.10573 57.6396C4.90556 58.8384 2.94334 59.6582 1.56442 63.4945V35.2612C1.56442 16.6715 16.773 1.34038 35.3627 1.45537C53.8131 1.56997 68.7359 16.5645 68.7359 35.0447V98.9823ZM66.9693 21.5987C65.2311 17.49 62.74 13.7949 59.5701 10.625C56.3999 7.45107 52.7049 4.96195 48.5922 3.22197C44.3331 1.41963 39.8085 0.506836 35.1502 0.506836C30.4863 0.506836 25.9635 1.41963 21.7042 3.22197C17.5915 4.96195 13.9 7.45107 10.7301 10.625C7.55654 13.7949 5.06523 17.49 3.32704 21.5987C1.5245 25.8602 0.612305 30.3808 0.612305 35.0447V99.9288H69.6841V35.0447C69.6841 30.3808 68.7719 25.8602 66.9693 21.5987Z" fill="#00828E"/>
<path fill-rule="evenodd" clip-rule="evenodd" d="M55.8003 84.8965L56.075 85.7225L53.3263 87.3705L51.127 85.1711L54.2876 80.7744L56.901 84.0726L55.8003 84.8965Z" fill="#00828E"/>
<path fill-rule="evenodd" clip-rule="evenodd" d="M56.052 73.1777C52.2217 74.8373 48.8615 76.476 45.146 77.6231C45.6653 77.6837 46.2538 77.7256 46.886 77.7256C48.2518 77.7256 49.821 77.5304 51.3262 76.9012C53.4388 76.0186 55.0288 74.4536 56.052 73.1777ZM55.3843 73.6739C54.4209 74.7505 53.0269 75.9862 51.2527 76.7274C49.9679 77.265 48.4986 77.5375 46.886 77.5375C46.6268 77.5375 46.3613 77.5304 46.0941 77.5157C48.649 76.6627 51.0646 75.5894 53.6064 74.4605C54.1877 74.2029 54.7801 73.9388 55.3843 73.6739Z" fill="#00828E"/>
<path fill-rule="evenodd" clip-rule="evenodd" d="M53.5971 70.8765C52.2327 70.8765 50.6621 71.0705 49.1513 71.6973C46.8636 72.6588 45.1872 74.4214 44.1826 75.7346C47.2135 74.2935 52.3588 72.0977 55.0833 70.9501C54.6298 70.9055 54.1294 70.8765 53.5971 70.8765ZM53.5971 70.8765V71.0643C53.8263 71.0643 54.0579 71.0697 54.289 71.0808C51.9735 72.0611 47.7591 73.8625 44.843 75.217C45.8495 74.0337 47.3228 72.6699 49.2228 71.8711C50.5136 71.3354 51.9846 71.0643 53.5971 71.0643V70.8765Z" fill="#00828E"/>
<path fill-rule="evenodd" clip-rule="evenodd" d="M269.826 32.8531V38.0742C270.433 37.5475 271.151 37.1485 271.966 36.9728C272.078 36.9569 272.19 36.9249 272.303 36.909H272.318C272.542 36.8768 272.782 36.8607 273.006 36.8607L283.305 36.8131C283.367 36.8131 283.414 36.829 283.448 36.8607C283.464 36.8607 283.464 36.8768 283.464 36.8768C283.526 36.9249 283.576 37.0043 283.576 37.1007L283.545 69.066C283.545 70.2953 283.081 71.3974 282.328 72.2435H293.203C292.678 71.6528 292.276 70.918 292.102 70.1041C292.071 69.9919 291.99 69.2896 291.99 69.066C291.99 69.066 291.99 37.4359 292.006 37.308V37.1007C292.006 37.0526 292.021 37.0043 292.052 36.9569C292.071 36.9249 292.102 36.8931 292.133 36.8607C292.183 36.829 292.23 36.8131 292.291 36.8131L302.545 36.8607C302.672 36.8607 302.8 36.8607 302.927 36.8768C303.024 36.8768 303.136 36.8931 303.229 36.909C303.248 36.909 303.263 36.909 303.279 36.909C303.375 36.9249 303.468 36.9406 303.58 36.9569C304.395 37.1322 305.129 37.5156 305.721 38.0583V32.8374H269.826V32.8531Z" fill="#00828E"/>
<path fill-rule="evenodd" clip-rule="evenodd" d="M339.667 65.807C337.349 69.048 334.189 70.6609 330.229 70.6609C326.253 70.6609 323.124 69.048 320.826 65.807C318.511 62.5658 317.36 58.1591 317.36 52.5706C317.36 46.9983 318.511 42.5751 320.826 39.3343C323.124 36.0929 326.269 34.4804 330.229 34.4804C334.189 34.4804 337.349 36.0929 339.667 39.3343C341.997 42.5751 343.144 46.9983 343.144 52.5706C343.144 58.143 341.997 62.5658 339.667 65.807ZM346.389 37.6255C342.398 33.9533 337.017 32.1172 330.264 32.1172C323.491 32.1172 318.113 33.9533 314.134 37.6255C310.143 41.2979 308.146 46.2797 308.146 52.5706C308.146 58.8616 310.143 63.843 314.134 67.5154C318.113 71.188 323.491 73.0237 330.264 73.0237C337.017 73.0237 342.398 71.188 346.389 67.5154C350.38 63.843 352.374 58.8616 352.374 52.5706C352.374 46.2797 350.38 41.2979 346.389 37.6255Z" fill="#00828E"/>
<path fill-rule="evenodd" clip-rule="evenodd" d="M210.16 56.0522C210.122 56.0109 210.083 55.9692 210.044 55.9295C209.759 55.6439 209.341 55.399 208.932 55.2042C208.206 54.857 207.406 54.6912 206.598 54.6866C204.709 54.6761 200.788 54.663 200.788 54.663C200.707 54.6793 200.641 54.7112 200.595 54.775C200.564 54.8228 200.548 54.8866 200.548 54.9503V67.9155C200.548 68.0116 200.595 68.0917 200.66 68.1391C200.691 68.155 200.722 68.1713 200.757 68.187C200.788 68.2029 200.803 68.2029 200.834 68.2029H214.982C215.113 68.2029 215.241 68.1967 215.368 68.184C215.782 68.1473 216.179 68.05 216.55 67.8996C217.083 67.6871 217.562 67.3679 217.96 66.9689L217.968 66.9755C218.157 66.7834 218.324 66.5745 218.47 66.3523C218.494 66.3171 218.521 66.2808 218.54 66.2442L217.566 72.2107H190.952C191.558 71.5404 191.972 70.7099 192.118 69.7838C192.165 69.5443 192.18 69.3047 192.18 69.0489V36.0618C192.18 35.8064 192.165 35.551 192.118 35.3115C191.975 34.3935 191.562 33.5675 190.963 32.9004H217.887V38.1038C217.481 37.7176 217.002 37.4127 216.473 37.2115C216.067 37.058 215.635 36.9658 215.183 36.9446C215.152 36.9418 214.823 36.9241 214.696 36.9241H200.769C200.722 36.9398 200.691 36.9561 200.66 36.9877C200.595 37.0358 200.548 37.1156 200.548 37.1956V50.895C200.548 50.9429 200.564 51.0066 200.595 51.0547C200.63 51.1026 200.676 51.1341 200.742 51.1504C200.757 51.1663 200.788 51.1663 200.819 51.1663C200.819 51.1663 205.868 51.1578 206.575 51.1488C207.151 51.1415 207.722 51.0438 208.267 50.8525C208.874 50.6388 209.631 50.3117 210.044 49.9002C210.083 49.8605 210.122 49.8188 210.16 49.7775V56.0522Z" fill="#00828E"/>
<path fill-rule="evenodd" clip-rule="evenodd" d="M94.4587 71.9601C94.5461 72.0481 94.6391 72.1307 94.7326 72.2107H83.2717C83.369 72.1291 83.4643 72.0431 83.5537 71.9537C84.3066 71.2036 84.771 70.1639 84.771 69.0174V36.0779C84.7632 34.944 84.3005 33.9186 83.5557 33.1751C83.4582 33.0791 83.3589 32.9866 83.2534 32.9004H94.7527C94.6472 32.9866 94.5461 33.0791 94.4506 33.1751C93.7058 33.9186 93.2411 34.944 93.2351 36.0779V69.0174C93.2351 70.1671 93.7014 71.2098 94.4587 71.9601Z" fill="#00828E"/>
<path fill-rule="evenodd" clip-rule="evenodd" d="M139.569 72.2107H137.398L111.899 46.4403C111.883 46.4081 111.437 46.632 111.437 46.6476C111.437 46.6476 111.438 69.1707 111.44 69.2313C111.495 70.293 111.948 71.2475 112.652 71.9524C112.743 72.0431 112.839 72.1291 112.936 72.2107H101.889C101.986 72.1291 102.082 72.0431 102.171 71.9537C102.916 71.2098 103.381 70.1844 103.388 69.0489L103.405 32.9004H105.704L131.124 58.5751L131.17 58.623C131.331 58.7828 131.586 58.6871 131.633 58.4955C131.649 58.4792 131.649 58.4635 131.649 58.4313L131.633 36.0779C131.633 35.9466 131.602 35.524 131.601 35.5204C131.536 34.7621 131.27 34.0597 130.854 33.4702C130.85 33.4591 130.842 33.4481 130.833 33.4384C130.71 33.2485 130.57 33.0696 130.42 32.9004H140.783L140.789 32.9054C140.026 33.6684 139.553 34.7218 139.553 35.8864L139.569 72.2107Z" fill="#00828E"/>
<path fill-rule="evenodd" clip-rule="evenodd" d="M262.513 72.2107H260.342L234.843 46.4403C234.828 46.4081 234.38 46.632 234.38 46.6476C234.38 46.6476 234.384 69.1707 234.388 69.2313C234.442 70.293 234.89 71.2475 235.597 71.9524C235.689 72.0431 235.782 72.1291 235.883 72.2107H224.833C224.93 72.1291 225.027 72.0431 225.116 71.9537C225.861 71.2098 226.325 70.1844 226.333 69.0489L226.352 32.9004H228.65L254.067 58.5751L254.114 58.623C254.276 58.7828 254.531 58.6871 254.577 58.4955C254.593 58.4792 254.593 58.4635 254.593 58.4313L254.577 36.0779C254.577 35.9466 254.546 35.524 254.546 35.5204C254.481 34.7621 254.214 34.0597 253.801 33.4702C253.793 33.4591 253.785 33.4481 253.778 33.4384C253.654 33.2485 253.515 33.0696 253.364 32.9004H263.73L263.734 32.9054C262.972 33.6684 262.497 34.7218 262.497 35.8864L262.513 72.2107Z" fill="#00828E"/>
<path fill-rule="evenodd" clip-rule="evenodd" d="M185.396 32.916L168.071 72.2581H164.399C163.424 70.1029 146.722 32.916 146.722 32.916H158.684C158.309 33.5466 158.092 34.2844 158.092 35.0711V35.3589C158.092 35.6065 158.108 35.8522 158.147 36.0933C158.153 36.1293 158.167 36.1946 158.185 36.2736C158.291 36.7056 158.431 37.1282 158.599 37.539L167.672 59.5964C167.751 59.8201 168.085 59.8201 168.183 59.5964L177.808 37.0194C177.89 36.8277 177.936 36.652 177.986 36.4766C177.986 36.4766 178.044 36.2176 178.063 36.0933C178.079 36.0214 178.175 35.3428 178.175 35.0711C178.175 34.2844 177.959 33.5466 177.584 32.916H185.396Z" fill="#00828E"/>
<path fill-rule="evenodd" clip-rule="evenodd" d="M86.6091 86.2172H83.5542V84.4171H91.8734V86.2172H88.8184V93.9636H86.6091V86.2172ZM101.815 84.4171V93.9636H99.6061V90.0495H95.2691V93.9636H93.0598V84.4171H95.2691V88.181H99.6061V84.4171H101.815ZM111.471 92.1907V93.9636H104.079V84.4171H111.294V86.19H106.275V88.2629H110.708V89.9814H106.275V92.1907H111.471ZM121.332 94.1273C119.968 94.1273 118.906 93.7499 118.147 92.9954C117.388 92.2407 117.008 91.1633 117.008 89.7631V84.4171H119.218V89.6813C119.218 91.3905 119.927 92.2453 121.345 92.2453C122.036 92.2453 122.563 92.0383 122.927 91.6247C123.291 91.211 123.473 90.5633 123.473 89.6813V84.4171H125.655V89.7631C125.655 91.1633 125.275 92.2407 124.516 92.9954C123.757 93.7499 122.695 94.1273 121.332 94.1273ZM135.57 92.1635V93.9636H127.223V92.5317L132.46 86.2172H127.332V84.4171H135.365V85.849L130.142 92.1635H135.57ZM143.998 88.9993C144.543 89.1721 144.971 89.4608 145.28 89.8654C145.589 90.27 145.743 90.7679 145.743 91.3587C145.743 92.1952 145.418 92.8385 144.768 93.2886C144.118 93.7386 143.17 93.9636 141.925 93.9636H136.988V84.4171H141.652C142.816 84.4171 143.709 84.6397 144.332 85.0852C144.955 85.5308 145.266 86.1354 145.266 86.899C145.266 87.3628 145.155 87.7765 144.932 88.1401C144.709 88.504 144.398 88.7904 143.998 88.9993ZM139.184 86.0808V88.3312H141.379C141.925 88.3312 142.339 88.2357 142.62 88.0448C142.902 87.8537 143.043 87.5719 143.043 87.1991C143.043 86.8263 142.902 86.5469 142.62 86.3604C142.339 86.1741 141.925 86.0808 141.379 86.0808H139.184ZM141.761 92.2997C142.343 92.2997 142.782 92.2044 143.077 92.0133C143.373 91.8225 143.52 91.5269 143.52 91.1269C143.52 90.3359 142.934 89.9405 141.761 89.9405H139.184V92.2997H141.761ZM154.813 92.1907V93.9636H147.421V84.4171H154.635V86.19H149.617V88.2629H154.049V89.9814H149.617V92.1907H154.813ZM160.05 90.2132L158.768 91.5498V93.9636H156.572V84.4171H158.768V88.8765L162.996 84.4171H165.45L161.495 88.672L165.682 93.9636H163.105L160.05 90.2132ZM170.524 84.4171H172.733V93.9636H170.524V84.4171ZM183.753 84.4171V93.9636H181.939L177.179 88.1675V93.9636H174.997V84.4171H176.824L181.57 90.2132V84.4171H183.753ZM187.994 86.2172H184.939V84.4171H193.258V86.2172H190.203V93.9636H187.994V86.2172ZM201.837 92.1907V93.9636H194.445V84.4171H201.659V86.19H196.64V88.2629H201.073V89.9814H196.64V92.1907H201.837ZM209.678 93.9636L207.837 91.3043H207.728H205.805V93.9636H203.596V84.4171H207.728C208.574 84.4171 209.308 84.5579 209.931 84.8397C210.554 85.1217 211.033 85.5217 211.37 86.0399C211.706 86.5582 211.874 87.1719 211.874 87.8811C211.874 88.5902 211.704 89.2017 211.363 89.7155C211.022 90.2291 210.538 90.6223 209.91 90.895L212.051 93.9636H209.678ZM209.638 87.8811C209.638 87.3447 209.465 86.9332 209.119 86.6468C208.774 86.3604 208.269 86.2172 207.605 86.2172H205.805V89.5449H207.605C208.269 89.5449 208.774 89.3995 209.119 89.1085C209.465 88.8176 209.638 88.4084 209.638 87.8811ZM222.376 84.4171V93.9636H220.562L215.802 88.1675V93.9636H213.62V84.4171H215.447L220.193 90.2132V84.4171H222.376ZM230.927 91.918H226.494L225.649 93.9636H223.385L227.64 84.4171H229.822L234.091 93.9636H231.772L230.927 91.918ZM230.231 90.2404L228.717 86.5854L227.203 90.2404H230.231ZM236.587 86.2172H233.532V84.4171H241.851V86.2172H238.796V93.9636H236.587V86.2172ZM243.037 84.4171H245.247V93.9636H243.037V84.4171ZM252.134 94.1273C251.143 94.1273 250.249 93.9136 249.454 93.4864C248.658 93.059 248.035 92.4703 247.585 91.7202C247.135 90.97 246.91 90.1268 246.91 89.1903C246.91 88.2539 247.135 87.4106 247.585 86.6605C248.035 85.9104 248.658 85.3217 249.454 84.8943C250.249 84.4669 251.143 84.2534 252.134 84.2534C253.125 84.2534 254.016 84.4669 254.807 84.8943C255.598 85.3217 256.22 85.9104 256.675 86.6605C257.13 87.4106 257.357 88.2539 257.357 89.1903C257.357 90.1268 257.13 90.97 256.675 91.7202C256.22 92.4703 255.598 93.059 254.807 93.4864C254.016 93.9136 253.125 94.1273 252.134 94.1273ZM252.134 92.2453C252.697 92.2453 253.206 92.1156 253.661 91.8566C254.116 91.5974 254.473 91.236 254.732 90.7722C254.991 90.3087 255.12 89.7814 255.12 89.1903C255.12 88.5993 254.991 88.072 254.732 87.6083C254.473 87.1445 254.116 86.7832 253.661 86.5241C253.206 86.2649 252.697 86.1354 252.134 86.1354C251.57 86.1354 251.061 86.2649 250.606 86.5241C250.151 86.7832 249.795 87.1445 249.536 87.6083C249.276 88.072 249.147 88.5993 249.147 89.1903C249.147 89.7814 249.276 90.3087 249.536 90.7722C249.795 91.236 250.151 91.5974 250.606 91.8566C251.061 92.1156 251.57 92.2453 252.134 92.2453ZM267.777 84.4171V93.9636H265.963L261.203 88.1675V93.9636H259.021V84.4171H260.848L265.594 90.2132V84.4171H267.777ZM276.328 91.918H271.895L271.05 93.9636H268.786L273.041 84.4171H275.223L279.492 93.9636H277.173L276.328 91.918ZM275.632 90.2404L274.118 86.5854L272.604 90.2404H275.632ZM280.487 84.4171H282.697V92.1635H287.484V93.9636H280.487V84.4171ZM295.721 94.1273C294.966 94.1273 294.236 94.025 293.532 93.8204C292.827 93.6159 292.261 93.3499 291.834 93.0226L292.584 91.3587C292.993 91.6588 293.48 91.8997 294.043 92.0816C294.607 92.2634 295.171 92.3543 295.734 92.3543C296.362 92.3543 296.826 92.2612 297.125 92.0747C297.425 91.8884 297.575 91.6405 297.575 91.3315C297.575 91.1041 297.487 90.9154 297.309 90.7655C297.132 90.6155 296.905 90.495 296.628 90.404C296.35 90.3133 295.975 90.2132 295.503 90.1041C294.775 89.9313 294.18 89.7586 293.716 89.5858C293.252 89.413 292.854 89.1357 292.523 88.7538C292.191 88.3721 292.025 87.8629 292.025 87.2265C292.025 86.6718 292.175 86.1696 292.475 85.7195C292.775 85.2695 293.227 84.9126 293.832 84.6488C294.436 84.3851 295.175 84.2534 296.048 84.2534C296.657 84.2534 297.253 84.3261 297.835 84.4715C298.417 84.6171 298.926 84.8262 299.362 85.0989L298.68 86.7763C297.798 86.2764 296.916 86.0264 296.034 86.0264C295.416 86.0264 294.959 86.1263 294.664 86.3263C294.368 86.5264 294.221 86.79 294.221 87.1173C294.221 87.4446 294.391 87.6879 294.732 87.847C295.073 88.0061 295.593 88.163 296.293 88.3175C297.021 88.4903 297.616 88.663 298.08 88.8356C298.544 89.0084 298.942 89.2813 299.274 89.6541C299.605 90.0269 299.771 90.5313 299.771 91.1679C299.771 91.7134 299.619 92.2111 299.314 92.6612C299.01 93.1112 298.553 93.4681 297.944 93.7319C297.335 93.9954 296.594 94.1273 295.721 94.1273ZM305.854 94.1273C304.881 94.1273 304.001 93.916 303.215 93.4931C302.428 93.0703 301.81 92.4838 301.36 91.7339C300.91 90.9838 300.685 90.1359 300.685 89.1903C300.685 88.2448 300.91 87.3969 301.36 86.6468C301.81 85.8967 302.428 85.3104 303.215 84.8876C304.001 84.4647 304.885 84.2534 305.867 84.2534C306.695 84.2534 307.443 84.3988 308.111 84.6897C308.779 84.9807 309.341 85.399 309.795 85.9445L308.377 87.2537C307.731 86.5082 306.931 86.1354 305.977 86.1354C305.386 86.1354 304.858 86.2649 304.395 86.5241C303.931 86.7832 303.57 87.1445 303.31 87.6083C303.051 88.072 302.922 88.5993 302.922 89.1903C302.922 89.7814 303.051 90.3087 303.31 90.7722C303.57 91.236 303.931 91.5974 304.395 91.8566C304.858 92.1156 305.386 92.2453 305.977 92.2453C306.931 92.2453 307.731 91.8679 308.377 91.1132L309.795 92.4224C309.341 92.9772 308.777 93.4 308.104 93.6909C307.431 93.9819 306.681 94.1273 305.854 94.1273ZM320.037 84.4171V93.9636H317.828V90.0495H313.491V93.9636H311.282V84.4171H313.491V88.181H317.828V84.4171H320.037ZM326.925 94.1273C325.934 94.1273 325.04 93.9136 324.245 93.4864C323.449 93.059 322.826 92.4703 322.376 91.7202C321.926 90.97 321.701 90.1268 321.701 89.1903C321.701 88.2539 321.926 87.4106 322.376 86.6605C322.826 85.9104 323.449 85.3217 324.245 84.8943C325.04 84.4669 325.934 84.2534 326.925 84.2534C327.916 84.2534 328.807 84.4669 329.598 84.8943C330.389 85.3217 331.011 85.9104 331.466 86.6605C331.921 87.4106 332.148 88.2539 332.148 89.1903C332.148 90.1268 331.921 90.97 331.466 91.7202C331.011 92.4703 330.389 93.059 329.598 93.4864C328.807 93.9136 327.916 94.1273 326.925 94.1273ZM326.925 92.2453C327.488 92.2453 327.997 92.1156 328.452 91.8566C328.907 91.5974 329.264 91.236 329.523 90.7722C329.782 90.3087 329.911 89.7814 329.911 89.1903C329.911 88.5993 329.782 88.072 329.523 87.6083C329.264 87.1445 328.907 86.7832 328.452 86.5241C327.997 86.2649 327.488 86.1354 326.925 86.1354C326.361 86.1354 325.852 86.2649 325.397 86.5241C324.942 86.7832 324.586 87.1445 324.327 87.6083C324.067 88.072 323.938 88.5993 323.938 89.1903C323.938 89.7814 324.067 90.3087 324.327 90.7722C324.586 91.236 324.942 91.5974 325.397 91.8566C325.852 92.1156 326.361 92.2453 326.925 92.2453ZM338.435 94.1273C337.444 94.1273 336.551 93.9136 335.755 93.4864C334.96 93.059 334.337 92.4703 333.887 91.7202C333.437 90.97 333.212 90.1268 333.212 89.1903C333.212 88.2539 333.437 87.4106 333.887 86.6605C334.337 85.9104 334.96 85.3217 335.755 84.8943C336.551 84.4669 337.444 84.2534 338.435 84.2534C339.426 84.2534 340.317 84.4669 341.108 84.8943C341.899 85.3217 342.522 85.9104 342.977 86.6605C343.431 87.4106 343.659 88.2539 343.659 89.1903C343.659 90.1268 343.431 90.97 342.977 91.7202C342.522 92.4703 341.899 93.059 341.108 93.4864C340.317 93.9136 339.426 94.1273 338.435 94.1273ZM338.435 92.2453C338.999 92.2453 339.508 92.1156 339.963 91.8566C340.417 91.5974 340.774 91.236 341.033 90.7722C341.292 90.3087 341.422 89.7814 341.422 89.1903C341.422 88.5993 341.292 88.072 341.033 87.6083C340.774 87.1445 340.417 86.7832 339.963 86.5241C339.508 86.2649 338.999 86.1354 338.435 86.1354C337.871 86.1354 337.362 86.2649 336.908 86.5241C336.453 86.7832 336.096 87.1445 335.837 87.6083C335.578 88.072 335.448 88.5993 335.448 89.1903C335.448 89.7814 335.578 90.3087 335.837 90.7722C336.096 91.236 336.453 91.5974 336.908 91.8566C337.362 92.1156 337.871 92.2453 338.435 92.2453ZM345.323 84.4171H347.532V92.1635H352.319V93.9636H345.323V84.4171Z" fill="#00828E"/>
</svg>
