<?xml version="1.0" encoding="UTF-8"?>
<!DOCTYPE svg PUBLIC "-//W3C//DTD SVG 1.1//EN" "http://www.w3.org/Graphics/SVG/1.1/DTD/svg11.dtd">
<!-- Creator: CorelDRAW 2018 (64-Bit) -->
<svg xmlns="http://www.w3.org/2000/svg" xml:space="preserve" width="178.733mm" height="79.526mm" version="1.1" style="shape-rendering:geometricPrecision; text-rendering:geometricPrecision; image-rendering:optimizeQuality; fill-rule:evenodd; clip-rule:evenodd"
viewBox="0 0 17873.3 7952.6"
 xmlns:xlink="http://www.w3.org/1999/xlink">
 <defs>
  <style type="text/css">
   <![CDATA[
    .fil1 {fill:#FEFEFE}
    .fil0 {fill:#00828E}
   ]]>
  </style>
 </defs>
 <g id="Слой_x0020_1">
  <metadata id="CorelCorpID_0Corel-Layer"/>
  <rect class="fil0" x="0" y="-0" width="17873.3" height="7952.6"/>
  <g id="_2729636404832">
   <path class="fil1" d="M4650.79 4655.68c-36.42,45.4 -93,101.09 -168.17,132.5 -78.46,32.79 -161.75,32.46 -219.92,25.69 132.21,-40.82 251.79,-99.14 388.09,-158.19zm-422.38 91.05c35.76,-46.73 95.41,-109.45 176.82,-143.66 74.71,-31 153.51,-32.28 211.08,-26.59 -96.94,40.84 -280.04,118.97 -387.9,170.25zm873.74 827.26l-1873.38 -1.47c-11.79,-17.74 -16.07,-46.12 -16.34,-79.06 4.96,-58.45 4.82,-100.55 11.04,-92.99 24.51,29.39 75.52,78.93 92.86,73.3 461.87,-150.7 760.52,-61.18 760.52,-61.18l4.96 -24.44 68.48 0c-4.95,-63.6 24.5,-102.7 24.5,-102.7 97.75,-9.7 234.78,34.28 366.74,34.28 117.49,-29.39 190.81,-127.14 205.4,-156.52 24.5,-88.11 -34.28,-29.32 -34.28,-29.32 0,24.49 -29.32,48.86 -43.91,39.02 9.7,-4.82 14.59,-24.37 14.59,-29.31 0,-4.9 -9.71,-43.99 -29.39,-4.9 -37.22,79.33 -154.32,65.35 -165.3,63.81 1.62,-0.6 5.3,-5.36 8.84,-34.42 4.96,-39.09 -29.25,-29.39 -29.25,-29.39 0,0 -29.26,34.21 -53.9,29.39 -215.09,-44.05 -239.54,14.66 -239.54,14.66 0,0 -19.61,4.9 -39.15,4.9 -14.74,-24.44 -43.99,-29.27 -53.83,-19.56 4.88,19.56 -34.21,24.5 -53.76,24.5 -49.01,-14.66 -73.3,24.44 -73.3,24.44l-127.21 -4.89c0,0 -68.48,19.56 -88.04,14.6 -78.26,-24.44 -320.4,-17.21 -320.4,-17.21 0,0 -19.62,-24.37 -29.46,-53.62 102.84,-63.6 227.56,-36.62 266.71,-31.87 9.71,-9.84 4.89,-73.44 4.89,-73.44 0,0 91.99,-19.55 116.49,-14.59 9.84,19.55 44.93,48.94 74.32,19.68 29.25,29.26 68.35,4.75 83.14,-29.38 48.81,39.09 87.9,-39.17 87.9,-39.17 29.06,58.17 96.54,-8.58 64.47,-109.79l35.69 -14.87c4.88,6.1 9.98,9.17 13.99,7.84 6.55,-2.07 8.36,-15 5.15,-31.14l54.36 -20.75c8.24,2.34 34.21,4.89 34.21,4.89 2.95,-0.87 5.89,-1.81 8.84,-2.55 23.37,3.55 52.42,6.5 84.76,6.5 49.67,0 106.91,-7.1 161.87,-29.99 84.9,-35.55 146.62,-101.5 183.04,-149.57 11.78,-5.08 23.83,-10.1 35.88,-15.12 29.4,-58.79 -24.3,-83.15 -24.3,-83.15 0,0 -17.6,7.23 -46.4,19.28 -59.65,-7.63 -148.95,-9.7 -233.11,25.5 -92.44,38.49 -157.26,113.15 -192,161.62 -2.68,1.34 -5.35,2.54 -7.83,3.87 -3.95,1.88 -14.67,25.25 -19.68,34.21 -6.5,4.57 -33.07,14.8 -48.06,20.42 -6.77,-13.65 -15.41,-22.02 -21.57,-20.01 -4.28,1.34 -6.49,7.37 -6.76,15.73 -1,0.47 -1.94,1.01 -2.95,1.48 -0.6,-11.18 -8.36,-21.16 -16,-24.98 -34.21,24.51 -92.98,9.85 -92.98,9.85 -38.96,-14.67 -78.2,-14.67 -78.2,-14.67 0,0 -53.76,39.17 -73.31,68.42 -66.34,99.35 -92.98,92.99 -195.68,97.89 -9.65,0.39 -24.51,-29.39 -24.51,-29.39 0,0 -43.91,19.54 -68.35,34.21 -29.46,-4.82 -92.99,14.65 -137.04,14.65 -68.42,5.03 -58.72,-14.65 -68.42,-39.16 19.35,-63.47 6.7,-122.11 -9.3,-209.08 0,-0.14 0,-0.14 0,-0.14 8.36,-110.92 3.07,-211.81 -29.53,-275.88 -4.68,-9.24 -9.97,-17.8 -16,-25.44 0,0 7.97,-9.51 16,-22.77 2.48,-4.08 4.95,-8.5 7.24,-13.11 2.27,-4.55 4.41,-9.31 6.09,-14.2 3.67,-10.57 5.42,-21.29 3.07,-30.73 14.26,-14.32 31.66,-26.38 39.97,-35.21 0.14,-0.19 0.33,-0.34 0.47,-0.47 0,0 0,0 0,-0.06 2.81,-3.01 4.41,-5.7 4.41,-7.84 0,-2 -1.4,-3.69 -4.55,-4.88 -22.43,-8.7 -47.46,-26.31 -74.18,-49.41 0,0 0,-0.07 -0.06,-0.07 -0.13,-0.21 -0.27,-0.27 -0.4,-0.4 -3.76,-3.95 -7.03,-7.63 -9.5,-10.85 3.41,-30.59 23.75,-159.6 57.77,-220.72 61.12,54.29 264.84,285.19 387.08,115.42 20.42,-27.18 47.55,0 47.55,0 0,0 61.11,-81.47 156.24,-33.94 61.13,20.35 33.94,-67.95 54.29,-129.08 20.42,-61.12 74.72,-135.84 135.84,-108.65 54.37,13.59 54.37,-6.77 67.96,-33.94 33.93,-74.72 135.83,-142.6 129,-244.5 -4.55,-68.56 86.23,-131.01 175.07,-141.73 75.31,-9.04 145.47,43.45 153.98,118.77 6.43,56.5 -25.11,88.3 -43.79,97.67 -40.77,33.95 -129.01,-6.82 -74.71,-61.12 0,-20.42 -27.19,-27.17 -33.94,6.76 -6.77,40.77 27.17,142.66 142.59,88.31 115.49,-54.37 163.02,-258.09 -67.87,-366.74 0,0 50.93,-4.95 40.76,-6.83 -149.42,-27.17 -264.91,-325.96 -353.21,-346.38 0,0 -47.54,-183.37 -251.26,-156.19 -60.31,-40.16 -186.84,-100.15 -399.14,22.36 0.81,-5.96 1.14,-11.85 0.81,-17.75 -0.46,-6.09 -1.07,-12.17 -2,-18.13 -0.41,-2.74 -0.95,-5.48 -1.41,-8.17 0.34,-7.77 0.93,-15.47 2.01,-23.16 2.01,-13.92 5.49,-27.59 10.57,-40.84 5.36,-13.12 13.06,-25.17 22.36,-36.56 -11.78,8.65 -22.02,19.89 -29.93,32.81 -5.35,9.37 -9.7,19.41 -13.11,29.72 -3.81,-13.99 -8.24,-27.85 -13.26,-41.37 -4.75,-11.05 -9.04,-22.29 -14.59,-33 -2.62,-5.36 -5.23,-10.78 -8.03,-16.01l-8.98 -15.6 -4.48 -7.76 -5.02 -7.43 -9.98 -14.86c-6.82,-9.78 -14.33,-19.08 -21.62,-28.39l8.77 15.46c2.94,5.16 6.22,10.11 8.83,15.4 5.23,10.64 11.12,20.83 15.74,31.67l7.36 16 6.56 16.34c4.62,10.71 7.97,21.95 11.78,33 7.03,22.23 12.32,44.92 15.93,67.74 0.94,5.43 1.62,10.85 2.15,16.28 -0.26,3.15 -0.67,6.3 -0.81,9.44 -0.06,1.33 0.07,2.67 0,4.08 -5.83,-7.9 -11.91,-15.6 -18.34,-22.9 -15.4,-17.46 -32.53,-33.41 -51.28,-47.06 -18.75,-13.66 -39.23,-24.97 -61.19,-32.27 -21.82,-7.29 -45.12,-10.3 -67.75,-7.7 22.77,-0.66 45.19,4.3 65.68,13.13 20.55,8.9 39.3,21.41 56.03,35.94 16.8,14.6 31.74,31.14 44.92,48.95 8.58,11.58 16.34,23.83 23.23,36.35 -160.07,-10.25 -286.4,14.39 -318.94,157.65 0,0 -122.24,67.96 -115.41,217.38 -74.72,81.48 -27.18,312.38 -20.42,387.09 6.83,74.71 -81.47,183.37 -81.47,183.37 0,0 135.83,-47.53 115.48,108.65 -12.58,56.71 -54.29,130.68 -60.39,141.4 -2.61,-3.08 -5.15,-6.09 -7.83,-9.05 -0.14,-0.12 -0.2,-0.25 -0.33,-0.39 -0.07,-0.19 -0.2,-0.33 -0.33,-0.47 -0.08,-0.07 0,-0.07 -0.08,-0.13 -0.06,-0.14 -0.19,-0.2 -0.27,-0.27 -7.16,-9.84 -18.48,-24.1 -31.19,-35.88 -0.2,-0.2 -0.34,-0.47 -0.53,-0.67 -0.07,0 -0.21,-0.07 -0.27,-0.14 0,-0.07 -0.08,-0.07 -0.08,-0.07l-0.2 -0.19c-67.07,-75.93 -121.24,-126.87 -140.92,-94.2 0,0 40.37,137.31 -40.43,218.11 -42.71,42.66 -112.53,71.83 -161.61,208.34l0 -1004.67c0,-661.51 541.2,-1207.06 1202.7,-1202.97 656.56,4.08 1187.58,537.65 1187.58,1195.27l0 2275.19zm-62.86 -2753.66c-61.86,-146.21 -150.51,-277.7 -263.31,-390.5 -112.8,-112.94 -244.29,-201.52 -390.64,-263.44 -151.56,-64.13 -312.57,-96.61 -478.33,-96.61 -165.96,0 -326.91,32.48 -478.47,96.61 -146.35,61.92 -277.71,150.5 -390.51,263.44 -112.93,112.8 -201.58,244.29 -263.43,390.5 -64.14,151.64 -96.61,312.5 -96.61,478.47l0 2308.88 2457.9 0 0 -2308.88c0,-165.97 -32.47,-326.83 -96.6,-478.47z"/>
   <polygon class="fil1" points="4641.82,5072.69 4651.59,5102.08 4553.78,5160.73 4475.52,5082.47 4587.99,4926.01 4680.98,5043.38 "/>
   <path class="fil1" d="M4650.79 4655.68c-136.3,59.05 -255.88,117.37 -388.09,158.19 18.48,2.15 39.42,3.65 61.92,3.65 48.6,0 104.44,-6.95 158,-29.34 75.17,-31.41 131.75,-87.1 168.17,-132.5l0 0zm-23.76 17.65c-34.29,38.32 -83.89,82.29 -147.02,108.66 -45.72,19.14 -98.01,28.83 -155.39,28.83 -9.23,0 -18.67,-0.25 -28.18,-0.77 90.92,-30.36 176.87,-68.55 267.32,-108.72 20.69,-9.17 41.77,-18.56 63.27,-28z"/>
   <path class="fil1" d="M4563.43 4573.85c-48.55,0 -104.44,6.91 -158.2,29.22 -81.41,34.21 -141.06,96.93 -176.82,143.66 107.86,-51.28 290.96,-129.41 387.9,-170.25 -16.13,-1.6 -33.94,-2.63 -52.88,-2.63l0 0zm0 0l0 6.69c8.16,0 16.39,0.2 24.62,0.59 -82.4,34.89 -232.37,98.98 -336.13,147.18 35.81,-42.1 88.24,-90.64 155.86,-119.06 45.92,-19.06 98.27,-28.71 155.65,-28.71l0 -6.69z"/>
   <path class="fil1" d="M12257.86 3220.73l0 185.79c21.59,-18.74 47.16,-32.94 76.17,-39.2 3.98,-0.56 7.97,-1.7 11.96,-2.26l0.55 0c7.97,-1.14 16.49,-1.72 24.47,-1.72l366.51 -1.69c2.2,0 3.85,0.56 5.08,1.69 0.55,0 0.55,0.58 0.55,0.58 2.2,1.7 3.99,4.53 3.99,7.96l-1.1 1137.47c0,43.75 -16.5,82.97 -43.31,113.07l387 0c-18.7,-21.01 -32.99,-47.16 -39.18,-76.13 -1.1,-3.99 -3.99,-28.98 -3.99,-36.94 0,0 0,-1125.54 0.55,-1130.09l0 -7.38c0,-1.71 0.55,-3.43 1.65,-5.12 0.69,-1.14 1.79,-2.27 2.89,-3.42 1.79,-1.13 3.44,-1.69 5.64,-1.69l364.86 1.69c4.53,0 9.07,0 13.61,0.58 3.43,0 7.42,0.57 10.72,1.14 0.69,0 1.24,0 1.79,0 3.43,0.56 6.73,1.12 10.72,1.7 29.01,6.24 55.13,19.88 76.16,39.2l0 -185.79 -1277.29 0 0 0.56z"/>
   <path class="fil1" d="M14743.15 4393.45c-82.48,115.32 -194.94,172.72 -335.85,172.72 -141.46,0 -252.82,-57.4 -334.62,-172.72 -82.35,-115.35 -123.31,-272.15 -123.31,-471.03 0,-198.28 40.96,-355.67 123.31,-471 81.8,-115.34 193.71,-172.73 334.62,-172.73 140.91,0 253.37,57.39 335.85,172.73 82.9,115.33 123.73,272.72 123.73,471 0,198.3 -40.83,355.68 -123.73,471.03zm239.21 -1002.84c-142.01,-130.67 -333.52,-196.01 -573.82,-196.01 -241,0 -432.37,65.34 -573.97,196.01 -142.01,130.69 -213.08,307.96 -213.08,531.81 0,223.87 71.07,401.13 213.08,531.82 141.6,130.68 332.97,196.01 573.97,196.01 240.3,0 431.81,-65.33 573.82,-196.01 142.01,-130.69 212.95,-307.95 212.95,-531.82 0,-223.85 -70.94,-401.12 -212.95,-531.81z"/>
   <path class="fil1" d="M10134.69 4046.29c-1.38,-1.47 -2.75,-2.95 -4.13,-4.37 -10.17,-10.16 -25.02,-18.88 -39.59,-25.81 -25.85,-12.35 -54.31,-18.25 -83.04,-18.42 -67.22,-0.37 -206.76,-0.84 -206.76,-0.84 -2.89,0.58 -5.23,1.72 -6.88,3.99 -1.09,1.71 -1.64,3.97 -1.64,6.24l0 461.36c0,3.42 1.64,6.27 3.98,7.96 1.1,0.56 2.2,1.14 3.44,1.7 1.1,0.57 1.65,0.57 2.75,0.57l503.44 0c4.67,0 9.21,-0.22 13.74,-0.68 14.71,-1.3 28.87,-4.77 42.07,-10.12 18.97,-7.56 36.02,-18.91 50.18,-33.11l0.27 0.23c6.74,-6.83 12.65,-14.27 17.88,-22.17 0.82,-1.26 1.78,-2.55 2.47,-3.85l-34.64 212.31 -947.08 0c21.59,-23.85 36.3,-53.41 41.52,-86.36 1.65,-8.52 2.2,-17.05 2.2,-26.15l0 -1173.83c0,-9.09 -0.55,-18.18 -2.2,-26.7 -5.08,-32.67 -19.79,-62.06 -41.1,-85.8l958.07 0 0 185.17c-14.44,-13.75 -31.48,-24.6 -50.32,-31.76 -14.43,-5.46 -29.83,-8.74 -45.92,-9.5 -1.1,-0.1 -12.78,-0.73 -17.32,-0.73l-495.6 0c-1.65,0.56 -2.75,1.14 -3.85,2.27 -2.34,1.7 -3.98,4.55 -3.98,7.39l0 487.49c0,1.71 0.55,3.98 1.64,5.68 1.24,1.71 2.89,2.83 5.23,3.41 0.55,0.56 1.65,0.56 2.75,0.56 0,0 179.68,-0.3 204.84,-0.61 20.48,-0.27 40.83,-3.74 60.21,-10.55 21.59,-7.6 48.53,-19.25 63.24,-33.89 1.38,-1.41 2.75,-2.9 4.13,-4.37l0 223.29z"/>
   <path class="fil1" d="M6017.49 4612.36c3.11,3.14 6.42,6.08 9.75,8.92l-407.84 0c3.46,-2.9 6.86,-5.96 10.04,-9.14 26.79,-26.7 43.32,-63.69 43.32,-104.49l0 -1172.14c-0.28,-40.35 -16.75,-76.83 -43.25,-103.3 -3.47,-3.41 -7,-6.7 -10.76,-9.77l409.2 0c-3.75,3.07 -7.35,6.36 -10.75,9.77 -26.51,26.47 -43.04,62.95 -43.25,103.3l0 1172.14c0,40.91 16.59,78.01 43.54,104.71z"/>
   <path class="fil1" d="M7622.74 4621.28l-77.26 0 -907.37 -917.03c-0.58,-1.14 -16.45,6.82 -16.45,7.38 0,0 0.06,801.47 0.13,803.63 1.96,37.78 18.05,71.75 43.11,96.83 3.25,3.23 6.64,6.29 10.11,9.19l-393.1 0c3.46,-2.9 6.86,-5.96 10.04,-9.14 26.5,-26.48 43.04,-62.96 43.32,-103.37l0.59 -1286.33 81.79 0 904.57 913.62 1.65 1.71c5.7,5.69 14.8,2.28 16.47,-4.54 0.57,-0.58 0.57,-1.14 0.57,-2.28l-0.57 -795.44c0,-4.67 -1.09,-19.71 -1.16,-19.84 -2.31,-26.98 -11.76,-51.97 -26.57,-72.95 -0.14,-0.4 -0.43,-0.79 -0.73,-1.13 -4.4,-6.76 -9.38,-13.13 -14.72,-19.15l368.76 0 0.22 0.18c-27.15,27.15 -43.98,64.64 -43.98,106.07l0.58 1292.59z"/>
   <path class="fil1" d="M11997.62 4621.28l-77.26 0 -907.34 -917.03c-0.55,-1.14 -16.5,6.82 -16.5,7.38 0,0 0.14,801.47 0.28,803.63 1.92,37.78 17.87,71.75 43.03,96.83 3.3,3.23 6.6,6.29 10.17,9.19l-393.18 0c3.44,-2.9 6.87,-5.96 10.04,-9.14 26.53,-26.48 43.02,-62.96 43.3,-103.37l0.69 -1286.33 81.8 0 904.45 913.62 1.65 1.71c5.77,5.69 14.85,2.28 16.5,-4.54 0.55,-0.58 0.55,-1.14 0.55,-2.28l-0.55 -795.44c0,-4.67 -1.1,-19.71 -1.1,-19.84 -2.34,-26.98 -11.83,-51.97 -26.54,-72.95 -0.27,-0.4 -0.55,-0.79 -0.82,-1.13 -4.4,-6.76 -9.35,-13.13 -14.71,-19.15l368.85 0 0.13 0.18c-27.08,27.15 -43.99,64.64 -43.99,106.07l0.55 1292.59z"/>
   <path class="fil1" d="M9253.47 3223.02l-616.49 1399.97 -130.7 0c-34.67,-76.7 -629,-1399.97 -629,-1399.97l425.66 0c-13.36,22.43 -21.09,48.69 -21.09,76.68l0 10.24c0,8.81 0.58,17.56 1.96,26.14 0.22,1.27 0.71,3.6 1.37,6.42 3.75,15.37 8.73,30.41 14.72,45.02l322.85 784.91c2.82,7.96 14.73,7.96 18.2,0l342.51 -803.4c2.89,-6.82 4.54,-13.07 6.33,-19.31 0,0 2.06,-9.22 2.75,-13.64 0.55,-2.56 3.98,-26.71 3.98,-36.38 0,-27.99 -7.69,-54.25 -21.03,-76.68l277.98 0z"/>
   <path class="fil1" d="M5738.15 5119.73l-108.71 0 0 -64.06 296.03 0 0 64.06 -108.71 0 0 275.65 -78.61 0 0 -275.65zm541.1 -64.06l0 339.71 -78.61 0 0 -139.28 -154.33 0 0 139.28 -78.62 0 0 -339.71 78.62 0 0 133.94 154.33 0 0 -133.94 78.61 0zm343.6 276.62l0 63.09 -263.03 0 0 -339.71 256.72 0 0 63.09 -178.59 0 0 73.76 157.73 0 0 61.15 -157.73 0 0 78.62 184.9 0zm350.88 68.91c-48.53,0 -86.31,-13.43 -113.33,-40.27 -27.01,-26.86 -40.51,-65.2 -40.51,-115.02l0 -190.24 78.61 0 0 187.32c0,60.83 25.24,91.24 75.71,91.24 24.59,0 43.36,-7.36 56.3,-22.08 12.94,-14.72 19.41,-37.77 19.41,-69.16l0 -187.32 77.65 0 0 190.24c0,49.82 -13.51,88.16 -40.52,115.02 -27.02,26.84 -64.8,40.27 -113.32,40.27zm506.65 -69.88l0 64.06 -297.01 0 0 -50.96 186.36 -224.69 -182.47 0 0 -64.06 285.84 0 0 50.95 -185.87 224.7 193.15 0zm299.92 -112.6c19.41,6.15 34.62,16.43 45.62,30.83 11,14.39 16.5,32.11 16.5,53.13 0,29.77 -11.57,52.66 -34.7,68.68 -23.13,16.01 -56.86,24.02 -101.18,24.02l-175.68 0 0 -339.71 165.97 0c41.41,0 73.2,7.92 95.36,23.77 22.17,15.86 33.25,37.37 33.25,64.55 0,16.5 -3.97,31.22 -11.9,44.16 -7.92,12.95 -19,23.14 -33.24,30.57zm-171.31 -103.85l0 80.08 78.13 0c19.42,0 34.14,-3.4 44.17,-10.19 10.02,-6.8 15.04,-16.83 15.04,-30.09 0,-13.27 -5.02,-23.21 -15.04,-29.85 -10.03,-6.63 -24.75,-9.95 -44.17,-9.95l-78.13 0zm91.72 221.3c20.71,0 36.31,-3.39 46.83,-10.19 10.52,-6.79 15.78,-17.31 15.78,-31.54 0,-28.15 -20.87,-42.22 -62.61,-42.22l-91.72 0 0 83.95 91.72 0zm464.44 -3.88l0 63.09 -263.03 0 0 -339.71 256.72 0 0 63.09 -178.59 0 0 73.76 157.72 0 0 61.15 -157.72 0 0 78.62 184.9 0zm186.35 -70.37l-45.61 47.56 0 85.9 -78.13 0 0 -339.71 78.13 0 0 158.69 150.44 -158.69 87.36 0 -140.74 151.41 148.98 188.3 -91.72 0 -108.71 -133.46zm372.72 -206.25l78.62 0 0 339.71 -78.62 0 0 -339.71zm470.74 0l0 339.71 -64.55 0 -169.37 -206.25 0 206.25 -77.64 0 0 -339.71 65.02 0 168.89 206.25 0 -206.25 77.65 0zm150.93 64.06l-108.71 0 0 -64.06 296.04 0 0 64.06 -108.71 0 0 275.65 -78.62 0 0 -275.65zm492.58 212.56l0 63.09 -263.03 0 0 -339.71 256.72 0 0 63.09 -178.59 0 0 73.76 157.73 0 0 61.15 -157.73 0 0 78.62 184.9 0zm279.05 63.09l-65.51 -94.63 -3.89 0 -68.42 0 0 94.63 -78.62 0 0 -339.71 147.04 0c30.09,0 56.21,5.01 78.38,15.04 22.16,10.03 39.23,24.27 51.2,42.71 11.97,18.44 17.96,40.28 17.96,65.52 0,25.23 -6.07,46.99 -18.2,65.27 -12.13,18.28 -29.36,32.27 -51.69,41.97l76.19 109.2 -84.44 0zm-1.45 -216.44c0,-19.09 -6.15,-33.74 -18.45,-43.93 -12.29,-10.19 -30.25,-15.28 -53.87,-15.28l-64.05 0 0 118.41 64.05 0c23.62,0 41.58,-5.17 53.87,-15.53 12.3,-10.35 18.45,-24.91 18.45,-43.67zm453.27 -123.27l0 339.71 -64.54 0 -169.37 -206.25 0 206.25 -77.65 0 0 -339.71 65.03 0 168.88 206.25 0 -206.25 77.65 0zm304.29 266.92l-157.72 0 -30.09 72.79 -80.56 0 151.41 -339.71 77.65 0 151.9 339.71 -82.5 0 -30.09 -72.79zm-24.75 -59.7l-53.87 -130.06 -53.87 130.06 107.74 0zm226.15 -143.16l-108.7 0 0 -64.06 296.03 0 0 64.06 -108.71 0 0 275.65 -78.62 0 0 -275.65zm229.55 -64.06l78.62 0 0 339.71 -78.62 0 0 -339.71zm323.69 345.53c-35.27,0 -67.05,-7.6 -95.36,-22.8 -28.31,-15.21 -50.47,-36.16 -66.49,-62.85 -16.01,-26.7 -24.02,-56.7 -24.02,-90.03 0,-33.32 8.01,-63.33 24.02,-90.02 16.02,-26.69 38.18,-47.64 66.49,-62.85 28.31,-15.21 60.09,-22.81 95.36,-22.81 35.26,0 66.98,7.6 95.12,22.81 28.15,15.21 50.31,36.16 66.49,62.85 16.17,26.69 24.27,56.7 24.27,90.02 0,33.33 -8.1,63.33 -24.27,90.03 -16.18,26.69 -38.34,47.64 -66.49,62.85 -28.14,15.2 -59.86,22.8 -95.12,22.8zm0 -66.97c20.06,0 38.18,-4.61 54.35,-13.83 16.18,-9.22 28.88,-22.08 38.1,-38.59 9.22,-16.49 13.83,-35.25 13.83,-56.29 0,-21.03 -4.61,-39.79 -13.83,-56.29 -9.22,-16.51 -21.92,-29.36 -38.1,-38.58 -16.17,-9.23 -34.29,-13.84 -54.35,-13.84 -20.06,0 -38.18,4.61 -54.36,13.84 -16.17,9.22 -28.87,22.07 -38.09,38.58 -9.22,16.5 -13.83,35.26 -13.83,56.29 0,21.04 4.61,39.8 13.83,56.29 9.22,16.51 21.92,29.37 38.09,38.59 16.18,9.22 34.3,13.83 54.36,13.83zm556.65 -278.56l0 339.71 -64.55 0 -169.37 -206.25 0 206.25 -77.64 0 0 -339.71 65.02 0 168.89 206.25 0 -206.25 77.65 0zm304.29 266.92l-157.72 0 -30.1 72.79 -80.56 0 151.42 -339.71 77.65 0 151.9 339.71 -82.51 0 -30.08 -72.79zm-24.75 -59.7l-53.87 -130.06 -53.87 130.06 107.74 0zm172.76 -207.22l78.62 0 0 275.65 170.34 0 0 64.06 -248.96 0 0 -339.71zm542.08 345.53c-26.85,0 -52.81,-3.64 -77.89,-10.92 -25.07,-7.28 -45.22,-16.74 -60.42,-28.39l26.7 -59.21c14.55,10.68 31.86,19.26 51.92,25.73 20.06,6.47 40.12,9.7 60.18,9.7 22.32,0 38.82,-3.31 49.5,-9.95 10.67,-6.63 16.01,-15.45 16.01,-26.44 0,-8.1 -3.15,-14.81 -9.46,-20.15 -6.31,-5.33 -14.4,-9.62 -24.26,-12.86 -9.87,-3.23 -23.22,-6.79 -40.04,-10.67 -25.89,-6.15 -47.08,-12.3 -63.58,-18.45 -16.5,-6.14 -30.66,-16.01 -42.46,-29.6 -11.81,-13.58 -17.72,-31.7 -17.72,-54.35 0,-19.74 5.34,-37.61 16.02,-53.62 10.68,-16.02 26.77,-28.72 48.29,-38.1 21.51,-9.39 47.8,-14.08 78.86,-14.08 21.68,0 42.87,2.59 63.57,7.76 20.71,5.19 38.83,12.63 54.36,22.33l-24.26 59.69c-31.39,-17.79 -62.78,-26.69 -94.15,-26.69 -22,0 -38.27,3.56 -48.78,10.68 -10.51,7.12 -15.77,16.5 -15.77,28.15 0,11.64 6.06,20.3 18.2,25.96 12.13,5.66 30.65,11.24 55.56,16.74 25.89,6.15 47.08,12.3 63.58,18.44 16.5,6.15 30.66,15.86 42.47,29.13 11.81,13.26 17.71,31.21 17.71,53.86 0,19.42 -5.42,37.13 -16.26,53.14 -10.84,16.02 -27.09,28.72 -48.78,38.1 -21.67,9.38 -48.04,14.07 -79.1,14.07zm360.59 0c-34.63,0 -65.93,-7.52 -93.91,-22.56 -27.99,-15.05 -49.99,-35.92 -66,-62.61 -16.02,-26.69 -24.03,-56.86 -24.03,-90.51 0,-33.64 8.01,-63.81 24.03,-90.51 16.01,-26.69 38.01,-47.55 66,-62.6 27.98,-15.05 59.45,-22.57 94.39,-22.57 29.44,0 56.06,5.18 79.83,15.53 23.78,10.36 43.76,25.24 59.94,44.65l-50.48 46.59c-22.97,-26.53 -51.44,-39.8 -85.41,-39.8 -21.03,0 -39.79,4.61 -56.29,13.84 -16.51,9.22 -29.36,22.07 -38.58,38.58 -9.23,16.5 -13.83,35.26 -13.83,56.29 0,21.04 4.6,39.8 13.83,56.29 9.22,16.51 22.07,29.37 38.58,38.59 16.5,9.22 35.26,13.83 56.29,13.83 33.97,0 62.44,-13.43 85.41,-40.28l50.48 46.59c-16.18,19.74 -36.24,34.78 -60.18,45.14 -23.94,10.35 -50.63,15.52 -80.07,15.52zm504.71 -345.53l0 339.71 -78.62 0 0 -139.28 -154.33 0 0 139.28 -78.61 0 0 -339.71 78.61 0 0 133.94 154.33 0 0 -133.94 78.62 0zm245.08 345.53c-35.27,0 -67.05,-7.6 -95.36,-22.8 -28.31,-15.21 -50.48,-36.16 -66.49,-62.85 -16.02,-26.7 -24.02,-56.7 -24.02,-90.03 0,-33.32 8,-63.33 24.02,-90.02 16.01,-26.69 38.18,-47.64 66.49,-62.85 28.31,-15.21 60.09,-22.81 95.36,-22.81 35.26,0 66.97,7.6 95.12,22.81 28.14,15.21 50.31,36.16 66.48,62.85 16.18,26.69 24.27,56.7 24.27,90.02 0,33.33 -8.09,63.33 -24.27,90.03 -16.17,26.69 -38.34,47.64 -66.48,62.85 -28.15,15.2 -59.86,22.8 -95.12,22.8zm0 -66.97c20.06,0 38.17,-4.61 54.35,-13.83 16.18,-9.22 28.88,-22.08 38.1,-38.59 9.22,-16.49 13.83,-35.25 13.83,-56.29 0,-21.03 -4.61,-39.79 -13.83,-56.29 -9.22,-16.51 -21.92,-29.36 -38.1,-38.58 -16.18,-9.23 -34.29,-13.84 -54.35,-13.84 -20.06,0 -38.18,4.61 -54.36,13.84 -16.17,9.22 -28.87,22.07 -38.09,38.58 -9.22,16.5 -13.83,35.26 -13.83,56.29 0,21.04 4.61,39.8 13.83,56.29 9.22,16.51 21.92,29.37 38.09,38.59 16.18,9.22 34.3,13.83 54.36,13.83zm409.6 66.97c-35.27,0 -67.05,-7.6 -95.36,-22.8 -28.31,-15.21 -50.48,-36.16 -66.49,-62.85 -16.02,-26.7 -24.02,-56.7 -24.02,-90.03 0,-33.32 8,-63.33 24.02,-90.02 16.01,-26.69 38.18,-47.64 66.49,-62.85 28.31,-15.21 60.09,-22.81 95.36,-22.81 35.26,0 66.97,7.6 95.11,22.81 28.15,15.21 50.32,36.16 66.49,62.85 16.18,26.69 24.27,56.7 24.27,90.02 0,33.33 -8.09,63.33 -24.27,90.03 -16.17,26.69 -38.34,47.64 -66.49,62.85 -28.14,15.2 -59.85,22.8 -95.11,22.8zm0 -66.97c20.06,0 38.17,-4.61 54.35,-13.83 16.18,-9.22 28.88,-22.08 38.1,-38.59 9.22,-16.49 13.83,-35.25 13.83,-56.29 0,-21.03 -4.61,-39.79 -13.83,-56.29 -9.22,-16.51 -21.92,-29.36 -38.1,-38.58 -16.18,-9.23 -34.29,-13.84 -54.35,-13.84 -20.06,0 -38.18,4.61 -54.36,13.84 -16.18,9.22 -28.87,22.07 -38.09,38.58 -9.22,16.5 -13.83,35.26 -13.83,56.29 0,21.04 4.61,39.8 13.83,56.29 9.22,16.51 21.91,29.37 38.09,38.59 16.18,9.22 34.3,13.83 54.36,13.83zm245.08 -278.56l78.62 0 0 275.65 170.34 0 0 64.06 -248.96 0 0 -339.71z"/>
  </g>
 </g>
</svg>
