<svg width="30" height="30" viewBox="0 0 30 30" fill="none" xmlns="http://www.w3.org/2000/svg">
<path fill-rule="evenodd" clip-rule="evenodd" d="M7.74193 16.9355C9.3299 16.9355 10.6451 15.4323 10.6451 13.5484C10.6451 11.6644 9.3299 10.1613 7.74193 10.1613C6.15396 10.1613 4.83871 11.6644 4.83871 13.5484C4.83871 15.4323 6.15396 16.9355 7.74193 16.9355ZM7.74193 17.9032C5.58862 17.9032 3.87096 15.9402 3.87096 13.5484C3.87096 11.1566 5.58862 9.19355 7.74193 9.19355C9.89521 9.19355 11.6129 11.1566 11.6129 13.5484C11.6129 15.9402 9.89521 17.9032 7.74193 17.9032ZM0.966513 27.5945C0.973343 27.6903 1.02308 27.8719 1.14421 28.0503C1.34813 28.3506 1.69045 28.5313 2.26742 28.5313H13.7617L13.8775 28.5454C13.9602 28.5562 14.0609 28.5452 14.148 28.4974C14.362 28.3799 14.5161 28.0501 14.5161 27.3502V26.3263C14.5161 23.7636 14.5161 23.7636 14.5211 22.9787C14.5117 22.914 14.4692 22.7666 14.3717 22.5632C14.1998 22.2048 13.9283 21.8415 13.5325 21.497C12.4059 20.5165 10.5358 19.8956 7.73272 19.8422C4.84106 19.7871 2.95006 20.372 1.84552 21.3553C1.49273 21.6693 1.25025 22.0004 1.09626 22.327C1.02085 22.4869 0.982183 22.6084 0.967733 22.6753L0.966513 27.5945ZM2.26742 29.499C1.37031 29.499 0.727933 29.1599 0.343587 28.5939C0.111755 28.2525 0.019121 27.9142 0 27.629V22.6328L0.00504801 22.5631C0.080022 22.0482 0.418837 21.3296 1.20207 20.6324C2.50428 19.4732 4.63164 18.8152 7.75115 18.8746C10.7677 18.9321 12.8563 19.6256 14.1678 20.767C15.0287 21.5162 15.399 22.2884 15.4839 22.9094V27.3502C15.4839 28.3743 15.1736 29.0383 14.6137 29.3457C14.3183 29.5079 14.0152 29.541 13.7426 29.5029C13.7365 29.5019 9.91141 29.5006 2.26742 29.499ZM28.4455 7.30098C28.4455 8.45245 27.511 9.38698 26.3595 9.38698H25.3165V11.473L22.5349 9.38698H18.0156C16.8641 9.38698 15.9296 8.45245 15.9296 7.30098V3.12899C15.9296 1.97752 16.8641 1.043 18.0156 1.043H26.3595C27.511 1.043 28.4455 1.97752 28.4455 3.12899V7.30098ZM26.3595 0H18.0156C16.2873 0 14.8866 1.40075 14.8866 3.12899V7.30098C14.8866 9.02923 16.2873 10.43 18.0156 10.43H22.4473L26.3595 13.559V10.43C28.0878 10.43 29.4885 9.02923 29.4885 7.30098V3.12899C29.4885 1.40075 28.0878 0 26.3595 0ZM16.9726 14.602V12.516H15.9296C15.1212 12.516 14.4276 12.0508 14.0814 11.377C13.9416 11.2842 13.8436 11.1319 13.8436 10.9504V3.94044C13.2084 4.51409 12.8006 5.33493 12.8006 6.25798V10.43C12.8006 12.1572 14.2013 13.559 15.9296 13.559V16.688L19.8408 13.559H22.1875V12.516H19.7542L16.9726 14.602Z" fill="#EFDF00"/>
</svg>
