<svg width="30" height="30" viewBox="0 0 30 30" fill="none" xmlns="http://www.w3.org/2000/svg">
<path d="M14.9 0H15.2C23.4 0 30 6.6 30 14.9V15.2C30 23.4 23.4 30 15.1 30H14.8C6.6 30 0 23.4 0 15.1V14.8C0 6.6 6.6 0 14.9 0Z" fill="#FF0002"/>
<mask id="mask0" style="mask-type:alpha" maskUnits="userSpaceOnUse" x="5" y="8" width="20" height="14">
<path d="M13.0004 17.5V12.1L18.2004 14.8L13.0004 17.5ZM24.4004 11.2C24.4004 11.2 24.2004 9.90005 23.6004 9.30005C22.9004 8.50005 22.1004 8.50005 21.7004 8.50005C19.0004 8.30005 15.0004 8.30005 15.0004 8.30005C15.0004 8.30005 11.0004 8.30005 8.30039 8.50005C7.90039 8.50005 7.10039 8.50005 6.40039 9.30005C5.80039 9.90005 5.60039 11.2 5.60039 11.2C5.60039 11.2 5.40039 12.7 5.40039 14.3V15.8C5.40039 17.4 5.60039 18.9 5.60039 18.9C5.60039 18.9 5.80039 20.2 6.40039 20.8C7.10039 21.6 8.10039 21.5 8.50039 21.6C10.0004 21.7 15.0004 21.8 15.0004 21.8C15.0004 21.8 19.0004 21.8 21.7004 21.6C22.1004 21.6 22.9004 21.6 23.6004 20.8C24.2004 20.2 24.4004 18.9 24.4004 18.9C24.4004 18.9 24.6004 17.3 24.6004 15.8V14.3C24.6004 12.7 24.4004 11.2 24.4004 11.2Z" fill="white"/>
</mask>
<g mask="url(#mask0)">
<path d="M13.0004 17.5V12.1L18.2004 14.8L13.0004 17.5ZM24.4004 11.2C24.4004 11.2 24.2004 9.90005 23.6004 9.30005C22.9004 8.50005 22.1004 8.50005 21.7004 8.50005C19.0004 8.30005 15.0004 8.30005 15.0004 8.30005C15.0004 8.30005 11.0004 8.30005 8.30039 8.50005C7.90039 8.50005 7.10039 8.50005 6.40039 9.30005C5.80039 9.90005 5.60039 11.2 5.60039 11.2C5.60039 11.2 5.40039 12.7 5.40039 14.3V15.8C5.40039 17.4 5.60039 18.9 5.60039 18.9C5.60039 18.9 5.80039 20.2 6.40039 20.8C7.10039 21.6 8.10039 21.5 8.50039 21.6C10.0004 21.7 15.0004 21.8 15.0004 21.8C15.0004 21.8 19.0004 21.8 21.7004 21.6C22.1004 21.6 22.9004 21.6 23.6004 20.8C24.2004 20.2 24.4004 18.9 24.4004 18.9C24.4004 18.9 24.6004 17.3 24.6004 15.8V14.3C24.6004 12.7 24.4004 11.2 24.4004 11.2Z" fill="white"/>
</g>
</svg>
