<svg width="30" height="30" viewBox="0 0 30 30" fill="none" xmlns="http://www.w3.org/2000/svg">
<path fill-rule="evenodd" clip-rule="evenodd" d="M10.4 0H19.6C28 0 30 2 30 10.4V19.6C30 28 28 30 19.6 30H10.4C2 30 0 28 0 19.6V10.4C0 2 2 0 10.4 0Z" fill="#5181B8"/>
<path fill-rule="evenodd" clip-rule="evenodd" d="M24.568 10.3352C24.707 9.87187 24.568 9.53125 23.9062 9.53125H21.7187C21.1625 9.53125 20.9062 9.82578 20.7672 10.15C20.7672 10.15 19.6547 12.8617 18.0789 14.6227C17.5687 15.1328 17.3375 15.2945 17.0594 15.2945C16.9203 15.2945 16.7187 15.1328 16.7187 14.6687V10.3352C16.7187 9.77891 16.557 9.53125 16.0937 9.53125H12.6562C12.3086 9.53125 12.1 9.78906 12.1 10.0344C12.1 10.5617 12.8875 10.6828 12.9687 12.1664V15.3875C12.9687 16.0937 12.8414 16.2219 12.5633 16.2219C11.8219 16.2219 10.018 13.4984 8.94766 10.382C8.73828 9.77578 8.52812 9.53125 7.96875 9.53125H5.78125C5.15625 9.53125 5.03125 9.82578 5.03125 10.15C5.03125 10.7297 5.77266 13.6031 8.48437 17.4039C10.2922 19.9992 12.8391 21.4062 15.1562 21.4062C16.5469 21.4062 16.7187 21.0937 16.7187 20.5555V18.5937C16.7187 17.9687 16.8508 17.8437 17.2906 17.8437C17.6156 17.8437 18.1711 18.0062 19.4695 19.2578C20.9523 20.7406 21.1969 21.4062 22.0312 21.4062H24.2187C24.8437 21.4062 25.1562 21.0937 24.9758 20.4773C24.7789 19.8625 24.0703 18.9703 23.1312 17.9133C22.6211 17.3109 21.8562 16.6625 21.6242 16.3375C21.3 15.9203 21.393 15.7352 21.6242 15.3641C21.6242 15.3641 24.2898 11.6102 24.568 10.3352Z" fill="white"/>
</svg>
