<svg width="28" height="28" viewBox="0 0 28 28" fill="none" xmlns="http://www.w3.org/2000/svg">
<path d="M16.1176 23.6471C19.8824 22.9804 22.5882 20.4314 23.451 16.6275H18.9412C18.3137 17.6863 17.2941 18.5882 16.1176 19.1373V23.6471ZM25.0588 15.2941C24.5098 20.9804 20.4314 24.902 14.7059 25.2157V18.1569C16.1961 17.8824 17.6078 16.7059 18.0392 15.2941H25.0588ZM11.9216 23.6471V19.1373C10.7059 18.6275 9.6863 17.7255 9.0588 16.6275H4.5098C5.37255 20.3922 8.07843 22.9804 11.9216 23.6471ZM19.1373 12.6275H23.6471C23.098 7.45098 19.3333 4.15686 14 4.15686C8.62745 4.15686 4.82353 7.45098 4.27451 12.6275H8.86275C9.451 11.0588 10.9412 10.4314 14 10.4314C17.0588 10.4314 18.549 11.0588 19.1373 12.6275ZM13.3333 25.2157C7.52941 24.9412 3.41176 21.0588 2.86275 15.2941H9.9608C10.3922 16.7059 11.8039 17.8824 13.3333 18.1569V25.2157ZM14 11.7647C10.9804 11.7647 10.1176 12.2353 9.8824 13.9608H2.78431C2.78431 7.37255 7.37255 2.78431 14 2.78431C20.549 2.78431 25.1373 7.37255 25.1373 13.9608H18.1176C17.8824 12.2353 17.0196 11.7647 14 11.7647ZM14 26.5882C21.5686 26.5882 26.549 21.5686 26.549 13.9608C26.549 6.39216 21.5686 1.41176 14 1.41176C6.43137 1.41176 1.45098 6.39216 1.45098 13.9608C1.45098 21.6078 6.43137 26.5882 14 26.5882ZM0 13.9608C0 5.56863 5.60784 0 14 0C22.4706 0 28 5.52941 28 13.9608C28 22.4314 22.4314 28 14 28C5.56863 28 0 22.3922 0 13.9608Z" fill="#EFDF00"/>
</svg>
