<svg width="30" height="30" viewBox="0 0 30 30" fill="none" xmlns="http://www.w3.org/2000/svg">
<path d="M14.9 0H15.2C23.4 0 30 6.6 30 14.9V15.2C30 23.4 23.4 30 15.1 30H14.8C6.6 30 0 23.4 0 15.1V14.8C0 6.6 6.6 0 14.9 0Z" fill="#4267B2"/>
<path d="M21.9992 7.19995H7.99922C7.49922 7.19995 7.19922 7.49995 7.19922 7.99995V22C7.19922 22.4 7.49922 22.9 8.09922 22.9H15.5992V16.8H13.5992V14.4H15.5992V12.7C15.5992 10.7 16.7992 9.59995 18.5992 9.59995C19.1992 9.59995 19.7992 9.59995 20.3992 9.69995V11.8H19.1992C18.1992 11.8 17.9992 12.2 17.9992 12.9V14.4H20.2992L19.9992 16.7H17.9992V22.8H21.9992C22.3992 22.8 22.8992 22.5 22.8992 21.9V7.99995C22.7992 7.49995 22.4992 7.19995 21.9992 7.19995Z" fill="white"/>
</svg>
