<svg width="24" height="10" viewBox="0 0 24 10" fill="none" xmlns="http://www.w3.org/2000/svg">
<path d="M7.02499 1.16728C4.77379 1.16728 4.34899 1.34968 2.40179 3.08328C1.24659 4.08728 1.12499 4.36088 1.12499 5.91208C1.12499 6.67288 1.39859 7.06808 1.97699 7.18968L2.55459 7.31128L2.34179 8.31528L1.91539 8.22408C0.606594 7.95048 0.0585938 7.28088 0.0585938 6.00328V5.85128C0.0585938 3.96568 0.211394 3.63048 1.64099 2.35288C3.79939 0.43688 4.49939 0.13208 7.02419 0.13208H10.037C12.6226 0.13208 13.8394 0.40568 15.5418 1.34888L18.6138 3.05208L20.9562 3.41688C22.9026 3.72088 23.9386 4.72488 23.9386 6.33688C23.9386 7.09768 23.7258 7.76648 23.329 8.31368L22.4786 7.70568C22.7818 7.24968 22.873 6.91448 22.873 6.33688C22.873 5.24168 22.0834 4.60328 20.4714 4.36008L18.129 4.02568L15.057 2.29208C13.4146 1.34888 12.593 1.16648 10.0378 1.16648L7.02499 1.16728ZM17.4594 7.73848C17.4594 6.52168 18.3722 5.60888 19.6178 5.60888C20.865 5.60888 21.7778 6.52168 21.7778 7.73848C21.7778 8.95528 20.865 9.86808 19.6178 9.86808C18.7674 9.86808 18.0666 9.44248 17.7018 8.77288H7.36019C6.99539 9.44168 6.29459 9.86808 5.44419 9.86808C4.19699 9.86808 3.28419 8.95528 3.28419 7.73848C3.28419 6.52168 4.19699 5.60888 5.44419 5.60888C6.69139 5.60888 7.60259 6.52168 7.60259 7.73848H17.4594ZM5.44419 6.61208C4.74499 6.61208 4.28819 7.06808 4.28819 7.73768C4.28819 8.40648 4.74419 8.86328 5.44419 8.86328C6.14419 8.86328 6.60019 8.40728 6.60019 7.73768C6.60019 7.06808 6.14339 6.61208 5.44419 6.61208ZM19.6178 6.61208C18.9186 6.61208 18.4634 7.06808 18.4634 7.73768C18.4634 8.40648 18.9186 8.86328 19.6178 8.86328C20.3186 8.86328 20.7738 8.40728 20.7738 7.73768C20.7738 7.06808 20.3186 6.61208 19.6178 6.61208Z" fill="white"/>
</svg>
