<svg width="22" height="23" viewBox="0 0 22 23" fill="none" xmlns="http://www.w3.org/2000/svg">
<path d="M21.7515 7.89256L20.4623 8.35199C19.2829 4.62856 16.0189 2.09827 11.548 2.09827C7.5709 2.09827 4.7389 3.90856 3.12748 7.1657C4.14233 6.67199 4.93776 6.24685 6.15148 5.68456L6.64519 6.90513C4.93776 7.62513 4.04633 8.05713 2.23605 8.77713L1.18005 8.3177C0.905557 6.70216 0.761094 5.0672 0.748047 3.42856L2.03033 3.35999C2.03033 4.73142 2.03033 5.49942 2.0989 6.39085C2.95343 4.63722 4.30328 3.17257 5.98149 2.17807C7.65971 1.18358 9.59264 0.702871 11.5412 0.795416C16.6498 0.815988 20.3663 3.67542 21.7515 7.89256ZM0.748047 15.5931L2.03033 15.1337C3.21662 18.8503 6.47376 21.3874 10.9446 21.3874C14.9286 21.3874 17.7606 19.5771 19.372 16.32C18.3503 16.8137 17.5618 17.2388 16.3412 17.8011L15.8475 16.5806C17.5618 15.8537 18.4532 15.4286 20.2635 14.7017L21.3126 15.168C21.5872 16.7881 21.7317 18.4277 21.7446 20.0708L20.4555 20.1326C20.4555 18.7611 20.4555 17.9931 20.3938 17.1086C19.5388 18.8633 18.1878 20.3287 16.5083 21.3233C14.8287 22.3178 12.8943 22.7979 10.9446 22.704C5.85662 22.6697 2.13319 19.8034 0.748047 15.5931ZM9.50462 13.2548H12.9332C13.0543 13.1109 13.2054 12.9951 13.376 12.9157C13.5466 12.8364 13.7325 12.7953 13.9206 12.7954C14.3082 12.8089 14.675 12.9738 14.9423 13.2548H16.1903C16.6566 13.2548 16.8212 13.1931 16.7869 12.9257V12.6651C16.7887 12.479 16.7252 12.2982 16.6074 12.1542C16.4896 12.0101 16.325 11.9118 16.1423 11.8766L14.8875 11.4446C14.428 11.28 13.9686 10.8823 13.1458 10.5531C12.4178 10.2823 11.6458 10.1497 10.8692 10.1623C9.81717 10.1754 8.76932 10.2972 7.74233 10.5257L6.74119 9.73713V9.40113C7.99131 9.03753 9.28614 8.85057 10.588 8.8457C11.5836 8.82423 12.575 8.9798 13.516 9.30513C14.181 9.63537 14.8287 9.99927 15.4566 10.3954L16.828 10.9166C17.1592 11.0239 17.4496 11.2298 17.6604 11.5068C17.8712 11.7838 17.9923 12.1185 18.0075 12.4663L18.076 12.96C18.2063 13.9474 17.5138 14.5097 16.4303 14.5097H15.2989C15.239 14.8279 15.0685 15.1147 14.8175 15.3193C14.5665 15.5238 14.2512 15.633 13.9275 15.6274C13.6132 15.6203 13.3108 15.5053 13.0712 15.3018C12.8315 15.0983 12.669 14.8187 12.6109 14.5097H9.86805C9.80819 14.8279 9.63767 15.1147 9.38667 15.3193C9.13566 15.5238 8.82038 15.633 8.49662 15.6274C8.1823 15.6203 7.87998 15.5053 7.6403 15.3018C7.40062 15.0983 7.23813 14.8187 7.18005 14.5097C6.96496 14.5271 6.74869 14.4968 6.54664 14.421C6.3446 14.3452 6.16177 14.2257 6.01116 14.0712C5.86055 13.9167 5.74588 13.7308 5.67531 13.5269C5.60474 13.323 5.58002 13.106 5.6029 12.8914V12.3977C5.58279 12.0854 5.62789 11.7723 5.73531 11.4784C5.84274 11.1844 6.01015 10.916 6.2269 10.6903L6.52176 10.3611C6.81179 10.6638 7.11856 10.95 7.44062 11.2183L7.27605 11.376C7.1063 11.5182 6.97746 11.7031 6.90275 11.9115C6.82804 12.12 6.81014 12.3446 6.8509 12.5623C6.8509 12.9943 6.98119 13.248 7.53662 13.248C7.65948 13.1061 7.81098 12.9918 7.98116 12.9126C8.15135 12.8334 8.33636 12.7911 8.52405 12.7886C8.89779 12.8156 9.24776 12.982 9.50462 13.2548Z" fill="white"/>
</svg>
