<svg width="26" height="26" viewBox="0 0 26 26" fill="none" xmlns="http://www.w3.org/2000/svg">
<path d="M4.31696 7.02536L14.2831 4.72393C15.0009 4.55896 15.7517 4.62695 16.4294 4.91831C17.1071 5.20966 17.6776 5.70968 18.0603 6.34779L4.31696 7.02536ZM4.31696 7.02536C3.59836 7.19059 2.94927 7.58133 2.4618 8.14214M4.31696 7.02536L2.4618 8.14214M2.4618 8.14214C1.97433 8.70294 1.67323 9.40534 1.60123 10.1496M2.4618 8.14214L1.60123 10.1496M1.60123 10.1496L1.11103 15.2051L1.60123 10.1496ZM3.14425 22.3021L3.08108 22.0203L2.80541 21.9342C2.51554 21.8437 2.25333 21.6771 2.0455 21.4504C1.83776 21.2237 1.69173 20.9449 1.62284 20.6416C1.6228 20.6414 1.62276 20.6412 1.62271 20.6411L0.877035 17.3128C0.877008 17.3127 0.87698 17.3125 0.876953 17.3124C0.876947 17.3124 0.876942 17.3124 0.876936 17.3123C0.807045 16.9987 0.822695 16.6716 0.922089 16.3664C1.02152 16.0612 1.20073 15.7901 1.43955 15.582L1.5895 15.4513L1.6087 15.2533L2.0989 10.1979L2.09891 10.1978C2.16096 9.55631 2.4204 8.95192 2.83917 8.47015C3.25784 7.98849 3.81432 7.65398 4.42901 7.51264L4.42947 7.51254L14.3951 5.21123C15.0092 5.07009 15.6516 5.12818 16.2319 5.37766C16.8122 5.62714 17.3021 6.05587 17.6313 6.60469C17.6314 6.60478 17.6315 6.60488 17.6315 6.60497L20.2265 10.9474L20.3301 11.1208L20.5251 11.1736C20.8279 11.2555 21.1038 11.42 21.3228 11.6502C21.5417 11.8803 21.6954 12.1674 21.7664 12.4808C21.7664 12.4809 21.7664 12.4809 21.7664 12.4809C21.7664 12.4811 21.7665 12.4814 21.7665 12.4816L22.5137 15.8108C22.5137 15.8108 22.5137 15.8108 22.5137 15.8108C22.6567 16.4485 22.437 17.0816 21.9928 17.5021L21.7865 17.6974L21.8487 17.9746L22.1666 19.3927L22.1667 19.3931C22.1852 19.4756 22.1876 19.5612 22.1736 19.6448C22.1596 19.7284 22.1295 19.808 22.0854 19.8791C22.0414 19.9502 21.9842 20.0113 21.9176 20.0592C21.851 20.107 21.7762 20.1408 21.6974 20.159L21.6968 20.1591L20.6042 20.4123C20.6041 20.4123 20.604 20.4123 20.6039 20.4124C20.4452 20.4488 20.2784 20.4202 20.1394 20.3314C20.0001 20.2424 19.8992 20.0994 19.8617 19.9323L19.6135 18.8232L19.5036 18.3319L19.0131 18.4452L5.89421 21.4743L5.41033 21.586L5.51876 22.0707L5.76505 23.1714C5.77617 23.2334 5.77739 23.2968 5.76866 23.3592L5.68898 23.9285H6.26383H22.632V25.4999H3.36536V23.9285H3.50887L3.37225 23.3191L3.14425 22.3021ZM14.7337 6.74244L14.7329 6.74262L4.76565 9.04531C4.46209 9.11537 4.18913 9.28023 3.98475 9.51514C3.78045 9.74995 3.6548 10.043 3.6243 10.3526L3.62423 10.3535L3.24549 14.2646L3.17853 14.9561L3.85548 14.8L4.57495 14.6342L4.5752 14.6341L17.3001 11.6937L17.3003 11.6936L18.0172 11.5278L18.6857 11.3731L18.3337 10.7842L16.326 7.42458L16.3252 7.42323C16.1649 7.15694 15.9256 6.94704 15.6399 6.82438C15.354 6.70167 15.037 6.67289 14.7337 6.74244ZM20.7006 3.14162L20.9602 3.51682L21.3576 3.29245L24.3838 1.58353L22.6936 4.66747L22.4386 5.13266L22.918 5.35969L24.497 6.10736L22.918 6.85503L22.3552 7.12153L22.737 7.61347L24.2516 9.56518L22.1965 8.86985L19.2223 4.03959L19.625 1.5875L20.7006 3.14162ZM4.21936 20.3782C4.50275 20.4272 4.79289 20.419 5.07311 20.3542C5.63923 20.2233 6.12869 19.8699 6.43548 19.3747C6.7421 18.8798 6.84198 18.2825 6.71432 17.7139C6.58663 17.1451 6.24108 16.649 5.75099 16.3362C5.26063 16.0232 4.6667 15.9202 4.10042 16.0512C3.82021 16.116 3.55572 16.2362 3.32199 16.4044C3.08827 16.5726 2.88996 16.7855 2.73805 17.0307C2.58615 17.2759 2.48354 17.5487 2.43577 17.8335C2.388 18.1183 2.39596 18.4098 2.45921 18.6915C2.52246 18.9733 2.63984 19.24 2.80497 19.4764C2.97012 19.7128 3.17986 19.9144 3.42253 20.0693C3.66522 20.2242 3.93597 20.3293 4.21936 20.3782ZM18.4334 17.1266C18.7264 17.1672 19.0244 17.147 19.3093 17.0675C19.8531 16.9158 20.316 16.5576 20.6034 16.0701C20.8906 15.5827 20.9811 15.0027 20.857 14.4503C20.7328 13.8978 20.403 13.4132 19.9336 13.0989C19.4641 12.7844 18.8919 12.6655 18.3367 12.7681C18.0459 12.8219 17.7692 12.9348 17.5233 13.0998C17.2774 13.2647 17.0674 13.4781 16.9058 13.7268C16.7441 13.9755 16.634 14.2545 16.5818 14.5468C16.5295 14.8391 16.5362 15.1391 16.6012 15.4288C16.6663 15.7186 16.7887 15.9923 16.9612 16.2335C17.1337 16.4747 17.3529 16.6785 17.606 16.8322C17.859 16.9858 18.1405 17.0861 18.4334 17.1266Z" stroke="black"/>
</svg>
