<svg width="23" height="27" viewBox="0 0 23 27" fill="none" xmlns="http://www.w3.org/2000/svg">
<path d="M16.0653 22.7766H14.8321C14.1626 22.0501 13.4932 21.1851 12.9294 20.3201L13.8103 19.732C14.2683 20.3893 14.7969 21.0467 15.4311 21.7387C16.3824 20.3547 17.2281 19.1092 17.968 17.829L18.9546 18.4172C18.0385 19.9396 17.2281 21.1851 16.0653 22.7766ZM15.8891 15.3725C12.8237 15.3725 10.8506 17.2063 10.8506 20.2855C10.8506 23.3994 12.8237 25.2331 15.8891 25.2331C18.9194 25.2331 20.8925 23.3994 20.8925 20.2855C20.8925 17.2063 18.9194 15.3725 15.8891 15.3725ZM9.61733 11.6013H14.5855V10.425H9.61733V11.6013ZM9.61733 5.40818H14.5855V4.23183H9.61733V5.40818ZM8.1727 15.9953L5.45961 19.04L3.8388 17.2755L4.57873 16.6527L5.42437 17.5869L7.43276 15.3725L8.1727 15.9953ZM8.1727 9.83679L5.45961 12.8815L3.8388 11.1169L4.57873 10.4942L5.42437 11.4283L7.43276 9.21401L8.1727 9.83679ZM8.1727 3.64365L5.45961 6.68832L3.8388 4.9238L4.57873 4.30102L5.42437 5.23518L7.43276 3.02088L8.1727 3.64365ZM9.6878 21.5657C9.61733 21.1505 9.5821 20.7353 9.5821 20.2855C9.5821 16.5835 12.0133 14.1616 15.8539 14.1616C16.312 14.1616 16.7348 14.1962 17.1576 14.2654V1.70613H2.00658V21.5657H9.6878ZM10.0049 22.742H0.808594V0.529785H18.3556V14.5768C20.7163 15.4071 22.161 17.4831 22.161 20.2855C22.161 23.953 19.6593 26.4441 15.8891 26.4441C12.9646 26.4441 10.8506 25.0255 10.0049 22.742Z" fill="black"/>
</svg>
