<svg width="40" height="40" viewBox="0 0 40 40" fill="none" xmlns="http://www.w3.org/2000/svg">
<path d="M31.6551 0.602929C30.8843 0.668883 30.1354 1.06461 29.4004 1.78412C28.289 2.87337 25.1459 6.85663 24.9029 8.02583C24.634 9.32494 25.2236 10.3582 25.7474 11.2656C26.2832 12.201 27.7113 13.9737 27.3389 15.007C25.2256 20.1955 20.3437 24.7224 15.153 26.8489C14.1412 27.2167 12.3705 25.7876 11.4403 25.248C10.532 24.7244 9.50625 24.1248 8.20959 24.4006C7.04438 24.6464 3.07273 27.8702 1.9852 28.9874C1.27214 29.7189 0.875771 30.4744 0.814026 31.2299C0.706467 34.1939 4.73389 37.5775 5.46688 37.9992C6.44087 38.7008 7.57421 39.0545 8.84697 39.0545C10.1476 39.0545 11.5976 38.6848 13.1791 37.9473C21.7598 34.3657 34.8679 21.5166 38.3336 13.0024C39.7717 9.83259 39.7817 7.21839 38.3575 5.25373C37.7899 4.33237 34.5532 0.481012 31.6551 0.602929Z" fill="white"/>
</svg>
