<?xml version="1.0" encoding="utf-8"?>
<!-- Generator: Adobe Illustrator 22.0.1, SVG Export Plug-In . SVG Version: 6.00 Build 0)  -->
<svg version="1.1" id="Layer_1" xmlns="http://www.w3.org/2000/svg" xmlns:xlink="http://www.w3.org/1999/xlink" x="0px" y="0px"
	 viewBox="0 0 65.5 65.4" style="enable-background:new 0 0 65.5 65.4;" xml:space="preserve">
<style type="text/css">
	.st0{display:none;}
	.st1{display:inline;}
	.st2{fill:#efdf00;}
	.st3{fill:#efdf00;}
</style>
<g class="st0">
	<g class="st1">
		<path class="st2" d="M34.7,65.4c-0.4,0-0.7-0.3-0.7-0.7c0-0.4,0.3-0.8,0.7-0.8h0.1c0.4,0,0.8,0.3,0.8,0.7s-0.3,0.8-0.7,0.8
			L34.7,65.4C34.8,65.4,34.8,65.4,34.7,65.4z M30.8,65.4C30.7,65.4,30.7,65.4,30.8,65.4h-0.1c-0.4,0-0.7-0.4-0.7-0.8
			s0.4-0.7,0.8-0.7h0.1c0.4,0,0.7,0.4,0.7,0.8C31.5,65.1,31.1,65.4,30.8,65.4z M26.7,64.9h-0.1h-0.1c-0.4-0.1-0.7-0.5-0.6-0.9
			c0.1-0.4,0.5-0.7,0.9-0.6c0.4,0.1,0.7,0.5,0.6,0.9C27.3,64.7,27,64.9,26.7,64.9z M38.8,64.9c-0.4,0-0.7-0.3-0.7-0.6
			c-0.1-0.4,0.2-0.8,0.6-0.9c0.4-0.1,0.8,0.2,0.9,0.6c0.1,0.4-0.1,0.8-0.5,0.9H39C38.9,64.9,38.9,64.9,38.8,64.9z M22.7,63.9
			c-0.1,0-0.2,0-0.2,0h-0.1c-0.4-0.1-0.6-0.5-0.5-0.9s0.5-0.6,0.9-0.5h0.1c0.4,0.1,0.6,0.6,0.5,1C23.3,63.7,23,63.9,22.7,63.9z
			 M42.8,63.9c-0.3,0-0.6-0.2-0.7-0.5c-0.1-0.4,0.1-0.8,0.5-0.9c0.4-0.1,0.9,0.1,1,0.5s0,0.8-0.4,0.9h-0.1
			C42.9,63.9,42.9,63.9,42.8,63.9z M18.9,62.4c-0.1,0-0.2,0-0.3-0.1h-0.1c-0.4-0.2-0.5-0.6-0.4-1c0.2-0.4,0.6-0.5,1-0.4h0.1
			c0.4,0.2,0.5,0.6,0.3,1C19.5,62.2,19.2,62.4,18.9,62.4z M46.6,62.4c-0.3,0-0.6-0.2-0.7-0.4c-0.2-0.4,0-0.8,0.4-1s0.9,0,1,0.3
			c0.2,0.4,0.1,0.8-0.3,1c0,0-0.1,0-0.1,0.1C46.8,62.3,46.7,62.4,46.6,62.4z M15.3,60.4c-0.1,0-0.3,0-0.4-0.1h-0.1
			c-0.4-0.2-0.5-0.7-0.2-1c0.2-0.4,0.7-0.5,1-0.2l0.1,0.1c0.3,0.2,0.4,0.7,0.2,1C15.8,60.2,15.6,60.4,15.3,60.4z M50.2,60.4
			c-0.2,0-0.5-0.1-0.6-0.3c-0.2-0.4-0.1-0.8,0.2-1s0.8-0.1,1.1,0.2s0.2,0.8-0.2,1l-0.1,0.1C50.4,60.3,50.3,60.4,50.2,60.4z
			 M53.4,57.9c-0.2,0-0.4-0.1-0.6-0.3c-0.3-0.3-0.2-0.8,0.1-1.1s0.8-0.3,1.1,0.1c0.3,0.3,0.3,0.8-0.1,1l-0.1,0.1
			C53.8,57.8,53.6,57.9,53.4,57.9z M12,57.9c-0.2,0-0.3-0.1-0.4-0.2l-0.1-0.1c-0.3-0.3-0.4-0.7-0.1-1.1c0.3-0.3,0.7-0.4,1.1-0.1
			c0.3,0.3,0.4,0.8,0.1,1.1C12.4,57.8,12.2,57.9,12,57.9z M56.4,55.1c-0.2,0-0.4-0.1-0.5-0.2c-0.3-0.3-0.3-0.7-0.1-1.1l0.1-0.1
			c0.3-0.3,0.8-0.3,1.1,0s0.3,0.8,0,1.1l-0.1,0.1C56.8,55,56.6,55.1,56.4,55.1z M9.1,55.1c-0.2,0-0.4-0.1-0.5-0.2l-0.1-0.1
			c-0.3-0.3-0.2-0.8,0.1-1.1s0.8-0.2,1.1,0.1s0.3,0.8,0,1.1C9.4,55,9.2,55.1,9.1,55.1z M6.5,51.9c-0.2,0-0.5-0.1-0.6-0.3l-0.1-0.1
			c-0.2-0.3-0.2-0.8,0.2-1s0.8-0.2,1,0.2l0.1,0.1c0.2,0.3,0.2,0.8-0.2,1C6.8,51.8,6.7,51.9,6.5,51.9z M59,51.9c-0.1,0-0.3,0-0.4-0.1
			c-0.3-0.2-0.4-0.7-0.2-1s0.7-0.5,1.1-0.2c0.3,0.2,0.5,0.7,0.2,1l-0.1,0.1C59.4,51.7,59.2,51.9,59,51.9z M61.1,48.4
			c-0.1,0-0.2,0-0.3-0.1c-0.4-0.2-0.5-0.6-0.3-1l0.1-0.1c0.2-0.4,0.6-0.5,1-0.3s0.5,0.6,0.3,1V48C61.6,48.2,61.4,48.4,61.1,48.4z
			 M4.3,48.3c-0.2,0-0.5-0.1-0.6-0.4c0,0,0-0.1-0.1-0.1c-0.2-0.4,0-0.8,0.3-1c0.4-0.2,0.8,0,1,0.3C5.1,47.5,5,48,4.6,48.2
			C4.6,48.3,4.5,48.3,4.3,48.3z M62.8,44.6c-0.1,0-0.2,0-0.2,0c-0.4-0.1-0.6-0.6-0.5-1v-0.1c0.1-0.4,0.6-0.6,1-0.4
			c0.4,0.1,0.6,0.6,0.4,1v0.1C63.4,44.4,63.1,44.6,62.8,44.6z M2.7,44.6c-0.3,0-0.5-0.2-0.7-0.4v-0.1c-0.1-0.4,0.1-0.8,0.5-1
			c0.4-0.1,0.8,0.1,1,0.5c0.1,0.4,0,0.9-0.4,1C2.9,44.6,2.8,44.6,2.7,44.6z M1.6,40.7c-0.3,0-0.7-0.2-0.7-0.6V40
			c-0.1-0.4,0.2-0.8,0.6-0.9c0.4-0.1,0.8,0.2,0.9,0.6v0.1c0.1,0.4-0.2,0.8-0.6,0.9C1.7,40.7,1.6,40.7,1.6,40.7z M63.9,40.7
			c-0.1,0-0.1,0-0.2,0c-0.4-0.1-0.7-0.5-0.6-0.9v-0.1c0.1-0.4,0.5-0.7,0.9-0.6c0.4,0.1,0.7,0.5,0.6,0.9v0.1
			C64.6,40.4,64.3,40.7,63.9,40.7z M0.9,36.6c-0.4,0-0.7-0.2-0.7-0.6v-0.1c0-0.4,0.3-0.8,0.7-0.8s0.8,0.3,0.8,0.7
			C1.7,36.2,1.4,36.6,0.9,36.6L0.9,36.6z M64.6,36.6C64.6,36.6,64.5,36.6,64.6,36.6c-0.5,0-0.8-0.4-0.7-0.8v-0.1
			c0-0.4,0.4-0.7,0.8-0.7s0.7,0.4,0.7,0.8v0.1C65.3,36.3,65,36.6,64.6,36.6z M0.8,32.6C0.7,32.6,0.7,32.6,0.8,32.6
			c-0.4,0-0.8-0.4-0.8-0.8v-0.1C0,31.3,0.4,31,0.8,31s0.7,0.4,0.7,0.8v0.1C1.5,32.2,1.2,32.6,0.8,32.6z M64.7,32.5
			c-0.4,0-0.7-0.3-0.7-0.7v-0.1c0-0.4,0.3-0.8,0.7-0.8s0.8,0.3,0.8,0.7l0.1,0.1C65.5,32.2,65.2,32.5,64.7,32.5L64.7,32.5z M1.1,28.5
			H1c-0.4-0.1-0.7-0.5-0.6-0.9l0-0.1c0.1-0.4,0.4-0.7,0.9-0.6C1.7,27,2,27.3,1.9,27.8v0.1C1.8,28.2,1.5,28.5,1.1,28.5z M64.3,28.5
			c-0.4,0-0.7-0.3-0.7-0.6c-0.1-0.4,0.2-0.8,0.6-0.9s0.8,0.2,0.9,0.6v0.1c0.1,0.4-0.2,0.8-0.6,0.9C64.4,28.5,64.4,28.5,64.3,28.5z
			 M2,24.4c-0.1,0-0.1,0-0.2,0c-0.4-0.1-0.6-0.5-0.5-0.9v-0.1c0.1-0.4,0.5-0.6,0.9-0.5s0.6,0.5,0.5,0.9C2.7,24.2,2.4,24.4,2,24.4z
			 M63.4,24.4c-0.3,0-0.6-0.2-0.7-0.5v-0.1c-0.1-0.4,0.1-0.8,0.5-0.9s0.8,0.1,0.9,0.5l0,0c0.1,0.4-0.1,0.8-0.5,1
			C63.6,24.4,63.5,24.4,63.4,24.4z M3.4,20.6c-0.1,0-0.2,0-0.3-0.1c-0.4-0.2-0.5-0.6-0.4-1v-0.1c0.2-0.4,0.6-0.6,1-0.4
			s0.6,0.6,0.4,1v0.1C4,20.5,3.7,20.6,3.4,20.6z M62,20.6c-0.3,0-0.6-0.2-0.7-0.5c-0.2-0.4,0-0.9,0.4-1c0.4-0.2,0.8,0,1,0.3v0.1
			c0.2,0.4,0,0.8-0.4,1C62.2,20.6,62.1,20.6,62,20.6z M60.1,17c-0.3,0-0.5-0.1-0.6-0.4l-0.1-0.1c-0.2-0.4-0.1-0.8,0.3-1
			c0.4-0.2,0.8-0.1,1,0.3l0.1,0.1c0.2,0.4,0.1,0.8-0.2,1C60.4,16.9,60.3,17,60.1,17z M5.3,17c-0.1,0-0.2,0-0.4-0.1
			c-0.4-0.2-0.5-0.6-0.3-1l0.1-0.1c0.2-0.4,0.7-0.5,1-0.2c0.4,0.2,0.5,0.7,0.2,1C5.9,16.8,5.6,17,5.3,17z M7.7,13.6
			c-0.2,0-0.3-0.1-0.5-0.2c-0.3-0.3-0.4-0.7-0.1-1.1l0,0C7.4,12,7.8,12,8.2,12.2c0.3,0.3,0.4,0.7,0.1,1l-0.1,0.1
			C8.1,13.5,7.9,13.6,7.7,13.6z M57.8,13.6c-0.2,0-0.4-0.1-0.6-0.3C57,13,57,12.5,57.3,12.2s0.8-0.2,1,0.1l0.1,0.1
			c0.3,0.3,0.2,0.8-0.1,1.1C58.1,13.6,58,13.6,57.8,13.6z M55,10.6c-0.2,0-0.4-0.1-0.5-0.2c-0.3-0.3-0.3-0.8-0.1-1.1
			c0.3-0.3,0.7-0.3,1-0.1l0,0c0.3,0.3,0.3,0.8,0,1.1C55.4,10.5,55.2,10.6,55,10.6z M10.4,10.5c-0.2,0-0.4-0.1-0.5-0.2
			c-0.3-0.3-0.3-0.7,0-1L10,9.2c0.3-0.3,0.8-0.3,1.1,0s0.3,0.8,0,1.1C10.8,10.5,10.6,10.5,10.4,10.5z M52,7.9c-0.2,0-0.3,0-0.5-0.2
			c-0.3-0.2-0.4-0.7-0.2-1.1c0.2-0.3,0.7-0.4,1-0.2l0.1,0.1c0.3,0.3,0.4,0.7,0.1,1.1C52.4,7.8,52.2,7.9,52,7.9z M13.5,7.9
			c-0.2,0-0.5-0.1-0.6-0.3c-0.3-0.3-0.2-0.8,0.1-1l0,0c0.3-0.2,0.8-0.2,1.1,0.1c0.2,0.3,0.2,0.8-0.1,1C13.9,7.8,13.7,7.9,13.5,7.9z
			 M48.5,5.7c-0.1,0-0.2,0-0.4-0.1L48,5.5c-0.4-0.2-0.5-0.7-0.3-1c0.2-0.4,0.7-0.5,1-0.3h0.1c0.4,0.2,0.5,0.7,0.3,1
			C49,5.5,48.8,5.7,48.5,5.7z M17,5.6c-0.3,0-0.5-0.1-0.7-0.4c-0.2-0.4-0.1-0.8,0.2-1l0.1-0.1c0.4-0.2,0.8-0.1,1,0.3s0.1,0.8-0.3,1
			C17.3,5.6,17.1,5.6,17,5.6z M44.8,3.9c-0.1,0-0.2,0-0.3,0h-0.1c-0.4-0.2-0.6-0.6-0.4-1c0.2-0.4,0.6-0.6,1-0.4l0,0
			c0.4,0.2,0.6,0.6,0.4,1C45.4,3.7,45.1,3.9,44.8,3.9z M20.7,3.8c-0.3,0-0.6-0.2-0.7-0.4c-0.2-0.4,0-0.8,0.4-1h0.1
			c0.4-0.2,0.8,0,1,0.4s0,0.8-0.4,1C20.9,3.8,20.8,3.8,20.7,3.8z M24.5,2.6c-0.3,0-0.6-0.2-0.7-0.6s0.1-0.8,0.5-0.9h0.1
			c0.4-0.1,0.8,0.1,0.9,0.5s-0.1,0.8-0.5,0.9h-0.1C24.6,2.6,24.6,2.6,24.5,2.6z M40.9,2.6c-0.1,0-0.1,0-0.2,0
			c-0.4-0.1-0.7-0.5-0.6-0.9C40.3,1.2,40.6,1,41,1.1h0.1c0.4,0.1,0.6,0.5,0.5,0.9C41.6,2.3,41.3,2.6,40.9,2.6z M28.5,1.8
			c-0.4,0-0.7-0.3-0.7-0.7c-0.1-0.4,0.2-0.8,0.6-0.8c0,0,0,0,0,0l0.1-0.1c0.4-0.1,0.8,0.2,0.8,0.6c0.1,0.4-0.2,0.8-0.6,0.8
			C28.7,1.8,28.6,1.8,28.5,1.8C28.6,1.8,28.6,1.8,28.5,1.8z M36.9,1.8L36.9,1.8c-0.1,0-0.2,0-0.2,0C36.3,1.7,36,1.4,36.1,1
			c0.1-0.4,0.4-0.7,0.8-0.6L37,0.3c0.4,0,0.7,0.4,0.7,0.8C37.6,1.5,37.3,1.8,36.9,1.8z M32.6,1.5c-0.4,0-0.8-0.3-0.8-0.8
			S32.2,0,32.6,0h0.1l0,0h0.1c0.4,0,0.8,0.3,0.8,0.8s-0.3,0.8-0.8,0.8h-0.1l0,0L32.6,1.5z"/>
	</g>
</g>
<circle class="st3" cx="0.9" cy="32.6" r="0.8"/>
<circle class="st3" cx="64.7" cy="32.6" r="0.8"/>
<circle class="st3" cx="32.8" cy="64.5" r="0.8"/>
<circle class="st3" cx="32.8" cy="0.7" r="0.8"/>
<circle class="st3" cx="10.3" cy="55.1" r="0.8"/>
<circle class="st3" cx="55.3" cy="10" r="0.8"/>
<circle class="st3" cx="55.3" cy="55.1" r="0.8"/>
<circle class="st3" cx="10.3" cy="10" r="0.8"/>
<circle class="st3" cx="0.9" cy="32.6" r="0.8"/>
<circle class="st3" cx="64.7" cy="32.6" r="0.8"/>
<circle class="st3" cx="32.8" cy="64.5" r="0.8"/>
<circle class="st3" cx="32.8" cy="0.7" r="0.8"/>
<circle class="st3" cx="1.5" cy="38.8" r="0.8"/>
<circle class="st3" cx="64.1" cy="26.4" r="0.8"/>
<circle class="st3" cx="39" cy="63.9" r="0.8"/>
<circle class="st3" cx="26.6" cy="1.3" r="0.8"/>
<circle class="st3" cx="1.5" cy="38.8" r="0.8"/>
<circle class="st3" cx="64.1" cy="26.4" r="0.8"/>
<circle class="st3" cx="39" cy="63.9" r="0.8"/>
<circle class="st3" cx="26.6" cy="1.3" r="0.8"/>
<circle class="st3" cx="10.3" cy="55.1" r="0.8"/>
<circle class="st3" cx="55.3" cy="10" r="0.8"/>
<circle class="st3" cx="55.3" cy="55.1" r="0.8"/>
<circle class="st3" cx="10.3" cy="10" r="0.8"/>
<circle class="st3" cx="15.1" cy="59.1" r="0.8"/>
<circle class="st3" cx="50.5" cy="6.1" r="0.8"/>
<circle class="st3" cx="59.3" cy="50.3" r="0.8"/>
<circle class="st3" cx="6.3" cy="14.9" r="0.8"/>
<circle class="st3" cx="15.1" cy="59.1" r="0.8"/>
<circle class="st3" cx="50.5" cy="6.1" r="0.8"/>
<circle class="st3" cx="59.3" cy="50.3" r="0.8"/>
<circle class="st3" cx="6.3" cy="14.9" r="0.8"/>
<circle class="st3" cx="3.3" cy="44.8" r="0.8"/>
<circle class="st3" cx="62.3" cy="20.4" r="0.8"/>
<circle class="st3" cx="45" cy="62" r="0.8"/>
<circle class="st3" cx="20.6" cy="3.1" r="0.8"/>
<circle class="st3" cx="20.6" cy="62" r="0.8"/>
<circle class="st3" cx="45" cy="3.1" r="0.8"/>
<circle class="st3" cx="62.3" cy="44.8" r="0.8"/>
<circle class="st3" cx="3.3" cy="20.4" r="0.8"/>
<circle class="st3" cx="3.3" cy="44.8" r="0.8"/>
<circle class="st3" cx="62.3" cy="20.4" r="0.8"/>
<circle class="st3" cx="45" cy="62" r="0.8"/>
<circle class="st3" cx="20.6" cy="3.1" r="0.8"/>
<circle class="st3" cx="20.6" cy="62" r="0.8"/>
<circle class="st3" cx="45" cy="3.1" r="0.8"/>
<circle class="st3" cx="62.3" cy="44.8" r="0.8"/>
<circle class="st3" cx="3.3" cy="20.4" r="0.8"/>
<circle class="st3" cx="6.3" cy="50.3" r="0.8"/>
<circle class="st3" cx="59.3" cy="14.9" r="0.8"/>
<circle class="st3" cx="50.5" cy="59.1" r="0.8"/>
<circle class="st3" cx="15.1" cy="6.1" r="0.8"/>
<circle class="st3" cx="26.6" cy="63.9" r="0.8"/>
<circle class="st3" cx="39" cy="1.3" r="0.8"/>
<circle class="st3" cx="64.1" cy="38.8" r="0.8"/>
<circle class="st3" cx="1.5" cy="26.4" r="0.8"/>
<circle class="st3" cx="6.3" cy="50.3" r="0.8"/>
<circle class="st3" cx="59.3" cy="14.9" r="0.8"/>
<circle class="st3" cx="50.5" cy="59.1" r="0.8"/>
<circle class="st3" cx="15.1" cy="6.1" r="0.8"/>
<circle class="st3" cx="26.6" cy="63.9" r="0.8"/>
<circle class="st3" cx="39" cy="1.3" r="0.8"/>
<circle class="st3" cx="64.1" cy="38.8" r="0.8"/>
<circle class="st3" cx="1.5" cy="26.4" r="0.8"/>
</svg>
