<svg width="238" height="5" viewBox="0 0 238 5" fill="none" xmlns="http://www.w3.org/2000/svg">
<path d="M69 0.5L69.3322 0.126295C69.1427 -0.0420985 68.8573 -0.0420985 68.6678 0.126295L69 0.5ZM64.5 4.5V5H64.6901L64.8322 4.8737L64.5 4.5ZM73.5 4.5L73.1678 4.8737L73.3099 5H73.5V4.5ZM0 5H64.5V4H0V5ZM64.8322 4.8737L69.3322 0.873705L68.6678 0.126295L64.1678 4.1263L64.8322 4.8737ZM68.6678 0.873705L73.1678 4.8737L73.8322 4.1263L69.3322 0.126295L68.6678 0.873705ZM73.5 5H238V4H73.5V5Z" fill="#efdf00"/>
</svg>
