<svg width="30" height="30" viewBox="0 0 30 30" fill="none" xmlns="http://www.w3.org/2000/svg">
<path d="M14.9 0H15.2C23.4 0 30 6.6 30 14.9V15.2C30 23.4 23.4 30 15.1 30H14.8C6.6 30 0 23.4 0 15.1V14.8C0 6.6 6.6 0 14.9 0Z" fill="#D93175"/>
<path d="M15 7.69998C17.4 7.69998 17.6 7.69998 18.6 7.79998C19.5 7.79998 19.9 7.99998 20.2 8.09998C20.6 8.29998 20.9 8.49998 21.2 8.79998C21.5 9.09998 21.7 9.39998 21.9 9.79998C22 10.1 22.2 10.6 22.2 11.4C22.2 12.3 22.3 12.6 22.3 15C22.3 17.4 22.3 17.6 22.2 18.6C22.2 19.5 22 19.9 21.9 20.2C21.7 20.6 21.5 20.9 21.2 21.2C20.9 21.5 20.6 21.7 20.2 21.9C19.9 22 19.4 22.2 18.6 22.2C17.7 22.2 17.4 22.3 15 22.3C12.6 22.3 12.4 22.3 11.4 22.2C10.5 22.2 10.1 22 9.8 21.9C9.4 21.7 9.1 21.5 8.8 21.2C8.5 20.9 8.3 20.6 8.1 20.2C8 19.9 7.8 19.4 7.8 18.6C7.8 17.7 7.7 17.4 7.7 15C7.7 12.6 7.7 12.4 7.8 11.4C7.8 10.5 8 10.1 8.1 9.79998C8.3 9.39998 8.5 9.09998 8.8 8.79998C9 8.39998 9.3 8.19998 9.7 7.99998C10 7.89998 10.5 7.69998 11.3 7.69998C12.3 7.69998 12.6 7.69998 15 7.69998ZM15 6.09998C12.6 6.09998 12.3 6.09998 11.3 6.19998C10.4 6.19998 9.7 6.39998 9.1 6.59998C8.5 6.79998 8 7.09998 7.5 7.59998C7 8.09998 6.7 8.59998 6.5 9.19998C6.3 9.79998 6.1 10.4 6.1 11.4C6.1 12.3 6 12.6 6 15.1C6 17.5 6 17.8 6.1 18.8C6.1 19.7 6.3 20.4 6.5 21C6.7 21.6 7 22.1 7.5 22.6C8 23.1 8.5 23.4 9.1 23.6C9.7 23.8 10.3 24 11.3 24C12.2 24 12.5 24.1 15 24.1C17.5 24.1 17.7 24.1 18.7 24C19.6 24 20.3 23.8 20.9 23.6C21.5 23.4 22 23.1 22.5 22.6C23 22.1 23.3 21.6 23.5 21C23.7 20.4 23.9 19.8 23.9 18.8C23.9 17.9 24 17.6 24 15.1C24 12.6 24 12.4 23.9 11.4C23.9 10.5 23.7 9.79998 23.5 9.19998C23.3 8.59998 23 8.09998 22.5 7.59998C22 7.09998 21.5 6.79998 20.9 6.59998C20.3 6.39998 19.7 6.19998 18.7 6.19998C17.7 6.09998 17.4 6.09998 15 6.09998Z" fill="white"/>
<path d="M15.0004 10.4C12.5004 10.4 10.4004 12.4 10.4004 15C10.4004 17.6 12.4004 19.6 15.0004 19.6C17.6004 19.6 19.6004 17.6 19.6004 15C19.6004 12.4 17.5004 10.4 15.0004 10.4ZM15.0004 17.9C13.4004 17.9 12.0004 16.6 12.0004 14.9C12.0004 13.2 13.3004 11.9 15.0004 11.9C16.6004 11.9 18.0004 13.2 18.0004 14.9C18.0004 16.6 16.6004 17.9 15.0004 17.9Z" fill="white"/>
<path d="M19.6996 11.3C20.3071 11.3 20.7996 10.8075 20.7996 10.2C20.7996 9.59246 20.3071 9.09998 19.6996 9.09998C19.0921 9.09998 18.5996 9.59246 18.5996 10.2C18.5996 10.8075 19.0921 11.3 19.6996 11.3Z" fill="white"/>
</svg>
