<svg width="26" height="26" viewBox="0 0 26 26" fill="none" xmlns="http://www.w3.org/2000/svg">
<path fill-rule="evenodd" clip-rule="evenodd" d="M18.207 13.895C17.518 13.895 17.069 14.344 17.069 15.003C17.069 15.662 17.518 16.111 18.207 16.111C18.896 16.111 19.345 15.662 19.345 15.003C19.345 14.344 18.896 13.895 18.207 13.895ZM7.516 13.895C6.827 13.895 6.378 14.344 6.378 15.003C6.378 15.662 6.827 16.111 7.516 16.111C8.20501 16.111 8.65401 15.662 8.65401 15.003C8.65401 14.344 8.20501 13.895 7.516 13.895ZM9.64201 15.003H16.081C16.081 13.805 16.979 12.907 18.207 12.907C19.435 12.907 20.333 13.805 20.333 15.003C20.333 16.201 19.435 17.099 18.207 17.099C17.368 17.099 16.68 16.68 16.32 16.021H9.40301C9.04301 16.68 8.35501 17.099 7.516 17.099C6.288 17.099 5.39 16.201 5.39 15.003C5.39 13.805 6.288 12.907 7.516 12.907C8.74401 12.907 9.64201 13.805 9.64201 15.003ZM3.234 13.146C3.234 11.679 3.324 11.469 4.791 9.732C6.288 7.936 7.007 7.516 8.59401 7.516H12.397C14.104 7.516 15.033 7.816 16.38 8.744L18.656 10.451L20.124 10.811C21.711 11.17 22.459 12.098 22.459 13.625C22.459 14.374 22.25 15.033 21.86 15.572L21.022 14.973C21.321 14.524 21.411 14.194 21.411 13.625C21.411 12.577 20.872 12.008 19.525 11.679L18.057 11.32L15.841 9.643C14.763 8.834 13.835 8.535 12.397 8.535H8.59401C7.366 8.535 6.917 8.834 5.54 10.481C4.402 11.859 4.282 12.038 4.282 13.296V13.925C4.282 14.374 4.372 14.644 4.641 14.913L3.923 15.572C3.443 15.153 3.234 14.644 3.234 13.925V13.146ZM25.754 12.847H24.616C24.616 5.72 20.273 1.078 12.877 1.078C9.22301 1.078 6.049 2.575 3.803 4.941C4.731 4.701 5.659 4.402 6.618 4.043L7.426 4.761C5.869 5.33 4.641 5.69 2.844 5.989L2.156 5.36C2.305 3.953 2.635 2.515 3.204 0.868L4.012 1.617C3.563 2.875 3.294 3.563 3.114 4.222C5.54 1.647 8.95401 0 12.877 0C20.932 0 25.754 5.121 25.754 12.847ZM22.639 21.442C20.243 23.987 16.979 25.664 13.176 25.664C4.941 25.664 0 20.543 0 12.817H1.137C1.137 19.944 5.6 24.586 13.176 24.586C16.71 24.586 19.734 23.059 21.95 20.723C21.022 20.962 20.094 21.262 19.135 21.621L18.327 20.902C19.884 20.334 21.112 19.974 22.909 19.675L23.597 20.304C23.448 21.711 23.118 23.148 22.549 24.796L21.741 24.047C22.19 22.789 22.459 22.1 22.639 21.442Z" fill="#EFDF00"/>
</svg>
