<svg width="18" height="24" viewBox="0 0 18 24" fill="none" xmlns="http://www.w3.org/2000/svg">
<path d="M11.3972 9.0526C11.3972 7.5789 10.472 6.65263 9 6.65263C7.528 6.65263 6.6028 7.5789 6.6028 9.0526C6.6028 10.5263 7.528 11.4526 9 11.4526C10.472 11.4526 11.3972 10.5263 11.3972 9.0526ZM12.8271 9.0526C12.8271 11.2 11.1869 12.8421 9 12.8421C6.8131 12.8421 5.1729 11.2 5.1729 9.0526C5.1729 6.86316 6.8131 5.26316 9 5.26316C11.1869 5.26316 12.8271 6.86316 12.8271 9.0526ZM16.486 8.6316C16.486 4.37895 13.4579 1.43158 9 1.43158C4.5421 1.43158 1.51402 4.37895 1.51402 8.6316C1.51402 12.4632 4.3318 17.7684 9 22.6105C13.6682 17.7684 16.486 12.4632 16.486 8.6316ZM0 8.6316C0 3.45263 3.61682 0 9 0C14.3832 0 18 3.45263 18 8.6316C18 12.8842 14.8037 18.8211 9.757 24H8.243C3.19626 18.8211 0 12.8842 0 8.6316Z" fill="#EFDF00"/>
</svg>
