<svg width="30" height="30" viewBox="0 0 30 30" fill="none" xmlns="http://www.w3.org/2000/svg">
<path d="M30.0312 25.6375C30.0312 28.0648 28.0734 30.032 25.6586 30.032H4.37188C1.95781 30.032 0 28.0648 0 25.6375V4.39453C0 1.96797 1.95781 0 4.37188 0H25.6586C28.0734 0 30.0312 1.96797 30.0312 4.39453V25.6375Z" fill="#FAAB62"/>
<path d="M29.877 25.5282C29.877 27.9305 27.9402 29.8781 25.5496 29.8781H4.48164C2.0918 29.8781 0.154297 27.9305 0.154297 25.5282V4.50393C0.154297 2.10159 2.0918 0.153931 4.48164 0.153931H25.5496C27.9402 0.153931 29.877 2.10159 29.877 4.50393V25.5282Z" fill="#F7931E"/>
<path d="M14.9984 4.48828C12.0219 4.48828 9.60938 6.91406 9.60938 9.90547C9.60938 12.8969 12.0219 15.3227 14.9984 15.3227C17.9742 15.3227 20.3875 12.8969 20.3875 9.90547C20.3875 6.91406 17.9742 4.48828 14.9984 4.48828ZM14.9984 12.1445C13.768 12.1445 12.7703 11.1422 12.7703 9.90547C12.7703 8.66875 13.768 7.66641 14.9984 7.66641C16.2281 7.66641 17.2258 8.66875 17.2258 9.90547C17.2258 11.1422 16.2281 12.1445 14.9984 12.1445Z" fill="white"/>
<path d="M16.9014 19.6328C19.0585 19.1906 20.3514 18.1641 20.4202 18.1086C21.0514 17.6 21.153 16.6726 20.6467 16.0383C20.1405 15.4039 19.2178 15.3016 18.5866 15.8109C18.5733 15.8211 17.1944 16.8844 14.9256 16.8859C12.6569 16.8844 11.2491 15.8211 11.235 15.8109C10.6038 15.3016 9.68189 15.4039 9.17564 16.0383C8.66939 16.6726 8.77095 17.6 9.4022 18.1086C9.47095 18.1648 10.8178 19.2187 13.0358 19.65L9.94439 22.8969C9.38267 23.4828 9.39986 24.4148 9.98189 24.9797C10.2663 25.2555 10.6327 25.3922 10.9991 25.3922C11.3827 25.3922 11.7663 25.2414 12.0538 24.9414L14.9256 21.8672L18.0874 24.9617C18.66 25.5367 19.5874 25.5351 20.1592 24.9601C20.7311 24.3844 20.7303 23.4516 20.1577 22.8773L16.9014 19.6328Z" fill="white"/>
<path d="M14.925 16.886C14.9211 16.886 14.9282 16.886 14.925 16.8868C14.9211 16.886 14.9282 16.886 14.925 16.886Z" fill="white"/>
</svg>
