<svg width="29" height="26" viewBox="0 0 29 26" fill="none" xmlns="http://www.w3.org/2000/svg">
<path d="M21.1321 21.2835H19.7242C18.9599 20.4261 18.1956 19.4053 17.552 18.3846L18.5577 17.6905C19.0806 18.4662 19.684 19.242 20.408 20.0586C21.4941 18.4254 22.4595 16.9555 23.3042 15.4448L24.4305 16.1389C23.3847 17.9354 22.4595 19.4053 21.1321 21.2835ZM20.9309 12.5458C17.4313 12.5458 15.1787 14.8323 15.1787 18.3437C15.1787 21.9368 17.4313 24.2233 20.9309 24.2233C24.3903 24.2233 26.6429 21.9368 26.6429 18.3437C26.6429 14.8323 24.3903 12.5458 20.9309 12.5458ZM16.7073 10.7085C16.6268 9.72854 16.3453 8.83027 15.8626 8.05449L14.5351 9.03442C13.8513 9.60605 13.7306 9.8102 13.8513 10.1777C13.972 10.5451 14.334 10.7085 15.0983 10.7085H16.7073ZM13.1272 16.6697C13.4088 16.5472 13.7306 16.3839 13.972 16.2206C14.1329 15.6081 14.3742 15.0365 14.6558 14.5057L14.0524 14.0566C13.4893 13.6074 13.1272 13.5258 12.725 13.7707C12.4032 14.0157 12.4032 14.2199 12.6445 15.0773L13.1272 16.6697ZM10.8344 7.932C11.2367 7.932 11.478 7.64619 11.7194 6.91124L12.2021 5.35969C11.7998 5.27803 11.3573 5.2372 10.9149 5.2372C10.4322 5.2372 9.94944 5.27803 9.50704 5.40052L9.98974 6.91124C10.2713 7.72785 10.4322 7.932 10.8344 7.932ZM6.36944 14.9957C6.97282 15.7306 7.69687 16.2614 8.54161 16.6289L9.02434 15.0773C9.26564 14.2199 9.26564 14.0157 8.94386 13.7707C8.54161 13.5258 8.17958 13.6074 7.61642 14.0566L6.36944 14.9957ZM9.74834 17.0372C10.1104 17.078 10.4724 17.1188 10.8344 17.1188C11.1964 17.1188 11.5585 17.078 11.9205 17.0372L11.5585 15.8123C11.0758 14.1382 11.1562 13.3216 11.9607 12.7908C12.8859 12.1784 13.5697 12.3009 15.0178 13.2808L15.3396 13.4849C15.7017 13.0766 16.1441 12.6683 16.5866 12.3417L16.6671 11.9742H15.4603C13.7709 11.9742 13.1272 11.6067 12.6848 10.5043C12.3227 9.56522 12.6445 8.99359 14.1329 7.80951L15.0983 7.03373C14.6156 6.50294 14.0524 6.09464 13.4088 5.80882L13.0066 6.95207C12.4434 8.62612 11.9205 9.15691 10.8344 9.15691C9.78854 9.15691 9.26564 8.62612 8.70251 6.95207L8.30025 5.84965C7.69687 6.13547 7.13372 6.54377 6.65102 7.07457L7.5762 7.80951C9.06454 8.99359 9.38634 9.56522 9.02434 10.5043C8.58183 11.6067 7.93823 11.9742 6.24877 11.9742H5.04201C5.16268 12.6683 5.36381 13.3624 5.68561 13.9341L6.65102 13.2808C8.09913 12.3009 8.78296 12.1784 9.70814 12.7908C10.5126 13.3216 10.5931 14.1382 10.1104 15.8123L9.74834 17.0372ZM5.88674 8.05449C5.40404 8.83027 5.08223 9.72854 5.00178 10.7085H6.61079C7.37507 10.7085 7.7371 10.5451 7.85778 10.1777C7.97845 9.8102 7.85778 9.60605 7.17395 9.03442L5.88674 8.05449ZM10.8344 19.8545C11.8803 19.8545 12.8859 19.6503 13.7708 19.3237C13.7306 18.7112 13.7306 18.2621 13.7306 17.813C12.8457 18.2213 11.8803 18.4254 10.8344 18.4254C6.89237 18.4254 3.67435 15.159 3.67435 11.1576C3.67435 7.1154 6.85214 3.84897 10.8344 3.84897C14.8569 3.84897 18.0347 7.07457 18.0347 11.1576V11.6067C18.437 11.4434 18.9197 11.3209 19.4024 11.2393V11.1576C19.4024 6.33962 15.581 2.4199 10.8344 2.4199C6.08786 2.4199 2.26646 6.33962 2.26646 11.1576C2.26646 15.9756 6.08786 19.8545 10.8344 19.8545ZM28.091 18.3437C28.091 22.7126 25.235 25.6524 20.9309 25.6524C17.5118 25.6524 14.9776 23.7742 14.0927 20.8344C13.0468 21.161 11.9607 21.3652 10.8344 21.3652C5.32358 21.3652 0.818359 16.7922 0.818359 11.1576C0.818359 5.48218 5.32358 0.90918 10.8746 0.90918C16.3855 0.90918 20.8907 5.48218 20.8907 11.1168C25.235 11.1168 28.091 13.9749 28.091 18.3437Z" fill="#EFDF00"/>
</svg>
