<svg width="41" height="41" viewBox="0 0 41 41" fill="none" xmlns="http://www.w3.org/2000/svg">
<path d="M32.6551 1.60293C31.8843 1.66888 31.1354 2.06461 30.4004 2.78412C29.289 3.87337 26.1459 7.85663 25.9029 9.02583C25.634 10.3249 26.2236 11.3582 26.7474 12.2656C27.2832 13.201 28.7113 14.9737 28.3389 16.007C26.2256 21.1955 21.3437 25.7224 16.153 27.8489C15.1412 28.2167 13.3705 26.7876 12.4403 26.248C11.532 25.7244 10.5063 25.1248 9.20959 25.4006C8.04438 25.6464 4.07273 28.8702 2.9852 29.9874C2.27214 30.7189 1.87577 31.4744 1.81403 32.2299C1.70647 35.1939 5.73389 38.5775 6.46688 38.9992C7.44087 39.7008 8.57421 40.0545 9.84697 40.0545C11.1476 40.0545 12.5976 39.6848 14.1791 38.9473C22.7598 35.3657 35.8679 22.5166 39.3336 14.0024C40.7717 10.8326 40.7817 8.21839 39.3575 6.25373C38.7899 5.33237 35.5532 1.48101 32.6551 1.60293Z" fill="white"/>
<path d="M15.5829 7.03456C11.4141 7.84801 8.1973 11.0758 7.38265 15.2549C7.2014 16.1863 7.81089 17.0917 8.73708 17.2775C8.84862 17.2975 8.95817 17.3075 9.06772 17.3075C9.88436 17.3075 10.5934 16.7219 10.7488 15.9165C11.2946 13.1164 13.4477 10.9579 16.2362 10.4142C17.1624 10.2324 17.7719 9.32499 17.5906 8.39563C17.4233 7.53776 16.6654 6.95406 15.801 7.00767C15.7289 7.01214 15.6561 7.02104 15.5829 7.03456Z" fill="#00828E"/>
<path d="M15.7074 0.070547C7.61868 0.971928 1.33852 7.2696 0.430262 15.384C0.378475 15.8417 0.50794 16.2894 0.792768 16.6492C1.07959 17.0089 1.48592 17.2348 1.94204 17.2847C2.00777 17.2927 2.07151 17.2967 2.13724 17.2967C3.00965 17.2967 3.74064 16.6392 3.83824 15.7678C4.56724 9.26423 9.6065 4.2137 16.0898 3.4902C17.03 3.38427 17.7092 2.53286 17.6036 1.5915C17.5538 1.12582 17.3247 0.710108 16.9582 0.422305C16.6611 0.185801 16.3004 0.0547799 15.9302 0.0546875C15.8562 0.054669 15.7818 0.0598877 15.7074 0.070547Z" fill="#00828E"/>
</svg>
