<?xml version="1.0" encoding="UTF-8"?>
<svg width="82px" height="82px" viewBox="0 0 82 82" version="1.1" xmlns="http://www.w3.org/2000/svg" xmlns:xlink="http://www.w3.org/1999/xlink">
    <title>round_range-yellow</title>
    <defs>
        <circle id="path-1" cx="40" cy="40" r="40"></circle>
        <circle id="path-3" cx="40" cy="40" r="40"></circle>
        <filter id="filter-5">
            <feColorMatrix in="SourceGraphic" type="matrix" values="0 0 0 0 0.000000 0 0 0 0 0.000000 0 0 0 0 0.000000 0 0 0 1.000000 0"></feColorMatrix>
        </filter>
        <path d="M28.633363,28.364227 C28.633363,28.7521876 28.9289876,29.0539347 29.3090765,29.0539347 C29.7313975,29.0539347 29.9847901,28.7952943 29.9847901,28.364227 C29.9847901,27.9331597 29.7313975,27.6745194 29.3090765,27.6745194 C28.9289876,27.6745194 28.633363,27.9331597 28.633363,28.364227 M28.633363,17.587545 C28.633363,17.9755056 28.9289876,18.2772526 29.3090765,18.2772526 C29.7313975,18.2772526 29.9847901,18.0186123 29.9847901,17.587545 C29.9847901,17.1564777 29.7313975,16.8978374 29.3090765,16.8978374 C28.9289876,16.8978374 28.633363,17.1564777 28.633363,17.587545 M28.633363,6.76775633 C28.633363,7.15571683 28.9289876,7.45746393 29.3090765,7.45746393 C29.7313975,7.45746393 29.9847901,7.19882363 29.9847901,6.76775633 C29.9847901,6.33668903 29.7313975,6.07804863 29.3090765,6.07804863 C28.9289876,6.07804863 28.633363,6.33668903 28.633363,6.76775633 M21.3272099,28.364227 C21.3272099,28.7521876 21.6228345,29.0539347 22.0029234,29.0539347 C22.4252444,29.0539347 22.6786371,28.7952943 22.6786371,28.364227 C22.6786371,27.9331597 22.4252444,27.6745194 22.0029234,27.6745194 C21.6228345,27.6745194 21.3272099,27.9331597 21.3272099,28.364227 M21.3272099,17.587545 C21.3272099,17.9755056 21.6228345,18.2772526 22.0029234,18.2772526 C22.4252444,18.2772526 22.6786371,18.0186123 22.6786371,17.587545 C22.6786371,17.1564777 22.4252444,16.8978374 22.0029234,16.8978374 C21.6228345,16.8978374 21.3272099,17.1564777 21.3272099,17.587545 M21.3272099,6.76775633 C21.3272099,7.15571683 21.6228345,7.45746393 22.0029234,7.45746393 C22.4252444,7.45746393 22.6786371,7.19882363 22.6786371,6.76775633 C22.6786371,6.33668903 22.4252444,6.07804863 22.0029234,6.07804863 C21.6228345,6.07804863 21.3272099,6.33668903 21.3272099,6.76775633 M20.144711,28.364227 C20.144711,27.2865588 20.947121,26.4675309 22.0029234,26.4675309 C22.8897975,26.4675309 23.523279,26.9417049 23.7766716,27.7176261 L27.5775604,27.7176261 C27.788721,26.9848118 28.4644345,26.4675309 29.3090765,26.4675309 C30.4071111,26.4675309 31.1672889,27.2434521 31.1672889,28.364227 C31.1672889,29.4418952 30.364879,30.260923 29.3090765,30.260923 C28.4644345,30.260923 27.788721,29.7436423 27.5353283,28.9677212 L23.7766716,28.9677212 C23.523279,29.7436423 22.8475654,30.260923 22.0029234,30.260923 C20.947121,30.260923 20.144711,29.4418952 20.144711,28.364227 M20.144711,17.587545 C20.144711,16.5098768 20.947121,15.690849 22.0029234,15.690849 C22.8897975,15.690849 23.523279,16.165023 23.7766716,16.9409441 L27.5775604,16.9409441 C27.788721,16.2081297 28.4644345,15.690849 29.3090765,15.690849 C30.4071111,15.690849 31.1672889,16.4667701 31.1672889,17.587545 C31.1672889,18.6652132 30.364879,19.4842411 29.3090765,19.4842411 C28.4644345,19.4842411 27.788721,18.9669603 27.5353283,18.1910392 L23.7766716,18.1910392 C23.523279,18.9669603 22.8475654,19.4842411 22.0029234,19.4842411 C20.947121,19.4842411 20.144711,18.6652132 20.144711,17.587545 M20.144711,6.76775633 C20.144711,5.69008813 20.947121,4.87106027 22.0029234,4.87106027 C22.8897975,4.87106027 23.523279,5.34523423 23.7766716,6.12115533 L27.5775604,6.12115533 C27.788721,5.38834103 28.4644345,4.87106027 29.3090765,4.87106027 C30.4071111,4.87106027 31.1672889,5.64698133 31.1672889,6.76775633 C31.1672889,7.84542453 30.364879,8.66445233 29.3090765,8.66445233 C28.4644345,8.66445233 27.788721,8.14717163 27.5353283,7.37125053 L23.7766716,7.37125053 C23.523279,8.14717163 22.8475654,8.66445233 22.0029234,8.66445233 C20.947121,8.66445233 20.144711,7.84542453 20.144711,6.76775633 M24.790242,22.8465658 L21.791763,22.8465658 C20.8626568,22.8465658 20.6092641,22.9758861 19.9757827,23.7949138 C19.4689975,24.3553013 19.3845333,24.570835 19.3845333,25.2605426 L19.3845333,26.2519973 C19.3845333,26.7261713 19.4689975,27.0279185 19.7223901,27.415879 L18.6243555,27.9762664 C18.2442667,27.415879 18.1175703,26.9848118 18.1175703,26.2519973 L18.1175703,25.2605426 C18.1175703,24.2259811 18.2864988,23.7949138 19.0889086,22.8896725 C20.0180148,21.8120043 20.4403358,21.5964707 21.791763,21.5964707 L24.790242,21.5964707 C26.3105975,21.5964707 27.0707752,21.855111 28.3799703,22.7172456 L29.1823802,23.2776331 L30.6605037,23.5793802 C32.2230913,23.924234 32.9832691,24.872582 32.9832691,26.5106378 C32.9832691,27.1141319 32.8988049,27.6314127 32.6876444,27.9762664 L31.5473777,27.415879 C31.631842,27.2003454 31.7163062,26.8554915 31.7163062,26.5106378 C31.7163062,25.4760763 31.2517531,24.9587954 30.2381827,24.7432618 L28.7178272,24.4415147 L27.0285431,23.3638465 C26.2683654,22.9327792 25.9727407,22.8465658 24.790242,22.8465658 M24.790242,12.0698838 L21.791763,12.0698838 C20.8626568,12.0698838 20.6092641,12.199204 19.9757827,13.0182319 C19.4689975,13.5786193 19.3845333,13.7941529 19.3845333,14.4838606 L19.3845333,15.4753154 C19.3845333,15.9494894 19.4689975,16.2512364 19.7223901,16.639197 L18.6243555,17.1995844 C18.2442667,16.639197 18.1175703,16.2081297 18.1175703,15.4753154 L18.1175703,14.4838606 C18.1175703,13.4492992 18.2864988,13.0182319 19.0889086,12.1129905 C20.0180148,11.0353224 20.4403358,10.8197886 21.791763,10.8197886 L24.790242,10.8197886 C26.3105975,10.8197886 27.0707752,11.0784291 28.3799703,11.9405637 L29.1823802,12.5009511 L30.6605037,12.8026981 C32.2230913,13.147552 32.9832691,14.0959 32.9832691,15.7339557 C32.9832691,16.3374498 32.8988049,16.8547306 32.6876444,17.1995844 L31.5473777,16.639197 C31.631842,16.4236634 31.7163062,16.0788095 31.7163062,15.7339557 C31.7163062,14.6993942 31.2517531,14.1821135 30.2381827,13.9665799 L28.7178272,13.6648327 L27.0285431,12.5871646 C26.2683654,12.1560973 25.9727407,12.0698838 24.790242,12.0698838 M24.790242,1.25009511 L21.791763,1.25009511 C20.8626568,1.25009511 20.6092641,1.37941529 19.9757827,2.19844313 C19.4689975,2.75883059 19.3845333,2.97436423 19.3845333,3.66407188 L19.3845333,4.65552662 C19.3845333,5.12970064 19.4689975,5.43144773 19.7223901,5.81940823 L18.6243555,6.37979573 C18.2442667,5.81940823 18.1175703,5.38834103 18.1175703,4.65552662 L18.1175703,3.66407188 C18.1175703,2.6295104 18.2864988,2.19844313 19.0889086,1.29320184 C20.0180148,0.21553363 20.4403358,1.77635684e-15 21.791763,1.77635684e-15 L24.790242,1.77635684e-15 C26.3105975,1.77635684e-15 27.0707752,0.25864036 28.3799703,1.12077492 L29.1823802,1.68116239 L30.6605037,1.98290948 C32.2230913,2.32776331 32.9832691,3.27611133 32.9832691,4.91416699 C32.9832691,5.51766113 32.8988049,6.03494193 32.6876444,6.37979573 L31.5473777,5.81940823 C31.631842,5.60387463 31.7163062,5.25902081 31.7163062,4.91416699 C31.7163062,3.87960552 31.2517531,3.36232479 30.2381827,3.14679114 L28.7178272,2.84504404 L27.0285431,1.76737585 C26.2683654,1.33630856 25.9727407,1.25009511 24.790242,1.25009511 M10.5157926,28.364227 C10.5157926,28.7521876 10.8114173,29.0539347 11.1915061,29.0539347 C11.6138271,29.0539347 11.8672198,28.7952943 11.8672198,28.364227 C11.8672198,27.9331597 11.6138271,27.6745194 11.1915061,27.6745194 C10.8114173,27.6745194 10.5157926,27.9331597 10.5157926,28.364227 M10.5157926,17.587545 C10.5157926,17.9755056 10.8114173,18.2772526 11.1915061,18.2772526 C11.6138271,18.2772526 11.8672198,18.0186123 11.8672198,17.587545 C11.8672198,17.1564777 11.6138271,16.8978374 11.1915061,16.8978374 C10.8114173,16.8978374 10.5157926,17.1564777 10.5157926,17.587545 M10.5157926,6.76775633 C10.5157926,7.15571683 10.8114173,7.45746393 11.1915061,7.45746393 C11.6138271,7.45746393 11.8672198,7.19882363 11.8672198,6.76775633 C11.8672198,6.33668903 11.6138271,6.07804863 11.1915061,6.07804863 C10.8114173,6.07804863 10.5157926,6.33668903 10.5157926,6.76775633 M3.20963951,28.364227 C3.20963951,28.7521876 3.5052642,29.0539347 3.88535309,29.0539347 C4.30767407,29.0539347 4.56106668,28.7952943 4.56106668,28.364227 C4.56106668,27.9331597 4.30767407,27.6745194 3.88535309,27.6745194 C3.5052642,27.6745194 3.20963951,27.9331597 3.20963951,28.364227 M3.20963951,17.587545 C3.20963951,17.9755056 3.5052642,18.2772526 3.88535309,18.2772526 C4.30767407,18.2772526 4.56106668,18.0186123 4.56106668,17.587545 C4.56106668,17.1564777 4.30767407,16.8978374 3.88535309,16.8978374 C3.5052642,16.8978374 3.20963951,17.1564777 3.20963951,17.587545 M3.20963951,6.76775633 C3.20963951,7.15571683 3.5052642,7.45746393 3.88535309,7.45746393 C4.30767407,7.45746393 4.56106668,7.19882363 4.56106668,6.76775633 C4.56106668,6.33668903 4.30767407,6.07804863 3.88535309,6.07804863 C3.5052642,6.07804863 3.20963951,6.33668903 3.20963951,6.76775633 M2.02714074,28.364227 C2.02714074,27.2865588 2.82955063,26.4675309 3.88535309,26.4675309 C4.77222717,26.4675309 5.40570865,26.9417049 5.65910124,27.7176261 L9.45999014,27.7176261 C9.67115064,26.9848118 10.3468642,26.4675309 11.1915061,26.4675309 C12.2895406,26.4675309 13.0497185,27.2434521 13.0497185,28.364227 C13.0497185,29.4418952 12.2473086,30.260923 11.1915061,30.260923 C10.3468642,30.260923 9.67115064,29.7436423 9.41775804,28.9677212 L5.65910124,28.9677212 C5.40570865,29.7436423 4.72999507,30.260923 3.88535309,30.260923 C2.82955063,30.260923 2.02714074,29.4418952 2.02714074,28.364227 M2.02714074,17.587545 C2.02714074,16.5098768 2.82955063,15.690849 3.88535309,15.690849 C4.77222717,15.690849 5.40570865,16.165023 5.65910124,16.9409441 L9.45999014,16.9409441 C9.67115064,16.2081297 10.3468642,15.690849 11.1915061,15.690849 C12.2895406,15.690849 13.0497185,16.4667701 13.0497185,17.587545 C13.0497185,18.6652132 12.2473086,19.4842411 11.1915061,19.4842411 C10.3468642,19.4842411 9.67115064,18.9669603 9.41775804,18.1910392 L5.65910124,18.1910392 C5.40570865,18.9669603 4.72999507,19.4842411 3.88535309,19.4842411 C2.82955063,19.4842411 2.02714074,18.6652132 2.02714074,17.587545 M2.02714074,6.76775633 C2.02714074,5.69008813 2.82955063,4.87106027 3.88535309,4.87106027 C4.77222717,4.87106027 5.40570865,5.34523423 5.65910124,6.12115533 L9.45999014,6.12115533 C9.67115064,5.38834103 10.3468642,4.87106027 11.1915061,4.87106027 C12.2895406,4.87106027 13.0497185,5.64698133 13.0497185,6.76775633 C13.0497185,7.84542453 12.2473086,8.66445233 11.1915061,8.66445233 C10.3468642,8.66445233 9.67115064,8.14717163 9.41775804,7.37125053 L5.65910124,7.37125053 C5.40570865,8.14717163 4.72999507,8.66445233 3.88535309,8.66445233 C2.82955063,8.66445233 2.02714074,7.84542453 2.02714074,6.76775633 M6.67267164,22.8465658 L3.6741926,22.8465658 C2.74508643,22.8465658 2.49169384,22.9758861 1.85821235,23.7949138 C1.35142717,24.3553013 1.26696297,24.570835 1.26696297,25.2605426 L1.26696297,26.2519973 C1.26696297,26.7261713 1.35142717,27.0279185 1.60481976,27.415879 L0.50678518,27.9762664 C0.1266963,27.415879 1.33226763e-15,26.9848118 1.33226763e-15,26.2519973 L1.33226763e-15,25.2605426 C1.33226763e-15,24.2259811 0.1689284,23.7949138 0.97133828,22.8896725 C1.90044445,21.8120043 2.32276543,21.5964707 3.6741926,21.5964707 L6.67267164,21.5964707 C8.19302714,21.5964707 8.95320494,21.855111 10.2624,22.7172456 L11.0648098,23.2776331 L12.5429333,23.5793802 C14.1055209,23.924234 14.8656988,24.872582 14.8656988,26.5106378 C14.8656988,27.1141319 14.7812346,27.6314127 14.570074,27.9762664 L13.4298074,27.415879 C13.5142716,27.2003454 13.5987358,26.8554915 13.5987358,26.5106378 C13.5987358,25.4760763 13.1341827,24.9587954 12.1206123,24.7432618 L10.6002568,24.4415147 L8.91097284,23.3638465 C8.15079504,22.9327792 7.85517034,22.8465658 6.67267164,22.8465658 M6.67267164,12.0698838 L3.6741926,12.0698838 C2.74508643,12.0698838 2.49169384,12.199204 1.85821235,13.0182319 C1.35142717,13.5786193 1.26696297,13.7941529 1.26696297,14.4838606 L1.26696297,15.4753154 C1.26696297,15.9494894 1.35142717,16.2512364 1.60481976,16.639197 L0.50678518,17.1995844 C0.1266963,16.639197 1.33226763e-15,16.2081297 1.33226763e-15,15.4753154 L1.33226763e-15,14.4838606 C1.33226763e-15,13.4492992 0.1689284,13.0182319 0.97133828,12.1129905 C1.90044445,11.0353224 2.32276543,10.8197886 3.6741926,10.8197886 L6.67267164,10.8197886 C8.19302714,10.8197886 8.95320494,11.0784291 10.2624,11.9405637 L11.0648098,12.5009511 L12.5429333,12.8026981 C14.1055209,13.147552 14.8656988,14.0959 14.8656988,15.7339557 C14.8656988,16.3374498 14.7812346,16.8547306 14.570074,17.1995844 L13.4298074,16.639197 C13.5142716,16.4236634 13.5987358,16.0788095 13.5987358,15.7339557 C13.5987358,14.6993942 13.1341827,14.1821135 12.1206123,13.9665799 L10.6002568,13.6648327 L8.91097284,12.5871646 C8.15079504,12.1560973 7.85517034,12.0698838 6.67267164,12.0698838 M6.67267164,1.25009511 L3.6741926,1.25009511 C2.74508643,1.25009511 2.49169384,1.37941529 1.85821235,2.19844313 C1.35142717,2.75883059 1.26696297,2.97436423 1.26696297,3.66407188 L1.26696297,4.65552662 C1.26696297,5.12970064 1.35142717,5.43144773 1.60481976,5.81940823 L0.50678518,6.37979573 C0.1266963,5.81940823 1.33226763e-15,5.38834103 1.33226763e-15,4.65552662 L1.33226763e-15,3.66407188 C1.33226763e-15,2.6295104 0.1689284,2.19844313 0.97133828,1.29320184 C1.90044445,0.21553363 2.32276543,1.77635684e-15 3.6741926,1.77635684e-15 L6.67267164,1.77635684e-15 C8.19302714,1.77635684e-15 8.95320494,0.25864036 10.2624,1.12077492 L11.0648098,1.68116239 L12.5429333,1.98290948 C14.1055209,2.32776331 14.8656988,3.27611133 14.8656988,4.91416699 C14.8656988,5.51766113 14.7812346,6.03494193 14.570074,6.37979573 L13.4298074,5.81940823 C13.5142716,5.60387463 13.5987358,5.25902081 13.5987358,4.91416699 C13.5987358,3.87960552 13.1341827,3.36232479 12.1206123,3.14679114 L10.6002568,2.84504404 L8.91097284,1.76737585 C8.15079504,1.33630856 7.85517034,1.25009511 6.67267164,1.25009511" id="path-6"></path>
    </defs>
    <g id="Icons-2021" stroke="none" stroke-width="1" fill="none" fill-rule="evenodd">
        <g id="round_range-yellow" transform="translate(1.000000, 1.000000)">
            <g id="Oval-5" stroke="#000000" stroke-width="2">
                <circle id="path-1" cx="40" cy="40" r="40"></circle>
            </g>
            <g id="colors/yellow-Clipped">
                <mask id="mask-2" fill="white">
                    <use xlink:href="#path-1"></use>
                </mask>
                <g id="path-1"></g>
                <g id="colors/yellow" mask="url(#mask-2)">
                    <rect id="Rectangle" x="0" y="0" width="80" height="80"></rect>
                </g>
            </g>
            <g id="CarTypes/vehicle-park-Clipped">
                <mask id="mask-4" fill="white">
                    <use xlink:href="#path-3"></use>
                </mask>
                <g id="path-1"></g>
                <g filter="url(#filter-5)" id="CarTypes/vehicle-park">
                    <g mask="url(#mask-4)">
                        <g transform="translate(24.765432, 26.000000)" id="Group">
                            <g transform="translate(0.000000, 0.000000)" id="Elements/Color/Dark-Blue-Clipped">
                                <mask id="mask-7" fill="white">
                                    <use xlink:href="#path-6"></use>
                                </mask>
                                <g id="path-3"></g>
                                <g id="Elements/Color/Dark-Blue" mask="url(#mask-7)" fill="#10314C" fill-rule="nonzero">
                                    <g transform="translate(-3.432099, -4.666667)" id="#10314C">
                                        <polygon points="0 0 40 0 40 40 0 40"></polygon>
                                    </g>
                                </g>
                            </g>
                        </g>
                    </g>
                </g>
            </g>
        </g>
    </g>
</svg>