<?xml version="1.0" encoding="UTF-8"?>
<svg width="82px" height="82px" viewBox="0 0 82 82" version="1.1" xmlns="http://www.w3.org/2000/svg" xmlns:xlink="http://www.w3.org/1999/xlink">
    <title>round_bank_yellow</title>
    <defs>
        <filter id="filter-1">
            <feColorMatrix in="SourceGraphic" type="matrix" values="0 0 0 0 0.000000 0 0 0 0 0.000000 0 0 0 0 0.000000 0 0 0 1.000000 0"></feColorMatrix>
        </filter>
    </defs>
    <g id="Icons-2021" stroke="none" stroke-width="1" fill="none" fill-rule="evenodd">
        <g id="round_bank_yellow" transform="translate(1.000000, 1.000000)">
            <circle id="Oval" stroke="#000000" stroke-width="2" cx="40" cy="40" r="40"></circle>
            <g filter="url(#filter-1)" id="Commercial/Credit-card">
                <g transform="translate(22.817556, 28.560000)">
                    <g id="Group" transform="translate(0.000000, -0.000000)" fill="#000000" fill-rule="nonzero">
                        <g id="Commercial/Credit-card" transform="translate(0.000000, -0.000000)">
                            <path d="M5.34313726,21.3624623 L14.0196078,21.3624623 L14.0196078,19.6573341 L5.34313726,19.6573341 L5.34313726,21.3624623 Z M5.34313726,17.8519043 L17.4509804,17.8519043 L17.4509804,16.146776 L5.34313726,16.146776 L5.34313726,17.8519043 Z M31.5196079,23.2681939 C32.7941177,23.2681939 33.2843138,22.7165347 33.2843138,21.4126131 L33.2843138,12.4374057 L1.71568627,12.4374057 L1.71568627,21.4126131 C1.71568627,22.7165347 2.20588235,23.2681939 3.48039216,23.2681939 L31.5196079,23.2681939 Z M1.71568627,10.7304864 L33.2843138,10.7304864 L33.2843138,7.06947588 L1.71568627,7.06947588 L1.71568627,10.7304864 Z M1.71568627,5.36434768 L33.2843138,5.36434768 L33.2843138,3.56070887 C33.2843138,2.25678734 32.7941177,1.70333714 31.5196079,1.70333714 L3.48039216,1.70333714 C2.20588235,1.70333714 1.71568627,2.25678734 1.71568627,3.56070887 L1.71568627,5.36434768 Z M0,3.56070887 C0,1.151678 1.12745099,-2.13162821e-14 3.48039216,-2.13162821e-14 L31.5196079,-2.13162821e-14 C33.8725491,-2.13162821e-14 35,1.151678 35,3.56070887 L35,21.4126131 C35,23.8216441 33.8725491,24.9751132 31.5196079,24.9751132 L3.48039216,24.9751132 C1.12745099,24.9751132 0,23.8216441 0,21.4126131 L0,3.56070887 Z" id="path-1"></path>
                        </g>
                    </g>
                </g>
            </g>
        </g>
    </g>
</svg>