<svg xmlns="http://www.w3.org/2000/svg" viewBox="0 0 550 550" fill="white">
  <path d="M445.1 251.2c12.2-.5 24.5-.4 37.5.3l7.8-13.1c-23.3-1.1-41.4-.7-66.8 2.8l-3.4 5.9-3.3 5.9c9.8 23.7 18.6 39.5 31.3 59.1l7.3-13.4c-7.4-11.1-13.9-22.1-19.7-33.2 0 0-.4-.7-1-1.8 36.6 19.3 57.2 44.4 57.2 70.2 0 26.9-21.8 52.6-61.5 72.4-41.4 20.7-96.6 32.1-155.5 32.1S160.9 427 119.5 406.3C79.8 386.5 58 360.8 58 334c0-28.9 25.9-56.9 71.1-76.9l-6.5-14.6C71.4 265.1 42 298.5 42 334c0 33.2 25 64 70.3 86.7 43.6 21.8 101.4 33.8 162.7 33.8s119.1-12 162.7-33.8C483 398 508 367.2 508 334c0-31.2-22.7-60.7-62.9-82.8z"></path>
  <path d="M268.9 202.5v-52.4c0-7.6 3.6-12.1 10.3-12.1 6.7 0 10.3 4.5 10.3 12.1v60.5h15.7v-39.9c0-7.6 3.6-12.1 10.3-12.1 6.7 0 10.3 4.5 10.3 12.1v47.9h15.7v-27.3c0-7.6 3.6-12.1 10.3-12.1 6.7 0 10.3 4.5 10.3 12.1v47.5c0 36.3-5.8 55.1-23.3 74.8l-9.9 11.2v37.6H345v-31.8l8.5-9.9c18.4-21.1 24.2-42.1 24.2-88.7v-40.8c0-16.6-9.4-27.3-24.2-27.3-4.5 0-8.5 1.3-12.1 3.6-1.3-14.8-10.3-24.2-23.7-24.2-4.9 0-9 1.3-12.5 3.6-1.3-14.8-10.3-24.2-23.7-24.2-4.9 0-9 1.3-12.5 3.6V86.1c0-16.6-10.3-27.3-26-27.3-15.2 0-26 11.2-26 27.3v127.7l-14.3-26.4c-6.3-11.6-13-16.6-22.8-16.6-14.8 0-26.4 11.2-26.4 24.6 0 4.5 1.8 11.2 4 15.2L217 321.7v40.8h15.7v-43.9l-60.9-113.3c-1.8-4.5-2.7-7.2-2.7-9.9 0-5.4 4.9-9.4 10.8-9.4 3.1 0 6.3 2.2 8.5 6.7L217 246l15.7-4.5V86.1c0-7.6 3.6-12.1 10.3-12.1s10.3 4.5 10.3 12.1v116.5h15.6z"></path>
</svg>