<?xml version="1.0" encoding="UTF-8"?>
<svg width="82px" height="82px" viewBox="0 0 82 82" version="1.1" xmlns="http://www.w3.org/2000/svg" xmlns:xlink="http://www.w3.org/1999/xlink">
    <title>round_car-park-yellow</title>
    <defs>
        <circle id="path-1" cx="40" cy="40" r="40"></circle>
        <circle id="path-3" cx="40" cy="40" r="40"></circle>
    </defs>
    <g id="Icons-2021" stroke="none" stroke-width="1" fill="none" fill-rule="evenodd">
        <g id="round_car-park-yellow" transform="translate(1.000000, 1.000000)">
            <g id="Oval-5" stroke="#000000" stroke-width="2">
                <circle id="path-1" cx="40" cy="40" r="40"></circle>
            </g>
            <g id="colors/yellow-Clipped">
                <mask id="mask-2" fill="white">
                    <use xlink:href="#path-1"></use>
                </mask>
                <g id="path-1"></g>
                <g id="colors/yellow" mask="url(#mask-2)" fill-rule="nonzero">
                    <rect id="Rectangle" x="0" y="0" width="80" height="80"></rect>
                </g>
            </g>
            <g id="path-1-Clipped">
                <mask id="mask-4" fill="white">
                    <use xlink:href="#path-3"></use>
                </mask>
                <g id="path-1"></g>
                <path d="M46.3157895,46.3684211 C45.1052632,46.3684211 44.3157895,47.1578947 44.3157895,48.3157895 C44.3157895,49.4736841 45.1052632,50.2631578 46.3157895,50.2631578 C47.5263159,50.2631578 48.3157895,49.4736841 48.3157895,48.3157895 C48.3157895,47.1578947 47.5263159,46.3684211 46.3157895,46.3684211 Z M37.1052632,28 C41.4210527,28 43.4736842,28.5789473 46.0000001,30.4210527 L50.6842105,33.8947368 L53.8421052,34.7894737 C57,35.6842106 58.7894737,37.4736841 60,40.7894737 L58.1578947,40.7894737 C57,38.3157894 55.5789474,37.1052632 52.7894737,36.3157895 L49.631579,35.4210526 L45.0526316,32 C42.8947369,30.4210527 40.7368422,29.7894737 37.1052632,29.7894737 L31.3157895,29.7894737 L31.3157895,28 L37.1052632,28 Z M36.0526316,31.5789473 C40.2105263,31.5789473 42.3157896,32.1578948 44.9473684,34.1578948 L48.8947369,37.1052632 L52.1578947,38 C55.2631579,38.8421053 56.8947368,40.8947369 57.3684211,44.5263158 L55.5263158,44.5263158 C55.0526316,41.6842105 53.7894737,40.2631579 51.1052632,39.5263158 L47.8421052,38.631579 L44,35.7368421 C41.7368421,34 39.5263158,33.3684211 36.0526316,33.3684211 L29.4736841,33.3684211 L29.4736841,31.5789473 L36.0526316,31.5789473 Z M27.5263158,46.3684211 C26.3157895,46.3684211 25.5263158,47.1578947 25.5263158,48.3157895 C25.5263158,49.4736841 26.3157895,50.2631578 27.5263158,50.2631578 C28.736842,50.2631578 29.5263158,49.4736841 29.5263158,48.3157895 C29.5263158,47.1578947 28.736842,46.3684211 27.5263158,46.3684211 Z M42.5789474,48.3157895 C42.5789474,46.2105263 44.1578947,44.631579 46.3157895,44.631579 C48.4736842,44.631579 50.0526316,46.2105263 50.0526316,48.3157895 C50.0526316,50.4210526 48.4736842,52 46.3157895,52 C44.8421053,52 43.631579,51.2631579 43.0000001,50.1052632 L30.8421053,50.1052632 C30.2105263,51.2631579 29,52 27.5263158,52 C25.3684211,52 23.7894737,50.4210526 23.7894737,48.3157895 C23.7894737,46.2105263 25.3684211,44.631579 27.5263158,44.631579 C29.6842105,44.631579 31.2631579,46.2105263 31.2631579,48.3157895 L42.5789474,48.3157895 Z M20,45.0526315 C20,42.4736842 20.1578948,42.1052631 22.7368421,39.0526315 C25.3684211,35.8947368 26.6315789,35.1578947 29.4210526,35.1578947 L36.1052632,35.1578947 C39.1052632,35.1578947 40.7368422,35.6842106 43.1052632,37.3157895 L47.1052631,40.3157895 L49.6842106,40.9473684 C52.4736842,41.5789474 53.7894737,43.2105263 53.7894737,45.8947368 C53.7894737,47.2105262 53.4210527,48.3684211 52.7368422,49.3157895 L51.263158,48.2631579 C51.7894737,47.4736842 51.9473685,46.8947368 51.9473685,45.8947368 C51.9473685,44.0526316 51,43.0526316 48.6315789,42.4736842 L46.0526317,41.8421053 L42.1578948,38.8947368 C40.2631579,37.4736841 38.6315789,36.9473684 36.1052632,36.9473684 L29.4210526,36.9473684 C27.2631578,36.9473684 26.4736842,37.4736841 24.0526316,40.3684211 C22.0526315,42.7894736 21.8421053,43.1052632 21.8421053,45.3157895 L21.8421053,46.4210526 C21.8421053,47.2105262 22,47.6842105 22.4736842,48.1578947 L21.2105263,49.3157895 C20.368421,48.5789474 20,47.6842105 20,46.4210526 L20,45.0526315 Z" id="path-1" fill="#000000" mask="url(#mask-4)"></path>
            </g>
        </g>
    </g>
</svg>