<svg width="110" height="4" viewBox="0 0 110 4" fill="none" xmlns="http://www.w3.org/2000/svg">
<path d="M37.6891 1L38.0047 0.612166C37.8209 0.462611 37.5573 0.462611 37.3735 0.612166L37.6891 1ZM35.2311 3V3.5H35.4088L35.5467 3.38783L35.2311 3ZM40.1471 3L39.8315 3.38783L39.9693 3.5H40.1471V3ZM0 3.5H35.2311V2.5H0V3.5ZM35.5467 3.38783L38.0047 1.38783L37.3735 0.612166L34.9155 2.61217L35.5467 3.38783ZM37.3735 1.38783L39.8315 3.38783L40.4626 2.61217L38.0047 0.612166L37.3735 1.38783ZM40.1471 3.5H110V2.5H40.1471V3.5Z" fill="#efdf00"/>
</svg>
