<?xml version="1.0" encoding="UTF-8"?>
<svg width="30px" height="30px" viewBox="0 0 30 30" version="1.1" xmlns="http://www.w3.org/2000/svg" xmlns:xlink="http://www.w3.org/1999/xlink">
    <!-- Generator: Sketch 55 (78076) - https://sketchapp.com -->
    <title>Document/brochure-pdf</title>
    <desc>Created with Sketch.</desc>
    <defs>
        <path d="M19.2608723,26.1147913 C20.5960872,24.9818816 21.9717632,23.6466667 23.2665171,22.1496075 L19.2608723,22.1496075 L19.2608723,26.1147913 Z M19.746405,12.4389533 L19.746405,15.7972212 L18.6944174,15.7972212 L18.6944174,12.4389533 L17.9661184,12.4389533 L17.9661184,11.5083489 L18.6944174,11.5083489 L18.6944174,11.2251215 C18.6944174,10.2540561 19.1394891,9.76852336 19.9891713,9.76852336 C20.2723988,9.76852336 20.5556262,9.80898442 20.7983925,9.88990654 L20.7983925,10.7800498 C20.5960872,10.6991277 20.3937819,10.6586667 20.2319377,10.6586667 C19.8677882,10.6586667 19.746405,10.7800498 19.746405,11.2655826 L19.746405,11.5083489 L20.7983925,11.5083489 L20.7983925,12.4389533 L19.746405,12.4389533 Z M15.4979938,14.8666168 C15.7407601,14.8666168 15.9835265,14.7856947 16.2667539,14.5429283 L16.2667539,12.5198754 C16.0644486,12.4794143 15.9026044,12.4389533 15.7002991,12.4389533 C15.0529221,12.4389533 14.8101558,12.7626417 14.8101558,13.7337072 C14.8101558,14.5833894 14.972,14.8666168 15.4979938,14.8666168 Z M16.347676,15.4735327 C16.0239875,15.7162991 15.659838,15.8781433 15.2552274,15.8781433 C14.2437009,15.8781433 13.7581682,15.1498442 13.7581682,13.7337072 C13.7581682,12.1557259 14.3246231,11.4678879 15.7002991,11.4678879 C15.9026044,11.4678879 16.0644486,11.5083489 16.2667539,11.54881 L16.2667539,9.84944548 L17.3187414,9.84944548 L17.3187414,15.7972212 L16.347676,15.7972212 L16.347676,15.4735327 Z M10.6426667,11.0228162 L10.6426667,12.7221807 L11.4923489,12.7221807 C11.9374206,12.7221807 12.1801869,12.3984922 12.1801869,11.8724984 C12.1801869,11.2655826 11.9778816,11.0228162 11.4923489,11.0228162 L10.6426667,11.0228162 Z M9.50975701,10.0112897 L11.4923489,10.0112897 C12.6252586,10.0112897 13.3130966,10.7395888 13.3130966,11.8724984 C13.3130966,13.0863302 12.6657196,13.7337072 11.4923489,13.7337072 L10.6426667,13.7337072 L10.6426667,15.7972212 L9.50975701,15.7972212 L9.50975701,10.0112897 Z M17.8851963,26.600324 L17.8851963,20.8143925 L23.6306667,20.8143925 L23.6306667,3.37567601 L6.31333333,3.37567601 L6.31333333,26.600324 L17.8851963,26.600324 Z M4.89719626,27.976 L4.89719626,2 L25.0468037,2 L25.0468037,22.1900685 C23.5092835,24.1321994 21.5266916,26.1147913 19.3013333,27.976 L4.89719626,27.976 Z" id="path-1"></path>
    </defs>
    <g id="Document/brochure-pdf" stroke="none" stroke-width="1" fill="none" fill-rule="evenodd">
        <g id="Group">
            <mask id="mask-2" fill="white">
                <use xlink:href="#path-1"></use>
            </mask>
            <use id="icons/30/brochure-pdf" fill="#FFFFFF" xlink:href="#path-1"></use>
        </g>
    </g>
</svg>