<?xml version="1.0" encoding="UTF-8"?>
<svg width="30px" height="30px" viewBox="0 0 30 30" version="1.1" xmlns="http://www.w3.org/2000/svg" xmlns:xlink="http://www.w3.org/1999/xlink">
    <title>SVG / C12-B_action_button/renault-wheel-white-blanc</title>
    <defs>
        <path d="M17.2689075,25.3361345 C21.302521,24.6218488 24.2016807,21.8907563 25.1260505,17.815126 L20.2941177,17.815126 C19.6218488,18.9495797 18.5294117,19.9159664 17.2689075,20.5042017 L17.2689075,25.3361345 Z M26.8487394,16.3865547 C26.2605043,22.4789916 21.8907563,26.6806723 15.7563025,27.0168068 L15.7563025,19.4537815 C17.3529412,19.1596638 18.8655463,17.8991596 19.3277311,16.3865547 L26.8487394,16.3865547 Z M12.7731092,25.3361345 L12.7731092,20.5042017 C11.4705883,19.9579832 10.3781512,18.9915967 9.70588235,17.815126 L4.83193277,17.815126 C5.75630252,21.8487395 8.65546218,24.6218488 12.7731092,25.3361345 Z M20.5042017,13.5294118 L25.3361345,13.5294118 C24.7478991,7.98319328 20.7142857,4.45378152 15,4.45378152 C9.2436975,4.45378152 5.16806722,7.98319328 4.57983194,13.5294118 L9.49579835,13.5294118 C10.1260505,11.8487394 11.7226891,11.1764706 15,11.1764706 C18.2773109,11.1764706 19.8739495,11.8487394 20.5042017,13.5294118 Z M14.2857143,27.0168068 C8.06722688,26.7226891 3.65546219,22.5630253 3.06722688,16.3865547 L10.6722689,16.3865547 C11.1344537,17.8991596 12.6470588,19.1596638 14.2857143,19.4537815 L14.2857143,27.0168068 Z M15,12.605042 C11.7647058,12.605042 10.8403362,13.1092437 10.5882353,14.9579833 L2.98319327,14.9579833 C2.98319327,7.89915967 7.89915967,2.98319327 15,2.98319327 C22.0168067,2.98319327 26.9327731,7.89915967 26.9327731,14.9579833 L19.4117647,14.9579833 C19.1596638,13.1092437 18.2352942,12.605042 15,12.605042 Z M15,28.487395 C23.1092437,28.487395 28.4453781,23.1092437 28.4453781,14.9579833 C28.4453781,6.8487395 23.1092437,1.51260504 15,1.51260504 C6.8907563,1.51260504 1.55462184,6.8487395 1.55462184,14.9579833 C1.55462184,23.1512605 6.8907563,28.487395 15,28.487395 Z M15,30 C5.96638656,30 0,23.9915967 0,14.9579833 C0,5.96638656 6.00840337,0 15,0 C24.0756302,0 30,5.92436975 30,14.9579833 C30,24.0336135 24.0336135,30 15,30 Z" id="path-1"></path>
    </defs>
    <g id="C12-B_action_button/renault-wheel-white-blanc" stroke="none" stroke-width="1" fill="none" fill-rule="evenodd">
        <mask id="mask-2" fill="white">
            <use xlink:href="#path-1"></use>
        </mask>
        <use id="Shape" fill="#FFFFFF" fill-rule="nonzero" xlink:href="#path-1"></use>
    </g>
</svg>