<svg width="24" height="9" viewBox="0 0 24 9" fill="none" xmlns="http://www.w3.org/2000/svg">
<mask maskUnits="userSpaceOnUse" x="0" y="0" width="0" height="0" fill="black">
<rect fill="white" width="0" height="0"/>
</mask>
<path d="M0.146447 4.14645C-0.0488155 4.34171 -0.0488155 4.65829 0.146447 4.85355L3.32843 8.03553C3.52369 8.2308 3.84027 8.2308 4.03553 8.03553C4.2308 7.84027 4.2308 7.52369 4.03553 7.32843L1.20711 4.5L4.03553 1.67157C4.2308 1.47631 4.2308 1.15973 4.03553 0.964466C3.84027 0.769204 3.52369 0.769204 3.32843 0.964466L0.146447 4.14645ZM23.8536 4.85355C24.0488 4.65829 24.0488 4.34171 23.8536 4.14645L20.6716 0.964466C20.4763 0.769204 20.1597 0.769204 19.9645 0.964466C19.7692 1.15973 19.7692 1.47631 19.9645 1.67157L22.7929 4.5L19.9645 7.32843C19.7692 7.52369 19.7692 7.84027 19.9645 8.03553C20.1597 8.2308 20.4763 8.2308 20.6716 8.03553L23.8536 4.85355ZM0.5 5H23.5V4H0.5V5Z" fill="#efdf00" mask="url(#)"/>
</svg>
