<svg width="29" height="25" viewBox="0 0 29 25" fill="none" xmlns="http://www.w3.org/2000/svg">
<path d="M9.55419 8.71419C10.5036 8.71419 11.2154 8.23086 11.5319 7.46548C10.2269 7.34496 9.23708 7.18342 8.60476 6.82125C8.48623 6.13663 8.80271 5.61291 9.47476 5.65266C10.2269 6.05586 11.5716 6.13663 13.7869 6.13663C17.4655 6.13663 18.7705 5.73342 18.7705 4.60586V3.27573C18.7705 2.0674 17.7429 1.74496 13.7869 1.74496C10.1077 1.74496 8.96095 2.02701 8.80271 3.03407C9.03976 2.99368 9.31652 2.9533 9.55419 2.9533C9.94947 2.9533 10.3057 2.99368 10.6221 3.11484C10.7407 3.07445 10.8995 3.03407 11.0969 3.03407C11.8093 3.03407 12.086 3.31612 12.086 4.00073C12.086 4.6456 11.7298 4.9674 11.0962 4.9674C10.701 4.9674 10.4242 4.8065 10.3057 4.52445C10.1077 4.4033 9.83095 4.36355 9.55419 4.36355C8.24919 4.36355 7.41828 5.24945 7.41828 6.53855C7.41828 7.82701 8.24856 8.71355 9.55419 8.71355V8.71419ZM12.956 7.50586C12.5601 9.03663 11.2551 10.1245 9.55419 10.1245C7.49708 10.1245 6.03384 8.59368 6.03384 6.53919C6.03384 5.29048 6.54765 4.28342 7.41828 3.63919V3.27573C7.41828 1.06035 8.88152 0.375732 13.7869 0.375732C18.6917 0.375732 20.1556 1.06035 20.1556 3.27573H25.8118V4.60522H20.1556C20.1556 6.73983 18.4547 7.50522 13.7869 7.50522H12.956V7.50586ZM1.28667 24.7866L0.376953 23.7796L2.03815 22.5309C3.97674 21.0405 5.40089 20.5168 7.41828 20.5168C10.1474 20.5168 13.3513 21.8052 16.714 21.9668L26.6818 14.9982C27.0778 14.7161 27.236 14.5148 27.236 14.2328C27.236 13.7091 26.8401 13.2661 26.3263 13.2661C26.0886 13.2661 25.9304 13.3065 25.5748 13.5482L21.105 16.6091C20.7488 17.4552 19.9576 17.9789 18.8102 17.9789H13.0745V16.5687H18.8102C19.4829 16.5687 19.8782 16.2469 19.8782 15.6424C19.8782 15.0386 19.4829 14.7161 18.8102 14.7161H9.03976C5.47969 14.7161 4.56997 14.9982 2.5923 16.5687L1.2873 17.6161L0.376953 16.6097L1.68195 15.5623C3.93702 13.7495 5.28174 13.3469 9.07947 13.3469H18.8102C19.9576 13.3469 20.8673 13.9507 21.1441 14.9174L24.9809 12.3398C25.4556 12.0174 25.8118 11.8962 26.3263 11.8962C26.9351 11.8973 27.5186 12.1439 27.9487 12.582C28.3788 13.02 28.6204 13.6138 28.6204 14.2328C28.6204 15.0386 28.304 15.4815 27.1566 16.2873L17.347 23.336C13.8657 23.336 10.3454 21.886 7.41765 21.886C5.59821 21.886 4.60969 22.2488 2.94787 23.5379L1.28667 24.7866Z" fill="#1F2532"/>
</svg>
